<svg width="772" height="534" viewBox="0 0 772 534" fill="none" xmlns="http://www.w3.org/2000/svg">
    <g clip-path="url(#clip0_1_1492)">
        <g clip-path="url(#clip1_1_1492)">
            <path d="M644.818 90.3204C644.641 90.9822 644.208 91.5464 643.614 91.8889C643.021 92.2314 642.316 92.3243 641.654 92.1469L611.714 84.1244C611.052 83.9471 610.488 83.5142 610.145 82.9209C609.803 82.3276 609.71 81.6225 609.887 80.9608L613.899 65.9905C614.076 65.3288 614.509 64.7646 615.102 64.4221C615.695 64.0795 616.4 63.9867 617.062 64.164L619.986 64.9476C621.971 65.4781 624.085 65.1991 625.864 64.1717L628.488 62.6607C629.08 62.319 629.783 62.2256 630.443 62.401L636.291 63.9681C636.953 64.1455 637.517 64.5785 637.859 65.1718L639.372 67.7912C639.881 68.6729 640.558 69.4457 641.366 70.0654C642.173 70.6852 643.095 71.1397 644.079 71.403L647.003 72.1866C647.664 72.3639 648.229 72.7968 648.571 73.3901C648.914 73.9834 649.007 74.6884 648.829 75.3502L644.818 90.3204ZM617.731 61.669C616.407 61.3144 614.997 61.5 613.811 62.1851C612.624 62.8701 611.758 63.9985 611.404 65.322L607.392 80.2923C607.038 81.6157 607.223 83.0258 607.908 84.2124C608.593 85.399 609.722 86.2648 611.045 86.6194L640.986 94.642C642.309 94.9966 643.719 94.811 644.906 94.1259C646.093 93.4408 646.958 92.3124 647.313 90.989L651.324 76.0187C651.679 74.6953 651.493 73.2851 650.808 72.0986C650.123 70.912 648.995 70.0461 647.671 69.6915L644.747 68.908C643.424 68.5531 642.296 67.6872 641.611 66.5006L640.099 63.8811C639.414 62.6945 638.286 61.8286 636.962 61.4737L631.114 59.9066C629.791 59.5523 628.381 59.7382 627.194 60.4234L624.575 61.9357C623.388 62.6209 621.978 62.8068 620.655 62.4525L617.731 61.669Z" fill="#A2A2A2" fill-opacity="0.5" />
            <path d="M628.021 83.1456C626.367 82.7023 624.956 81.62 624.1 80.1368C623.243 78.6536 623.011 76.891 623.455 75.2366C623.898 73.5823 624.98 72.1718 626.463 71.3155C627.947 70.4592 629.709 70.2271 631.364 70.6704C633.018 71.1137 634.428 72.1959 635.285 73.6792C636.141 75.1624 636.373 76.925 635.93 78.5794C635.487 80.2337 634.404 81.6442 632.921 82.5005C631.438 83.3568 629.675 83.5889 628.021 83.1456ZM627.352 85.6407C629.668 86.2612 632.136 85.9364 634.213 84.7375C636.289 83.5386 637.804 81.564 638.425 79.2479C639.046 76.9319 638.721 74.4641 637.522 72.3876C636.323 70.3111 634.348 68.7959 632.032 68.1753C629.716 67.5548 627.248 67.8796 625.172 69.0785C623.095 70.2774 621.58 72.252 620.96 74.5681C620.339 76.8841 620.664 79.3518 621.863 81.4284C623.062 83.5049 625.036 85.0201 627.352 85.6407ZM618.554 68.5752C618.466 68.906 618.249 69.1881 617.952 69.3594C617.656 69.5307 617.303 69.5771 616.972 69.4884C616.642 69.3998 616.359 69.1833 616.188 68.8867C616.017 68.59 615.97 68.2375 616.059 67.9066C616.148 67.5758 616.364 67.2937 616.661 67.1224C616.958 66.9511 617.31 66.9047 617.641 66.9934C617.972 67.082 618.254 67.2985 618.425 67.5951C618.596 67.8918 618.643 68.2443 618.554 68.5752Z" fill="#A2A2A2" fill-opacity="0.5" />
        </g>
        <path d="M277.35 240.023H277.429C205.226 231.386 177.723 186.905 186.028 116.478C188.203 105.825 173.952 100.738 169.245 110.78C130.843 192.667 178.32 285.669 272.063 288.489C305.381 292.423 310.868 242.981 277.35 240.023Z" fill="#AA5635" />
        <path d="M202.905 471.519H371.647C371.295 454.142 370.656 426.317 368.754 415.775H204.914C203.378 433.771 202.778 452.522 202.905 471.519Z" fill="#E8C0A6" />
        <path d="M297.762 214.562H275.945V240.325H297.762V214.562Z" fill="#AA5635" />
        <path d="M204.157 403.295C204.253 407.834 204.501 412.024 204.9 415.785C204.9 415.785 306.781 435.048 370.266 415.785C370.741 411.945 371.207 407.762 371.606 403.295C375.872 355.556 372.897 275.499 303.721 235.96C303.721 235.96 304.465 229.806 297.513 226.521C297.513 226.521 287.622 229.072 275.695 226.449C275.695 226.449 269.006 229.484 270.364 235.933C248.227 251.965 223.221 262.299 217.6 288.261C209.971 323.541 203.483 371.754 204.157 403.295Z" fill="#E8C0A6" />
        <path d="M251.038 181.915C253.687 194.149 268.629 190.993 266.094 178.734C263.446 166.5 248.509 169.656 251.038 181.915Z" fill="#AA5635" />
        <path d="M324.034 181.915C321.386 194.149 306.444 190.993 308.978 178.734C311.627 166.5 326.564 169.656 324.034 181.915Z" fill="#AA5635" />
        <path d="M256.831 195.133C258.533 236.099 324.233 230.093 317.751 188.954C316.854 180.795 313.933 175.369 312.563 162.365C309.392 132.26 266.615 130.652 262.765 162.139C261.259 174.557 256.735 183.709 256.831 195.133Z" fill="#AA5635" />
        <path d="M279.297 176.695C280.288 174.822 277.315 173.318 276.394 175.208C275.408 177.089 278.368 178.593 279.297 176.695Z" fill="#7C3021" />
        <path d="M298.833 176.732C299.824 174.861 296.851 173.357 295.926 175.245C294.943 177.126 297.904 178.63 298.833 176.732Z" fill="#7C3021" />
        <path d="M288.967 189.501C291.941 189.466 296.588 187.455 292.815 184.794C289.736 183.126 287.476 176.747 287.451 176.682C287.203 175.927 286.012 176.333 286.289 177.089C286.386 177.369 288.732 183.986 292.235 185.879C294.651 187.365 289.617 188.79 287.543 188.059C287.466 188.034 287.384 188.025 287.303 188.031C287.222 188.038 287.143 188.06 287.071 188.097C286.999 188.134 286.935 188.185 286.882 188.247C286.829 188.309 286.79 188.381 286.765 188.458C286.582 189.575 288.194 189.419 288.967 189.501Z" fill="#7C3021" />
        <path d="M307.657 160.454C292.876 167.32 275.923 144.97 266.87 155.217L265.762 148.956L282.996 140.872L310.497 150.445L307.657 160.454Z" fill="#7C3021" />
        <path d="M260.962 171.623C260.962 171.623 266.115 161.74 266.87 155.217C267.626 148.694 276.387 147.556 283.584 152.663C290.781 157.769 299.757 160.095 309.194 156.609C318.631 153.123 324.738 138.821 315.14 130.382C305.636 122.025 295.749 128.536 287.199 131.774C276.161 135.952 248.438 127.523 260.962 171.623Z" fill="#3D0B0B" />
        <path d="M313.812 171.152C313.812 171.152 306.096 162.412 305.636 150.807L313.898 147.556C313.898 147.556 317.263 158.849 313.812 171.152Z" fill="#3D0B0B" />
        <path d="M254.165 184.355C254.259 184.355 254.351 184.332 254.435 184.29C254.519 184.247 254.591 184.186 254.647 184.11C254.703 184.035 254.74 183.947 254.756 183.855C254.772 183.762 254.767 183.667 254.74 183.577C252.632 177.567 254.819 174.495 259.569 176.313C260.287 176.613 260.741 175.466 260.007 175.193C254.99 173.139 250.87 176.321 253.59 183.929C253.628 184.053 253.704 184.161 253.807 184.237C253.911 184.314 254.036 184.355 254.165 184.355Z" fill="#7C3021" />
        <path d="M259.787 183.515C261.66 183.364 258.092 177.594 253.526 177.284C253.367 177.276 253.21 177.329 253.09 177.435C252.971 177.54 252.897 177.688 252.884 177.847C252.879 177.926 252.889 178.005 252.915 178.079C252.94 178.154 252.98 178.223 253.032 178.283C253.084 178.342 253.147 178.391 253.218 178.426C253.289 178.46 253.366 178.481 253.444 178.486C258.117 178.969 258.682 183.359 259.787 183.515Z" fill="#7C3021" />
        <path d="M320.529 184.355C320.658 184.355 320.783 184.314 320.887 184.237C320.99 184.161 321.066 184.053 321.104 183.929C323.829 176.316 319.694 173.142 314.687 175.193C313.958 175.468 314.399 176.608 315.125 176.313C319.421 174.552 322.226 177.222 319.951 183.577C319.924 183.667 319.919 183.763 319.935 183.855C319.951 183.948 319.989 184.035 320.045 184.111C320.101 184.187 320.174 184.248 320.258 184.29C320.342 184.333 320.435 184.355 320.529 184.355Z" fill="#7C3021" />
        <path d="M314.904 183.513C315.997 183.369 316.602 178.959 321.249 178.486C321.408 178.475 321.556 178.402 321.661 178.282C321.766 178.162 321.82 178.006 321.809 177.847C321.797 177.688 321.723 177.54 321.603 177.435C321.483 177.329 321.327 177.276 321.168 177.284C316.602 177.597 313.036 183.357 314.904 183.513Z" fill="#7C3021" />
        <path d="M317.979 189.385C317.831 188.442 317.641 187.48 317.41 186.498C317.06 184.991 316.635 183.503 316.136 182.039C316.005 181.474 315.888 180.894 315.76 180.305C315.512 179.034 315.264 177.701 314.996 176.36L314.773 175.213C314.772 175.2 314.772 175.187 314.773 175.174C314.553 174.083 314.318 172.996 314.048 171.94C314.028 171.854 314.003 171.762 313.983 171.675C313.931 171.489 313.882 171.304 313.832 171.123C313.385 169.385 312.737 167.705 311.9 166.118C312.147 167.211 312.368 168.373 312.578 169.587C312.732 170.446 312.878 171.321 313.017 172.228C314.008 178.523 314.637 185.413 314.939 189.598C316.139 197.063 311.027 198.584 305.646 196.329C276.813 180.473 261.546 208.764 259.715 189.64C259.658 187.579 259.756 185.517 260.007 183.471C260.055 183.065 260.107 182.656 260.161 182.249C260.619 178.902 261.35 175.52 262.059 172.206C262.428 170.489 262.79 168.789 263.104 167.122C263.3 166.093 263.479 165.075 263.63 164.074C262.748 166.512 261.947 168.697 261.204 170.932C261.132 171.155 261.065 171.393 260.984 171.608V171.623C260.584 172.817 260.219 173.992 259.889 175.146C259.777 175.535 259.668 175.922 259.566 176.308C259.232 177.53 258.927 178.741 258.645 179.965C258.521 180.5 258.4 181.04 258.283 181.585C257.755 184.036 257.292 186.563 256.841 189.305C256.842 189.319 256.842 189.334 256.841 189.348C255.429 207.52 264.425 218.127 275.945 222.086C282.883 224.474 290.719 224.454 297.765 222.227C310.586 218.179 320.762 206.827 317.979 189.385ZM272.219 198.304C281.287 193.014 294.842 194.03 303.228 200.157C308.183 203.502 307.591 211.086 302.071 213.38C290.593 218.248 291.17 205.811 287.501 205.722C282.925 205.608 283.906 213.898 277.838 213.722C270.071 213.452 263.701 203.437 272.219 198.299V198.304Z" fill="#3D0B0B" />
        <path d="M270.425 235.851C270.425 235.878 270.391 235.905 270.378 235.933C287.225 240.301 304.008 235.948 303.971 235.96C303.971 235.96 304.714 229.806 297.762 226.518C297.762 226.518 287.87 229.075 275.945 226.449C275.945 226.449 269.082 229.402 270.425 235.851Z" fill="#D1A68F" />
        <path d="M303.971 235.957C303.971 235.957 317.422 285.711 349.045 332.609C355.596 342.32 363.999 350.548 373.216 357.503C386.377 367.413 401.177 374.742 414.591 380.016C437.166 388.906 455.75 391.998 455.75 391.998C462.003 381.057 460.438 372.462 460.438 372.462C436.998 354.493 424.491 340.42 389.332 291.571C354.174 242.721 303.971 235.957 303.971 235.957Z" fill="#E8C0A6" />
        <path d="M332.892 281.723C359.661 312.959 372.864 356.961 372.864 356.961L373.206 357.493C386.367 367.403 401.168 374.732 414.581 380.007C414.581 380.007 376.719 346.292 364.401 323.717C352.276 301.493 333.471 282.315 332.892 281.723Z" fill="#D1A68F" />
        <path d="M355.635 266.61C355.635 266.61 441.328 324.032 457.269 286.348C474.235 246.239 450.017 232.023 452.599 206.227L393.457 173.179C393.457 173.179 383.232 177.175 368.186 220.374C358.368 248.504 355.635 266.61 355.635 266.61Z" fill="#4F1237" />
        <path d="M425.539 307.261C448.535 319.552 466.418 341.471 492.876 347.769C543.913 361.276 566.786 315.12 572.739 272.325C573.9 264.763 574.649 257.143 574.984 249.5C575.727 243.554 573.856 238.168 567.118 237.642C561.328 237.548 558.865 242.149 558.107 247.141C557.363 250.047 556.573 252.951 555.726 255.832C551.293 270.586 545.724 285.451 537.209 298.258C531.107 307.137 522.096 317.397 510.486 313.596C502.409 311.285 496.116 306.595 489.89 300.824C477.27 288.803 465.561 275.11 450.497 265.517C421.949 246.834 395.496 290.904 425.539 307.261Z" fill="#AA5635" />
        <path d="M415.252 170.29C443.412 157.776 462.269 202.498 447.626 225.609L415.252 170.29Z" fill="#4F1237" />
        <path d="M466.515 420.224H371.261C370.808 382.403 375.075 344.673 383.963 307.908C389.243 286.561 392.28 269.491 412.621 258.087C411.171 245.451 413.148 227.214 414.912 219.705C415.839 215.652 418.74 212.582 422.003 211.564C430.348 208.667 440.225 215.775 437.659 225.19C436.901 224.714 434.48 251.531 436.15 258.976C477.495 272.169 456.419 319.141 459.246 350.645C459.464 373.798 461.696 397.587 466.515 420.224Z" fill="#AA5635" />
        <path d="M437.882 223.961C437.825 224.368 437.754 224.781 437.659 225.18C437.112 224.818 435.586 239.614 435.571 250.354C425.48 254.943 414.232 252.924 412.173 252.502C412.785 237.756 411.033 215.567 422.004 211.564C429.88 208.197 439.262 215.374 437.882 223.961Z" fill="#7C3021" />
        <path d="M390.796 213.439C392.491 223.951 396.041 235.801 404.346 242.756C407.7 245.543 411.778 247.317 416.121 248.172C440.649 255.032 469.426 226.513 450.255 205.739C443.288 199.297 441.809 187.901 436.256 181.494C428.18 169.775 410.458 170.382 400.89 179.94C392.253 188.577 389.297 200.487 390.796 213.439Z" fill="#AA5635" />
        <path d="M204.156 403.295C204.253 407.834 204.5 412.024 204.899 415.785C204.899 415.785 306.781 435.048 370.265 415.785C370.741 411.944 371.206 407.762 371.605 403.295C298.738 422.63 204.156 403.295 204.156 403.295Z" fill="#D1A68F" />
        <path d="M430.92 206.95C431.884 205.122 428.993 203.653 428.083 205.508C427.122 207.334 430.013 208.804 430.92 206.95Z" fill="#7C3021" />
        <path d="M440.543 260.592C440.543 260.592 440.543 262.014 440.632 264.486C441.08 277.602 443.773 320.335 459.885 337.432C460.595 338.186 461.338 338.918 462.114 339.63C464.991 342.262 468.148 344.569 471.529 346.51C479.153 350.94 488.069 353.881 497.162 355.36C512.963 357.934 529.313 356.086 540.387 349.934C557.408 340.48 563.49 315.038 565.207 305.556C565.616 303.282 565.777 301.927 565.777 301.927C548.977 304.652 541.002 292.032 541.002 292.032C540.437 292.809 539.875 293.55 539.302 294.261C521.283 316.631 499.959 303.869 485.688 288.677C471.016 273.051 452.346 264.893 444.408 261.92C441.965 261.008 440.543 260.592 440.543 260.592Z" fill="#1D3F70" />
        <path d="M459.048 292.031L462.105 339.63C471.15 347.992 483.959 353.217 497.147 355.36C485.701 350.536 475.325 342.972 473.484 331.221C469.084 303.143 459.048 292.031 459.048 292.031Z" fill="#10325B" />
        <path d="M539.285 294.256C548.264 309.122 565.19 305.559 565.19 305.559C565.599 303.284 565.76 301.929 565.76 301.929C548.96 304.655 540.985 292.034 540.985 292.034C540.42 292.809 539.85 293.55 539.285 294.256Z" fill="#10325B" />
        <path d="M444.301 204.701C445.263 202.872 442.371 201.403 441.462 203.259C440.501 205.085 443.392 206.554 444.301 204.701Z" fill="#7C3021" />
        <path d="M439.242 218.54C442.156 218.506 446.675 216.544 443.001 213.955C439.995 212.327 437.798 206.093 437.763 206.026C434.654 203.68 439.079 213.387 442.426 215.01C444.784 216.454 439.874 217.854 437.842 217.141C437.767 217.116 437.688 217.107 437.609 217.113C437.53 217.119 437.453 217.141 437.382 217.177C437.312 217.213 437.249 217.263 437.198 217.323C437.147 217.384 437.108 217.454 437.084 217.53C436.913 218.612 438.487 218.461 439.242 218.54Z" fill="#7C3021" />
        <path d="M366.93 389.381C370.701 411.761 371.35 433.826 371.885 456.426H495.019C486.811 414.952 479.616 392.367 473.216 370.091C471.995 342.762 468.534 314.79 459.05 292.034C454.095 279.956 447.564 270.232 440.543 260.592C431.311 266.595 413.255 275.605 406.865 261.791C357.768 266.263 362.793 355.382 366.93 389.381Z" fill="#1D3F70" />
        <path d="M390.796 213.439C392.491 223.951 396.041 235.801 404.346 242.756C399.745 237.043 396.874 224.258 396.874 224.258L399.049 218.572C435.553 206.789 432.424 177.473 432.424 177.473C426.973 172.713 419.625 171.752 412.631 173.491C395.506 177.916 388.641 196.426 390.796 213.439Z" fill="#7C3021" />
        <path d="M428.557 174.859C428.557 174.859 431.495 203.769 398.826 215.637L387.1 209.165C375.666 186.731 396.368 153.783 428.557 174.859Z" fill="#4F1237" />
        <path d="M390.427 165.955C398.001 193.487 430.053 185.195 423.307 157.447C415.725 129.906 383.681 138.211 390.427 165.955Z" fill="#4F1237" />
        <path d="M384.12 218.746C386.706 230.695 401.297 227.611 398.826 215.637C396.24 203.688 381.65 206.772 384.12 218.746Z" fill="#AA5635" />
        <path d="M387.912 221.213C388.006 221.213 388.099 221.19 388.182 221.148C388.266 221.105 388.338 221.044 388.394 220.968C388.45 220.893 388.487 220.805 388.503 220.713C388.52 220.62 388.514 220.525 388.487 220.436C386.21 214.081 389.027 211.41 393.316 213.174C394.034 213.469 394.488 212.324 393.754 212.052C388.735 210 384.617 213.179 387.337 220.787C387.374 220.911 387.45 221.019 387.554 221.096C387.658 221.173 387.783 221.214 387.912 221.213Z" fill="#7C3021" />
        <path d="M393.534 220.376C395.404 220.228 391.839 214.455 387.271 214.145C387.112 214.137 386.956 214.191 386.837 214.296C386.717 214.402 386.644 214.549 386.632 214.708C386.626 214.787 386.636 214.866 386.661 214.941C386.686 215.016 386.726 215.085 386.778 215.144C386.83 215.204 386.893 215.252 386.964 215.287C387.035 215.322 387.113 215.342 387.191 215.347C391.864 215.828 392.436 220.218 393.534 220.376Z" fill="#7C3021" />
        <path d="M390.702 224.256C390.678 226.01 393.428 226.01 393.408 224.256C393.428 222.502 390.678 222.502 390.702 224.256Z" fill="#F4D4BE" />
        <path d="M469.632 360.669C469.956 360.669 470.028 360.669 470.194 360.669C470.36 360.669 470.472 360.689 470.603 360.704C470.865 360.731 471.118 360.771 471.368 360.821C471.869 360.919 472.358 361.069 472.828 361.269C473.286 361.463 473.716 361.72 474.104 362.032C474.457 362.313 474.765 362.647 475.015 363.023C475.726 364.069 475.092 365.429 473.593 366.063C473.101 366.279 472.569 366.391 472.031 366.391C471.493 366.391 470.961 366.279 470.469 366.063L469.154 365.416C469.126 365.402 469.181 365.434 469.171 365.416C469.152 365.409 469.133 365.403 469.114 365.399H469.059H469.188C467.417 365.441 466.079 364.408 466.2 363.107C466.322 361.807 467.86 360.712 469.632 360.669Z" fill="#AA5635" />
        <path d="M471.002 365.092C471.262 365.131 471.336 365.149 471.483 365.176L471.847 365.26C472.095 365.317 472.31 365.384 472.538 365.458C472.997 365.608 473.441 365.799 473.866 366.028C474.312 366.269 474.722 366.57 475.085 366.923C475.45 367.281 475.74 367.708 475.94 368.179C476.435 369.395 475.444 370.773 473.735 371.258C472.025 371.744 470.246 371.154 469.756 369.938C469.768 369.997 469.825 370.002 469.701 369.938C469.616 369.896 469.528 369.859 469.439 369.829C469.382 369.811 469.32 369.792 469.263 369.779L469.181 369.759C469.181 369.759 469.099 369.744 469.206 369.759C467.499 369.512 466.518 368.273 467.016 366.999C467.514 365.726 469.295 364.854 471.002 365.092Z" fill="#AA5635" />
        <path d="M472.607 369.678L475.276 370.822C476.74 371.449 477.111 372.891 476.108 374.043C475.105 375.195 473.1 375.614 471.648 374.984L468.98 373.842C467.516 373.213 467.144 371.774 468.15 370.622C469.156 369.469 471.143 369.051 472.607 369.678Z" fill="#AA5635" />
        <path d="M473.274 373.879L475.939 375.024C477.404 375.651 477.778 377.09 476.772 378.245C475.766 379.399 473.764 379.816 472.3 379.186L469.634 378.044C468.167 377.415 467.796 375.976 468.802 374.823C469.807 373.671 471.807 373.253 473.274 373.879Z" fill="#AA5635" />
        <path d="M153.807 213.268C156.833 229.528 165.608 243.672 176.105 255.386C190.022 270.868 206.958 282.082 217.594 288.261C223.85 291.893 227.928 293.788 227.928 293.788L270.378 235.933C221.791 224.93 203.311 194.84 196.017 179.469C190.401 167.634 187.373 138.035 186.281 125.043C185.954 121.158 185.797 118.76 185.797 118.76C171.559 120.712 166.753 116.158 166.753 116.158C166.753 116.158 165.826 118.098 164.431 121.609C158.971 135.332 146.34 173.102 153.807 213.268Z" fill="#E8C0A6" />
        <path d="M403.021 262.217C410.964 280.779 432.008 269.949 440.632 264.486C441.331 264.043 441.948 263.634 442.47 263.28C443.692 262.452 444.391 261.917 444.391 261.917C441.965 261.013 440.543 260.592 440.543 260.592C411.95 278.886 406.866 261.791 406.866 261.791C405.577 261.861 404.293 262.003 403.021 262.217Z" fill="#10325B" />
        <path d="M476.69 456.825L480.431 456.025C477.572 442.646 473.796 429.129 470.144 416.052C468.056 408.58 465.898 400.857 463.918 393.187C462.035 385.898 460.507 379.404 459.248 373.334C458.735 370.882 458.257 368.461 457.838 366.15C456.941 361.251 456.198 356.443 455.623 351.852C455.21 348.524 454.88 345.217 454.632 342.016C454.072 334.89 453.332 327.951 452.43 321.393C451.216 312.603 449.69 304.367 447.896 296.92C447.324 294.541 446.707 292.178 446.063 289.893C445.349 287.366 444.591 284.916 443.81 282.609C440.837 273.784 438.132 268.817 436.792 266.642C436.331 265.898 436.048 265.519 436.026 265.48L432.954 267.759C432.954 267.759 433.167 268.049 433.536 268.649C434.544 270.286 437.215 275.053 440.188 283.836C440.949 286.08 441.675 288.469 442.381 290.931C443.013 293.161 443.62 295.485 444.177 297.814C445.941 305.14 447.443 313.249 448.637 321.916C449.529 328.399 450.262 335.262 450.814 342.316C451.062 345.571 451.412 348.941 451.835 352.325C452.415 356.988 453.173 361.868 454.082 366.836C454.511 369.189 454.989 371.642 455.509 374.122C456.78 380.252 458.321 386.805 460.217 394.153C462.199 401.858 464.372 409.603 466.463 417.09C470.097 430.1 473.858 443.565 476.69 456.825Z" fill="#10325B" />
        <path d="M437.961 456.515L441.781 456.334C441.167 443.488 440.451 431.294 439.648 420.088C438.251 400.515 436.598 384 434.74 370.976C434.18 367.059 433.593 363.412 433.006 360.136C432.641 358.125 432.295 356.123 431.973 354.19C430.441 344.937 429.143 335.039 428.12 324.775C427.248 316.026 426.567 307.003 426.098 297.955C425.33 283.048 425.385 273.125 425.392 272.043V271.795H421.569V272.02C421.569 273.098 421.505 283.127 422.28 298.144C422.751 307.253 423.435 316.339 424.314 325.149C425.348 335.497 426.653 345.465 428.199 354.81C428.524 356.767 428.876 358.791 429.242 360.823C429.832 364.044 430.412 367.651 430.962 371.518C432.81 384.454 434.453 400.887 435.842 420.363C436.633 431.537 437.349 443.701 437.961 456.515Z" fill="#10325B" />
        <path d="M404.173 456.456L407.996 456.394C407.802 444.447 407.5 432.258 407.076 420.157C406.541 404.549 405.818 388.821 404.931 373.433C404.668 368.88 404.435 364.224 404.272 359.591C403.95 350.972 403.799 342.296 403.818 333.803C403.818 329.866 403.878 325.917 403.965 322.067C404.165 312.976 404.569 304.119 405.166 295.738C405.25 294.514 405.342 293.29 405.446 291.992C406.665 276.594 408.142 267.96 408.157 267.865L404.388 267.214C404.326 267.568 402.867 276.093 401.633 291.689C401.529 292.998 401.435 294.236 401.351 295.473C400.749 303.896 400.342 312.83 400.142 321.982C400.055 325.857 400.006 329.831 399.996 333.793C399.973 342.338 400.127 351.066 400.451 359.735C400.625 364.393 400.848 369.075 401.113 373.654C401.997 389.015 402.718 404.702 403.256 420.289C403.672 432.364 403.979 444.534 404.173 456.456Z" fill="#10325B" />
        <path d="M384.115 456.585L387.928 456.265C386.937 444.578 386.117 432.416 385.45 420.12C384.747 407.145 384.212 393.836 383.89 380.561C383.681 372.212 383.808 363.806 384.264 355.575C384.375 353.544 384.511 351.44 384.687 349.134C385.452 339.165 386.726 329.242 388.503 319.403C390.382 308.945 392.902 298.613 396.047 288.464C396.399 287.339 396.743 286.261 397.073 285.258C401.168 272.793 404.691 265.883 404.726 265.817L401.324 264.067C401.175 264.355 397.64 271.282 393.44 284.064C393.104 285.084 392.754 286.182 392.395 287.322C389.205 297.622 386.649 308.107 384.739 318.719C382.94 328.686 381.65 338.738 380.874 348.836C380.698 351.165 380.557 353.296 380.446 355.35C379.982 363.679 379.856 372.197 380.067 380.641C380.399 393.955 380.926 407.301 381.63 420.311C382.299 432.661 383.136 444.861 384.115 456.585Z" fill="#10325B" />
        <path d="M412.621 258.087C411.865 269.936 411.865 281.822 412.621 293.672C413.89 312.816 397.803 320.3 397.087 337.041C395.828 366.472 364.901 358.4 361.391 329.227C359.29 311.763 349.422 302.296 355.635 266.61C359.592 243.886 412.621 258.087 412.621 258.087Z" fill="#4F1237" />
        <path d="M516.514 321.264C522.815 321.264 529.442 318.645 536.022 313.497C540.244 310.164 544.011 306.292 547.228 301.981L544.112 299.766C543.948 299.992 527.76 322.372 510.534 316.44C499.489 312.635 488.288 301.637 477.458 291.003C465.071 278.849 452.279 266.28 438.494 262.745L437.545 266.461C450.334 269.741 462.762 281.943 474.778 293.744C485.912 304.677 497.425 315.982 509.287 320.067C511.613 320.866 514.055 321.271 516.514 321.264Z" fill="#10325B" />
        <path d="M509.703 342.445C516.036 342.445 522.361 341.097 528.632 338.401C539.84 333.582 547.709 324.681 552.317 318.063C557.299 310.928 559.636 304.974 559.732 304.724L556.17 303.337C556.08 303.567 547.003 326.338 527.121 334.888C499.803 346.632 478.434 327.55 470.514 318.799L467.677 321.366C473.061 327.312 481.933 335.292 493.634 339.538C498.779 341.44 504.218 342.424 509.703 342.445Z" fill="#10325B" />
        <path d="M176.118 255.376C190.022 270.869 206.958 282.082 217.594 288.261C217.594 288.261 221.142 277.654 224.792 271.817C224.796 271.817 203.207 278.913 176.118 255.376Z" fill="#D1A68F" />
        <path d="M438.045 222.913L437.998 222.891C437.621 222.702 437.222 222.561 436.809 222.472C434.646 222.009 432.597 223.022 432.221 224.732C432.135 225.176 432.156 225.634 432.283 226.069C432.409 226.504 432.636 226.902 432.947 227.231C433.613 227.971 434.5 228.475 435.476 228.671C435.823 228.747 436.177 228.786 436.532 228.785C436.663 228.785 436.794 228.785 436.921 228.768C437.6 228.721 438.258 228.504 438.831 228.136C439.14 227.945 439.409 227.694 439.621 227.399C439.834 227.104 439.986 226.77 440.07 226.416C440.359 225.061 439.51 223.666 438.045 222.913ZM438.955 226.176C438.791 226.939 438.043 227.467 437.079 227.608C436.627 227.674 436.167 227.657 435.721 227.556C434.985 227.416 434.315 227.04 433.811 226.486C433.619 226.288 433.476 226.047 433.394 225.784C433.311 225.521 433.291 225.242 433.336 224.969C433.529 224.075 434.532 223.498 435.739 223.498C436.019 223.499 436.298 223.529 436.571 223.587C437.031 223.681 437.469 223.862 437.862 224.12C437.874 224.123 437.885 224.13 437.894 224.139C438.571 224.59 438.989 225.23 438.989 225.874C438.988 225.975 438.976 226.077 438.955 226.176Z" fill="#7C3021" />
        <path d="M444.1 198.913C444.221 198.913 444.339 198.875 444.436 198.804C444.534 198.733 444.606 198.633 444.643 198.518C444.68 198.403 444.679 198.279 444.642 198.165C444.604 198.05 444.53 197.951 444.432 197.88C444.341 197.813 442.116 196.27 437.914 197.073C437.765 197.101 437.634 197.187 437.549 197.312C437.464 197.437 437.432 197.591 437.461 197.739C437.489 197.888 437.575 198.019 437.7 198.104C437.825 198.189 437.978 198.221 438.127 198.192C441.843 197.479 443.751 198.794 443.771 198.807C443.867 198.876 443.982 198.913 444.1 198.913Z" fill="#7C3021" />
        <path d="M423.473 202.729C423.556 202.729 423.639 202.711 423.715 202.675C423.791 202.639 423.858 202.588 423.911 202.523C427.231 198.539 430.742 198.906 430.779 198.911C430.929 198.929 431.08 198.886 431.199 198.792C431.318 198.699 431.394 198.562 431.412 198.412C431.43 198.261 431.387 198.11 431.293 197.992C431.2 197.873 431.063 197.796 430.913 197.779C430.744 197.759 426.748 197.34 423.034 201.795C422.986 201.852 422.95 201.919 422.928 201.99C422.906 202.062 422.898 202.137 422.905 202.211C422.912 202.286 422.933 202.358 422.968 202.425C423.003 202.491 423.051 202.55 423.108 202.597C423.21 202.683 423.34 202.729 423.473 202.729Z" fill="#7C3021" />
        <path d="M302.222 170.357C302.342 170.357 302.459 170.319 302.556 170.248C302.654 170.177 302.726 170.078 302.763 169.963C302.8 169.849 302.8 169.726 302.763 169.611C302.726 169.497 302.653 169.397 302.556 169.326C302.368 169.19 297.869 166.007 290.971 166.007C290.82 166.007 290.675 166.067 290.568 166.173C290.461 166.28 290.401 166.425 290.401 166.576C290.401 166.728 290.461 166.872 290.568 166.979C290.675 167.086 290.82 167.146 290.971 167.146C297.482 167.146 301.848 170.221 301.892 170.251C301.988 170.32 302.103 170.357 302.222 170.357Z" fill="#7C3021" />
        <path d="M273.705 169.049C273.811 169.049 273.915 169.019 274.005 168.962C277.041 167.098 280.647 166.389 284.163 166.965C284.236 166.982 284.311 166.983 284.385 166.97C284.459 166.958 284.529 166.93 284.592 166.89C284.655 166.85 284.71 166.798 284.753 166.736C284.796 166.675 284.826 166.606 284.843 166.533C284.859 166.46 284.861 166.384 284.848 166.311C284.835 166.237 284.808 166.167 284.767 166.103C284.727 166.04 284.675 165.986 284.614 165.943C284.553 165.9 284.483 165.869 284.41 165.853C284.187 165.803 278.836 164.644 273.413 167.994C273.307 168.059 273.225 168.156 273.18 168.272C273.135 168.388 273.129 168.515 273.163 168.635C273.197 168.754 273.269 168.86 273.368 168.934C273.467 169.009 273.588 169.049 273.712 169.049H273.705Z" fill="#7C3021" />
        <path d="M288.392 199.349C292.108 199.349 294.286 198.755 294.435 198.715C294.534 198.691 294.628 198.647 294.71 198.587C294.792 198.526 294.861 198.449 294.913 198.361C294.964 198.273 294.998 198.175 295.011 198.074C295.024 197.972 295.017 197.869 294.989 197.771C294.962 197.673 294.915 197.581 294.851 197.501C294.787 197.421 294.708 197.355 294.618 197.306C294.528 197.258 294.429 197.228 294.328 197.218C294.226 197.209 294.123 197.22 294.026 197.251C293.947 197.273 288.286 198.779 279.656 196.79C279.559 196.767 279.458 196.764 279.359 196.781C279.26 196.798 279.166 196.834 279.081 196.887C278.909 196.994 278.787 197.165 278.742 197.362C278.697 197.559 278.732 197.766 278.839 197.938C278.946 198.109 279.117 198.231 279.314 198.276C282.29 198.976 285.335 199.336 288.392 199.349Z" fill="#7C3021" />
        <path d="M164.431 121.612C173.001 128.563 186.281 125.043 186.281 125.043C185.954 121.158 185.797 118.76 185.797 118.76C171.559 120.712 166.753 116.158 166.753 116.158C166.753 116.158 165.826 118.098 164.431 121.612Z" fill="#D1A68F" />
        <path d="M201.17 93.1967C200.958 93.024 200.713 92.8965 200.451 92.822C200.188 92.7476 199.912 92.7277 199.641 92.7637C199.371 92.7997 199.11 92.8907 198.876 93.0312C198.641 93.1717 198.438 93.3587 198.279 93.5807C196.233 96.2482 193.884 98.6693 191.28 100.795C190.74 94.7352 191.949 88.472 191.921 88.4398C194.667 81.4234 197.788 74.5656 201.22 67.849C202.372 65.7233 199.121 63.7635 197.791 65.8199C193.658 71.9072 189.781 78.2076 186.238 84.6492L186.131 84.617C187.374 76.8189 189.157 69.1167 191.468 61.5659C188.602 49.426 180.535 81.5993 179.774 84.0719H179.72C179.703 76.5442 180.545 69.0391 182.229 61.7022C178.149 49.867 172.693 82.8282 172.797 85.6575L172.713 85.6848C171.824 79.7758 171.687 73.7554 171.861 67.7747C166.509 57.5127 165.843 86.0341 166.128 88.586C165.617 91.455 164.26 101.313 167.748 115.026C168.831 119.305 182.051 119.367 185.195 116.384C188.143 113.589 191.342 109.06 192.419 107.373C194.728 105.022 203.933 96.2366 201.17 93.1967Z" fill="#AA5635" />
        <path d="M600.706 181.845C598.188 193.49 583.98 190.477 586.385 178.818C588.905 167.181 603.114 170.186 600.706 181.845Z" fill="#AA5635" />
        <path d="M597.371 184.167C597.282 184.166 597.194 184.144 597.114 184.104C597.034 184.063 596.965 184.004 596.912 183.932C596.859 183.86 596.823 183.776 596.808 183.688C596.792 183.6 596.798 183.509 596.824 183.424C598.831 177.708 596.747 174.782 592.233 176.514C591.547 176.796 591.118 175.709 591.814 175.448C596.588 173.496 600.505 176.519 597.919 183.758C597.883 183.876 597.811 183.979 597.712 184.053C597.614 184.126 597.494 184.166 597.371 184.167Z" fill="#7C3021" />
        <path d="M592.024 183.364C590.29 183.116 593.583 177.799 597.97 177.44C598.045 177.435 598.121 177.445 598.192 177.469C598.263 177.493 598.329 177.531 598.385 177.58C598.442 177.63 598.488 177.69 598.522 177.757C598.555 177.825 598.575 177.898 598.58 177.973C598.585 178.048 598.575 178.123 598.551 178.194C598.527 178.266 598.489 178.331 598.44 178.388C598.39 178.445 598.33 178.491 598.263 178.524C598.195 178.558 598.122 178.577 598.047 178.582C593.612 179.043 593.075 183.213 592.024 183.364Z" fill="#7C3021" />
        <path d="M526.719 181.845C529.236 193.49 543.445 190.477 541.039 178.818C538.509 167.181 524.301 170.186 526.719 181.845Z" fill="#AA5635" />
        <path d="M530.044 184.167C529.921 184.166 529.802 184.127 529.703 184.054C529.605 183.98 529.532 183.878 529.496 183.76C526.907 176.519 530.837 173.499 535.601 175.451C536.295 175.713 535.868 176.796 535.182 176.516C531.097 174.841 528.428 177.381 530.591 183.426C530.617 183.512 530.622 183.602 530.606 183.69C530.591 183.778 530.555 183.861 530.502 183.933C530.449 184.004 530.38 184.063 530.3 184.104C530.221 184.144 530.133 184.166 530.044 184.167Z" fill="#7C3021" />
        <path d="M535.391 183.364C534.352 183.228 533.78 179.033 529.358 178.582C529.283 178.577 529.209 178.558 529.142 178.524C529.075 178.491 529.015 178.445 528.965 178.388C528.916 178.331 528.878 178.266 528.854 178.194C528.83 178.123 528.82 178.048 528.825 177.973C528.83 177.898 528.85 177.825 528.883 177.757C528.917 177.69 528.963 177.63 529.019 177.58C529.076 177.531 529.142 177.493 529.213 177.469C529.284 177.445 529.36 177.435 529.435 177.44C533.78 177.735 537.169 183.213 535.391 183.364Z" fill="#7C3021" />
        <path d="M573.844 212.123H552.295V237.573H573.844V212.123Z" fill="#AA5635" />
        <path d="M552.295 212.123V223.552C564.434 227.786 573.849 223.552 573.849 223.552V212.123H552.295Z" fill="#7C3021" />
        <path d="M494.798 374.045C493.676 351.096 508.673 330.936 516.105 309.345C523.679 287.607 523.307 264.34 523.52 240.657C530.884 236.307 552.297 229.905 551.15 230.722C555.446 233.542 569.048 235.454 574.962 230.722C585.174 233.314 593.744 236.398 602.551 240.662C602.234 258.639 605.804 295.626 614.721 315.922C625.273 341.486 627.681 365.59 626.217 393.222C584.495 402.651 537.751 402.507 495.197 393.222C495.006 389.993 494.637 383.46 494.798 374.045Z" fill="#EB5648" />
        <path d="M516.916 327.336C516.948 327.433 516.982 327.53 517.012 327.626L517.473 327.168C517.283 327.209 517.097 327.266 516.916 327.336ZM532.967 268.663L533.057 268.572C533.044 268.534 532.967 268.663 532.967 268.663ZM552.005 302.229C552.02 302.241 552.037 302.252 552.054 302.261L552.005 302.229ZM626.445 376.667L611.723 361.945L624.493 349.176C624.014 346.493 623.467 343.914 622.835 341.305L606.962 357.183C601.992 352.228 595.151 345.368 590.221 340.435L606.962 323.694L622.248 338.983C621.037 334.318 619.609 329.777 618.068 325.278C616.57 323.774 613.25 320.464 611.723 318.935C612.603 318.056 613.849 316.814 614.731 315.925C613.871 313.561 613.014 311.218 612.199 308.933C611.605 309.528 607.65 313.487 606.962 314.173L590.221 297.428C593.64 294.006 602.061 285.587 605.899 281.742C605.156 276.849 604.578 272.367 604.122 268.314C600.837 265.031 593.571 257.767 590.221 254.415L601.974 242.674L602.532 242.116C602.532 241.222 602.557 240.739 602.564 240.672C600.76 239.788 598.887 238.938 597.004 238.123L585.459 249.668C580.395 244.606 574.015 238.224 568.961 233.175C565.639 233.96 562.079 233.884 558.845 233.269L542.449 249.668L530.309 237.528C528.134 238.46 525.941 239.475 523.798 240.538L537.69 254.43L522.889 269.231C522.605 273.373 522.25 277.486 521.824 281.569L537.68 297.442L520.939 314.183L516.11 309.354C515.273 311.671 514.376 313.945 513.452 316.215L516.177 318.94L509.295 325.813C506.267 332.544 503.019 339.236 500.254 346.024C504.798 350.568 511.651 357.436 516.177 361.95L499.429 378.691L494.789 374.05C494.67 380.361 494.823 386.869 495.155 392.488C495.155 392.488 499.427 388.212 499.429 388.212L506.755 395.541C510.568 396.219 514.349 396.811 518.065 397.324C517.743 397.005 505.021 384.278 504.191 383.45C508.789 378.849 516.343 371.31 520.937 366.712L537.677 383.45L523.147 397.983C526.011 398.325 528.922 398.64 531.758 398.893C532.772 397.882 541.208 389.441 542.439 388.212L554.371 400.154C561.006 400.285 567.254 400.221 573.696 399.958L585.439 388.212L595.575 398.348C598.439 398.033 601.243 397.691 604.053 397.305L590.201 383.45L606.942 366.712C610.73 370.493 619.785 379.55 623.685 383.45L610.861 396.281C616 395.449 619.979 394.646 622.6 394.076L626.316 390.36C626.418 386.094 626.462 381.285 626.445 376.667ZM563.952 357.183C560.592 353.821 550.392 343.616 547.208 340.435C552.126 335.517 559.024 328.625 563.952 323.694C568.808 328.545 575.814 335.554 580.7 340.435L563.952 357.183ZM574.053 290.785L580.7 297.428L563.952 314.168L547.208 297.428L563.952 280.679L574.053 290.785ZM528.421 316.225L542.449 302.192L559.19 318.935C556.296 321.826 545.117 333.003 542.449 335.673L525.708 318.935L528.421 316.225ZM602.202 318.935L585.459 335.673C580.611 330.832 573.567 323.796 568.711 318.935L585.459 302.192L602.202 318.935ZM597.051 270.779C599.747 273.475 601.917 275.645 602.202 275.923L585.459 292.671L568.711 275.923L585.459 259.182L597.051 270.779ZM561.623 240.013L563.957 237.679C568.649 242.367 575.975 249.693 580.705 254.42L579.595 255.527L563.952 271.166L547.208 254.422L561.623 240.013ZM530.931 281.138C529.657 279.862 526.967 277.174 525.728 275.935L542.469 259.194L559.21 275.935L542.469 292.683L530.931 281.138ZM520.959 357.183C516.819 353.041 508.418 344.637 504.213 340.435C509.456 335.198 515.726 328.922 520.959 323.694L537.7 340.435C533.007 345.12 525.639 352.486 520.946 357.183H520.959ZM525.721 361.945C530.47 357.198 537.739 349.919 542.461 345.197L559.202 361.945L542.449 378.691L525.721 361.945ZM565.73 398.422L563.964 400.188L547.221 383.445L563.964 366.707L579.545 382.281L580.712 383.445L565.73 398.422ZM593.117 371.033L585.459 378.691C580.653 373.882 573.507 366.747 568.711 361.95C573.733 356.928 580.402 350.261 585.459 345.202C590.199 349.941 597.46 357.211 602.202 361.95L593.117 371.033Z" fill="#CE3932" />
        <path d="M582.201 332.133C582.201 332.133 598.154 324.433 608.324 332.133C608.324 332.133 602.056 345.058 591.018 345.197L582.201 332.133Z" fill="#AA5635" />
        <path d="M502.375 371.593C519.415 373.79 546.646 368.682 558.389 364.72C582.253 356.901 590.989 344.377 590.989 344.377C590.989 344.377 591.997 334.715 582.201 332.133C582.201 332.133 534.778 340.388 521.863 334.712C516.635 332.415 513.271 316.564 516.118 309.345C527.423 280.684 523.644 240.873 523.644 240.873C471.675 258.763 435.984 356.113 502.375 371.593Z" fill="#FCB4B4" />
        <path d="M558.382 364.712C683.785 404.668 691.515 285.862 602.564 240.662C602.564 240.662 602.2 279.027 608.827 298.637C618.918 328.508 604.511 340.804 590.989 344.367C590.989 344.377 558.382 364.712 558.382 364.712Z" fill="#FCB4B4" />
        <path d="M635.587 529.801C635.574 531.079 635.554 532.365 635.532 533.643H566.904C564.84 505.647 563.55 477.564 563.463 449.529C560.52 477.302 557.517 505.561 554.45 533.643H485.406C484.045 486.699 486.563 439.462 495.209 393.231C536.725 398.434 584.301 401.942 626.226 393.231C633.027 438.105 636.139 484.234 635.587 529.801Z" fill="#CE3932" />
        <path d="M534.518 195.006C535.578 229.863 589.804 230.812 592.663 196.322C593.248 183.657 589.195 179.611 587.527 163.839C584.512 135.206 543.824 133.682 540.167 163.626C538.727 175.434 534.414 184.189 534.518 195.006Z" fill="#AA5635" />
        <path d="M570.405 198.343L555.788 194.694C556.425 202.909 565.879 206.063 570.405 198.343Z" fill="#F9F8F3" />
        <path d="M555.889 177.468C556.825 175.689 554.011 174.259 553.126 176.065C552.187 177.844 555.004 179.274 555.889 177.468Z" fill="#7C3021" />
        <path d="M543.544 160.301C543.544 160.301 562.418 154.473 586.113 160.301L584.693 152.709H540.841L543.544 160.301Z" fill="#7C3021" />
        <path d="M574.468 177.515C575.407 175.733 572.59 174.294 571.706 176.11C570.769 177.879 573.584 179.311 574.468 177.515Z" fill="#7C3021" />
        <path d="M570.405 198.931C570.065 198.571 554.365 195.68 555.208 194.553C554.772 193.118 570.301 198.021 570.546 197.774C571.205 197.92 571.066 198.95 570.405 198.931Z" fill="#7C3021" />
        <path d="M565.086 190.948C564.343 190.874 562.819 191.015 562.985 189.957C563.008 189.883 563.046 189.814 563.097 189.755C563.147 189.696 563.208 189.648 563.278 189.612C563.347 189.577 563.422 189.556 563.499 189.55C563.577 189.544 563.654 189.553 563.728 189.578C565.71 190.279 570.489 188.906 568.188 187.504C564.863 185.703 562.631 179.41 562.539 179.142C562.291 178.434 563.401 178.03 563.644 178.756C563.666 178.818 565.819 184.888 568.745 186.473C572.335 189.003 567.923 190.911 565.086 190.948Z" fill="#7C3021" />
        <path d="M584.032 175.493C583.961 175.104 583.858 174.722 583.725 174.351C582.694 171.512 579.79 169.17 575.009 169.148C569.429 169.178 566.404 172.369 565.936 175.808C565.87 176.27 565.853 176.739 565.884 177.205C566.107 180.849 569.147 184.36 575.009 184.39C581.785 184.353 584.795 179.66 584.032 175.493ZM575.009 183.213C564.355 183.156 564.355 170.369 575.009 170.31C585.662 170.372 585.662 183.156 575.009 183.213Z" fill="#7C3021" />
        <path d="M561.754 175.78C561.276 172.342 558.248 169.17 552.684 169.141C547.785 169.168 544.855 171.618 543.898 174.564C543.777 174.925 543.686 175.295 543.628 175.671C542.986 179.794 546.004 184.343 552.684 184.385C558.501 184.353 561.546 180.894 561.803 177.277C561.843 176.778 561.826 176.276 561.754 175.78ZM552.684 183.213C542.03 183.156 542.03 170.369 552.684 170.31C563.337 170.372 563.337 183.156 552.684 183.213Z" fill="#7C3021" />
        <path d="M566.28 177.354C565.678 177.334 564.107 175.414 561.922 177.2C561.807 177.305 561.655 177.36 561.5 177.353C561.344 177.346 561.197 177.278 561.092 177.163C560.987 177.048 560.932 176.896 560.939 176.74C560.946 176.585 561.014 176.438 561.129 176.333C562.772 174.133 568.589 176.075 566.28 177.354Z" fill="#7C3021" />
        <path d="M592.72 140.027C586.729 126.896 545.595 124.751 533.331 140.946C533.331 140.946 533.331 159.731 538.147 173.04C538.147 173.04 544.304 166.41 545.885 156.877C567.987 151.263 583.236 157.04 583.236 157.04C583.957 163.234 588.954 173.04 588.954 173.04C592.869 159.223 592.72 140.027 592.72 140.027Z" fill="#3D0B0B" />
        <path d="M559.762 365.134C558.362 365.176 557.988 363.03 559.371 362.629C577.442 356.824 589.101 344.164 589.205 344.048C597.77 342.311 577.618 359.993 559.762 365.134Z" fill="#F49F9F" />
        <path d="M573.448 230.286C573.448 230.286 582.396 229.164 586.229 234.003C580.903 239.902 567.895 256.031 563.067 233.723C561.417 251.254 547.374 246.537 539.914 233.849C553.578 223.027 554.286 239.634 573.448 230.286Z" fill="#FCB4B4" />
        <path d="M583.479 175.652C582.85 175.674 582.667 174.72 583.276 174.517L588.751 172.49C589.46 172.218 589.876 173.337 589.158 173.59C588.843 173.662 583.838 175.639 583.479 175.652Z" fill="#7C3021" />
        <path d="M544.161 175.835C543.876 175.852 538.462 173.642 538.215 173.588C538.07 173.532 537.953 173.421 537.889 173.279C537.826 173.136 537.822 172.975 537.878 172.83C538.039 171.628 543.876 174.755 544.379 174.7C544.504 174.752 544.608 174.846 544.673 174.965C544.737 175.085 544.759 175.223 544.733 175.357C544.707 175.49 544.636 175.611 544.532 175.698C544.428 175.785 544.297 175.834 544.161 175.835Z" fill="#7C3021" />
        <path d="M501.24 328.397C504.017 323.387 511.542 317.27 522.101 321.006C537.687 327.292 541.178 336.652 541.178 336.652C535.713 336.731 528.899 338.191 524.306 337.024C521.96 337.831 520.094 339.903 518.855 344.798C517.691 349.956 513.048 347.33 513.823 342.737C511.995 347.583 507.362 344.885 509.086 339.776C502.481 343.465 505.997 331.462 508.249 328.543C507.257 329.336 506.393 330.278 505.69 331.335C502.251 336.466 498.567 333.213 501.24 328.397Z" fill="#AA5635" />
        <path d="M513.835 343.314C512.25 343.277 514.866 334.848 519.105 331.756C520.369 330.882 524.087 329.581 524.786 331.409C524.308 332.4 521.318 331.147 519.767 332.725C515.074 335.923 515.074 343.126 513.835 343.314Z" fill="#7C3021" />
        <path d="M509.099 340.353C506.735 341.126 513.675 322.129 519.608 326.549C519.6 326.625 519.576 326.7 519.539 326.767C519.502 326.835 519.451 326.894 519.39 326.942C519.33 326.99 519.26 327.025 519.186 327.046C519.111 327.066 519.033 327.071 518.957 327.061C512.027 326.454 510.243 340.549 509.099 340.353Z" fill="#7C3021" />
        <path d="M508.261 329.12C506.348 329.009 510.649 321.363 517.081 322.347C517.824 322.451 517.658 323.63 516.905 323.506C510.535 322.746 509.339 329.048 508.261 329.12Z" fill="#7C3021" />
        <path d="M640.685 215.783C640.685 215.783 628.815 205.657 615.836 220.986C602.856 236.314 609.523 239.376 591.747 255.622C573.97 271.867 593.411 299.652 608.413 304.092C623.414 308.532 606.359 326.358 636.275 330.778C666.192 335.198 740.181 256.925 640.685 215.783Z" fill="#5E1226" />
        <path d="M625.5 319.443L620.404 328.127L597.17 367.723L592.041 376.464C588.288 377.702 584.5 378.758 580.701 379.665C579.319 379.995 577.937 380.305 576.557 380.594C533.963 389.53 491.765 380.004 491.765 380.004L497.414 336.954C497.414 336.954 526.317 336.06 567.704 323.781C590.513 317.018 607.437 317.027 616.891 317.976C622.52 318.544 625.5 319.443 625.5 319.443Z" fill="#1D3F70" />
        <path d="M652.062 316.46C687.149 318.69 731.623 340.859 753.111 368.654C786.365 411.642 755.148 466.311 724.555 477.091C709.69 482.329 705.597 475.357 716.528 464.359C750.884 429.765 719.038 395.444 688.864 385.212C678.344 381.644 655.36 316.685 652.062 316.46Z" fill="#AA5635" />
        <path d="M597.17 367.723L592.041 376.464C586.96 378.125 581.79 379.503 576.557 380.594C574.111 356.465 595.314 340.438 595.314 340.438L597.17 367.723Z" fill="#103663" />
        <path d="M586.477 487.821C718.777 480.907 678.183 517.408 676.624 413.991C673.832 380.807 695.659 329.975 652.062 316.465C650.722 306.748 651.742 289.18 653.665 280.526C657.81 265.059 632.854 258.949 629.467 274.696C628.634 277.639 627.061 293.905 626.588 308.022C626.452 313.534 627.463 319.123 622.854 322.887C580.196 367.572 587.787 429.907 586.477 487.821Z" fill="#AA5635" />
        <path d="M709.769 492.105C706.826 480.884 703.994 471.985 699.7 462.545C692.181 449.147 682.172 440.513 685.33 421.73C685.858 410.391 688.435 400.956 688.967 390.167C689.092 387.639 689.058 385.106 688.866 382.583L687.781 380.633C685.593 376.736 653.365 318.774 652.065 316.465C627.304 341.664 625.503 319.438 625.503 319.438C553.228 355.005 593.612 389.327 584.197 448.238C572.657 468.529 564.652 506.145 563.973 533.641H717.984C715.693 518.587 712.98 504.55 709.769 492.105Z" fill="#1D3F70" />
        <path d="M626.62 308.017C631.742 309.077 642.402 310.477 651.483 306.458C651.483 305.715 651.497 304.942 651.52 304.166C651.354 296.709 652.161 290.213 652.716 286.041C653.992 278.219 655.427 275.293 651.099 269.585C647.974 265.685 641.835 264.075 637.202 265.98C625.136 271.131 628.707 288.055 626.62 308.017Z" fill="#7C3021" />
        <path d="M688.965 390.167C688.812 393.548 688.423 396.883 687.952 400.248C677.534 393.878 669.698 372.797 669.698 372.797L687.784 380.633L688.869 382.583C689.059 385.106 689.091 387.639 688.965 390.167Z" fill="#103663" />
        <path d="M611.517 295.26C619.998 303.931 633.096 306.357 643.581 304.114C644.176 303.988 644.78 303.867 645.353 303.703C667.993 297.831 674.541 262.608 665.225 244.279C659.601 231.783 643.775 224.184 631.092 230.447C622.262 235.135 618.915 244.136 614.968 253.605C613.786 256.082 611.5 259.286 609.27 261.476C600.71 270.105 600.695 283.648 611.517 295.26Z" fill="#AA5635" />
        <path d="M644.801 250.748C663.043 256.674 660.977 271.426 660.977 271.426L668.214 263.733L652.853 235.94L637.576 228.44C633.786 228.926 630.218 230.502 627.307 232.977C627.307 232.977 626.564 244.822 644.801 250.748Z" fill="#7C3021" />
        <path d="M748.746 467.778C744.581 470.313 740.706 470.959 737.959 469.599C737.959 469.599 733.517 459.256 721.969 458.185C721.969 458.185 720.792 455.46 720.666 449.992C720.589 446.811 720.859 442.725 721.919 437.721C726.627 415.552 702.902 395.992 688.968 390.169C675.867 384.687 663.583 363.826 663.583 363.826C656.416 350.868 653.708 335.703 652.682 326.09C652.06 320.248 652.06 316.458 652.06 316.458C655.403 316.134 658.767 316.078 662.119 316.292C698.123 318.239 769.701 344.328 771.938 409.735C773.004 440.877 759.833 461.029 748.746 467.778Z" fill="#1D3F70" />
        <path d="M662.121 316.294C659.212 319.996 653.177 325.833 649.652 328.712C636.652 339.861 618.415 338.017 616.889 317.979C622.518 318.546 625.498 319.446 625.498 319.446C625.498 319.446 627.299 341.662 652.06 316.473C655.403 316.144 658.768 316.085 662.121 316.294Z" fill="#103663" />
        <path d="M618.217 281.447L632.069 274.369C633.332 282.778 624.567 288.152 618.217 281.447Z" fill="#F9F8F3" />
        <path d="M628.721 262.697C627.755 260.862 630.661 259.385 631.573 261.248C632.541 263.084 629.635 264.561 628.721 262.697Z" fill="#7C3021" />
        <path d="M615.278 260.435C614.309 258.6 617.215 257.123 618.129 258.989C619.096 260.824 616.19 262.301 615.278 260.435Z" fill="#7C3021" />
        <path d="M618.217 282.052C618.562 282.092 632.037 274.993 632.339 274.909C632.481 274.835 632.589 274.708 632.638 274.556C632.687 274.403 632.674 274.237 632.602 274.094C632.706 272.551 618.232 281.096 617.932 280.907C617.814 280.972 617.72 281.074 617.666 281.197C617.612 281.321 617.6 281.459 617.632 281.59C617.665 281.721 617.74 281.837 617.846 281.921C617.952 282.004 618.082 282.05 618.217 282.052Z" fill="#7C3021" />
        <path d="M620.37 274.344C621.128 274.27 622.709 274.414 622.535 273.331C622.511 273.255 622.472 273.185 622.421 273.124C622.37 273.063 622.307 273.013 622.236 272.977C622.166 272.94 622.088 272.918 622.009 272.912C621.93 272.906 621.85 272.915 621.774 272.94C619.738 273.661 614.798 272.248 617.169 270.799C620.598 268.941 622.902 262.447 622.998 262.172C623.266 261.429 622.104 261.025 621.854 261.773C621.834 261.835 619.612 268.098 616.592 269.734C612.88 272.338 617.436 274.307 620.37 274.344Z" fill="#7C3021" />
        <path d="M576.557 465.856C577.241 466.123 613.876 480.225 699.69 462.546C694.388 450.928 688.643 444.933 688.643 444.933C638.401 457.972 584.197 448.238 584.197 448.238C584.197 448.238 577.672 458.468 576.557 465.856Z" fill="#103663" />
        <path d="M702.3 468.625C698.132 472.342 693.202 474.572 693.195 474.604C686.525 476.422 679.769 477.877 672.946 479.026C670.751 479.341 671.088 482.799 673.33 482.656C680.071 482.363 686.825 481.776 693.517 480.85L693.554 480.946C687.131 484.294 680.484 487.192 673.659 489.618C666.303 498.353 694.396 486.702 696.631 485.901L696.666 485.939C691.121 490.076 685.122 493.567 678.785 496.344C672.48 505.784 699.574 491.771 701.621 490.168L701.69 490.212C697.825 494.097 693.467 497.486 688.973 500.618C684.315 510.241 706.127 494.801 707.822 493.128C709.72 492.588 719.34 485.621 727.147 476.061C729.704 472.929 721.384 464.926 717.467 464.248C710.619 463.274 705.956 463.643 700.256 463.735L702.3 468.625Z" fill="#AA5635" />
        <path d="M631.095 230.447C633.884 213.848 672.623 185.943 698.484 229.734C716.818 264.288 767.359 302.521 722.31 321.492C705.272 324.465 718.594 340.675 707.494 348.861C696.395 357.047 681.565 349.268 680.821 368.897C680.078 388.527 667.638 393.011 654.044 391.879C640.45 390.746 624.668 354.005 640.333 341.411C655.999 328.818 642.836 318.618 650.348 301.904C657.86 285.191 666.328 281.69 666.328 281.69L663.327 266.555C662.983 246.911 629.95 248.588 631.095 230.447Z" fill="#5E1226" />
        <path d="M675.75 274.55C673.151 286.556 658.491 283.469 660.974 271.426C663.573 259.42 678.235 262.519 675.75 274.55Z" fill="#AA5635" />
        <path d="M671.94 277.033C672.07 277.033 672.197 276.991 672.301 276.913C672.406 276.835 672.482 276.726 672.52 276.601C675.245 268.953 671.103 265.762 666.078 267.824C665.335 268.101 665.791 269.246 666.519 268.951C670.835 267.177 673.654 269.865 671.368 276.25C671.341 276.34 671.336 276.434 671.352 276.527C671.369 276.619 671.406 276.706 671.461 276.782C671.516 276.858 671.588 276.92 671.671 276.963C671.754 277.006 671.846 277.03 671.94 277.033Z" fill="#7C3021" />
        <path d="M666.291 276.185C667.389 276.039 667.993 271.609 672.663 271.133C672.743 271.128 672.82 271.108 672.892 271.073C672.963 271.038 673.027 270.989 673.08 270.929C673.132 270.869 673.172 270.799 673.198 270.724C673.223 270.648 673.234 270.569 673.228 270.489C673.224 270.41 673.204 270.332 673.169 270.26C673.134 270.188 673.086 270.124 673.025 270.072C672.965 270.019 672.895 269.979 672.819 269.954C672.744 269.93 672.664 269.92 672.584 269.927C667.939 270.308 664.47 275.92 666.291 276.185Z" fill="#7C3021" />
        <path d="M637.083 259.705C636.974 259.705 636.866 259.68 636.768 259.632C636.67 259.585 636.584 259.515 636.516 259.43C633.662 255.835 628.902 255.087 628.855 255.082C628.665 255.054 628.494 254.951 628.38 254.797C628.265 254.643 628.217 254.45 628.245 254.26C628.273 254.07 628.375 253.899 628.529 253.785C628.683 253.67 628.876 253.622 629.066 253.65C629.284 253.682 634.432 254.477 637.651 258.533C637.735 258.639 637.787 258.768 637.802 258.903C637.817 259.038 637.793 259.174 637.734 259.296C637.675 259.419 637.582 259.522 637.467 259.594C637.352 259.666 637.219 259.705 637.083 259.705Z" fill="#7C3021" />
        <path d="M615.196 255.827C615.043 255.828 614.894 255.779 614.77 255.689C614.646 255.599 614.554 255.472 614.507 255.326C614.46 255.181 614.46 255.024 614.508 254.878C614.556 254.733 614.648 254.606 614.773 254.517C616.012 253.732 617.398 253.208 618.846 252.977C620.294 252.745 621.775 252.812 623.196 253.171C623.375 253.224 623.526 253.343 623.619 253.503C623.712 253.664 623.739 253.855 623.696 254.035C623.652 254.216 623.541 254.373 623.385 254.474C623.228 254.574 623.039 254.611 622.857 254.576C621.636 254.274 620.366 254.217 619.123 254.409C617.879 254.6 616.686 255.037 615.613 255.693C615.491 255.78 615.346 255.827 615.196 255.827Z" fill="#7C3021" />
        <path d="M748.745 467.778C744.581 470.313 740.706 470.959 737.958 469.599C737.958 469.599 733.516 459.258 721.968 458.188C721.968 458.188 720.791 455.462 720.665 449.994C722.979 448.741 726.017 448.134 729.188 450.802C735.424 456.057 731.953 458.311 740.495 461.208C745.141 462.776 747.802 465.09 748.745 467.778Z" fill="#103663" />
        <path d="M630.012 341.496C630.013 342.063 629.845 342.618 629.53 343.091C629.215 343.563 628.767 343.931 628.242 344.148C627.718 344.366 627.141 344.423 626.584 344.312C626.027 344.202 625.516 343.928 625.114 343.527C624.713 343.125 624.44 342.614 624.329 342.057C624.219 341.5 624.276 340.923 624.493 340.399C624.71 339.875 625.079 339.427 625.551 339.112C626.023 338.797 626.578 338.629 627.146 338.629C627.906 338.63 628.634 338.932 629.172 339.469C629.709 340.007 630.011 340.736 630.012 341.496Z" fill="#103663" />
        <path d="M626.095 353.737C626.096 354.305 625.928 354.86 625.613 355.332C625.298 355.804 624.85 356.172 624.325 356.39C623.801 356.607 623.224 356.664 622.667 356.554C622.11 356.443 621.599 356.17 621.198 355.768C620.796 355.367 620.523 354.855 620.412 354.299C620.302 353.742 620.359 353.165 620.576 352.641C620.794 352.116 621.162 351.668 621.634 351.353C622.106 351.038 622.661 350.87 623.229 350.871C623.989 350.871 624.718 351.173 625.255 351.711C625.792 352.248 626.095 352.977 626.095 353.737Z" fill="#103663" />
        <path d="M728.695 475.944C728.573 475.944 728.454 475.906 728.355 475.834C728.256 475.762 728.183 475.661 728.145 475.545C724.892 465.506 717.898 463.425 717.826 463.405C717.751 463.387 717.68 463.354 717.617 463.307C717.555 463.261 717.503 463.202 717.464 463.135C717.424 463.068 717.399 462.994 717.389 462.917C717.38 462.84 717.385 462.761 717.407 462.687C717.428 462.612 717.464 462.542 717.513 462.482C717.561 462.421 717.622 462.371 717.69 462.335C717.759 462.298 717.834 462.276 717.912 462.269C717.989 462.262 718.067 462.271 718.141 462.295C718.453 462.382 725.804 464.567 729.245 475.178C729.292 475.324 729.279 475.483 729.21 475.619C729.14 475.756 729.019 475.859 728.873 475.907C728.816 475.929 728.756 475.941 728.695 475.944Z" fill="#F39200" />
        <path d="M731.959 474.22C731.838 474.22 731.721 474.182 731.623 474.112C731.525 474.043 731.451 473.944 731.411 473.831C727.779 463.381 719.729 461.443 719.648 461.428C719.501 461.392 719.375 461.301 719.295 461.173C719.216 461.045 719.189 460.891 719.222 460.744C719.254 460.597 719.342 460.468 719.468 460.385C719.594 460.303 719.748 460.272 719.895 460.301C720.252 460.38 728.644 462.365 732.499 473.452C732.525 473.524 732.536 473.601 732.532 473.677C732.529 473.754 732.51 473.829 732.476 473.898C732.443 473.968 732.396 474.03 732.339 474.08C732.282 474.131 732.215 474.17 732.142 474.195C732.083 474.214 732.021 474.222 731.959 474.22Z" fill="#F39200" />
        <path d="M692.9 487.935C692.761 487.935 692.626 487.885 692.521 487.794C692.416 487.703 692.348 487.577 692.327 487.44C691.899 484.343 690.204 482.923 690.187 482.911C690.077 482.812 690.009 482.674 689.997 482.526C689.985 482.379 690.03 482.232 690.123 482.117C690.216 482.001 690.35 481.926 690.497 481.906C690.643 481.886 690.792 481.923 690.913 482.009C690.997 482.078 692.976 483.701 693.472 487.284C693.482 487.359 693.478 487.435 693.459 487.509C693.439 487.582 693.406 487.651 693.36 487.711C693.313 487.772 693.256 487.823 693.19 487.86C693.124 487.898 693.052 487.923 692.976 487.933L692.9 487.935Z" fill="#F39200" />
        <path d="M667.797 289.765C666.327 289.765 664.918 289.181 663.878 288.141C662.839 287.102 662.255 285.692 662.255 284.222C662.255 282.753 662.839 281.343 663.878 280.303C664.918 279.264 666.327 278.68 667.797 278.68C667.95 278.68 668.097 278.741 668.206 278.849C668.314 278.958 668.375 279.104 668.375 279.257C668.375 279.411 668.314 279.557 668.206 279.666C668.097 279.774 667.95 279.835 667.797 279.835C666.929 279.834 666.081 280.091 665.359 280.573C664.637 281.055 664.074 281.74 663.742 282.542C663.409 283.343 663.322 284.226 663.491 285.077C663.66 285.928 664.078 286.71 664.691 287.324C665.305 287.938 666.087 288.356 666.938 288.526C667.789 288.695 668.672 288.608 669.473 288.276C670.275 287.944 670.961 287.382 671.443 286.66C671.925 285.939 672.183 285.09 672.183 284.222C672.215 283.405 671.986 282.598 671.531 281.918C671.453 281.791 671.427 281.639 671.458 281.493C671.49 281.347 671.577 281.219 671.701 281.136C671.826 281.053 671.977 281.021 672.124 281.047C672.271 281.073 672.402 281.156 672.49 281.277C673.076 282.145 673.373 283.176 673.34 284.222C673.338 285.692 672.753 287.1 671.714 288.139C670.675 289.178 669.267 289.763 667.797 289.765Z" fill="#F39200" />
        <path d="M412.125 382.159C390.93 403.996 344.937 420.331 311.48 411.813C305.795 410.505 300.29 408.508 295.089 405.867C286.143 401.327 278.267 394.934 271.986 387.112L271.911 387.02C259.142 372.009 232.023 297.829 222.975 281.356C301.265 301.481 315.345 384.813 407.943 361.846L412.125 382.159Z" fill="#EB5648" />
        <path d="M359.849 410.316L359.703 410.356L359.849 410.316Z" fill="#D1E0F2" />
        <path d="M223.54 181.446C223.54 181.446 230.692 177.482 234.983 183.842C239.274 190.202 234.443 194.525 239.785 200.12C245.126 205.714 248.431 206.732 246.905 212.074C245.379 217.415 241.284 218.002 243.078 224.709C241.955 224.511 207.451 188.723 223.54 181.446Z" fill="#5E1226" />
        <path d="M295.091 405.872C286.146 401.332 278.27 394.938 271.988 387.117L264.244 327.626C264.244 327.626 283.445 356.925 295.091 405.872Z" fill="#CE3932" />
        <path d="M290.872 533.636H133.35C133.35 533.636 123.534 465.813 149.095 408.258C149.095 408.258 275.048 419.06 278.715 417.335C285.037 455.195 288.816 494.942 290.872 533.636Z" fill="#1D3F70" />
        <path d="M222.973 281.363C224.561 267.511 222.395 247.537 220.463 239.309C216.975 223.101 191.26 229.369 195.536 245.31C196.364 244.787 199.017 274.168 197.187 282.327C173.055 289.566 245.63 313.37 222.973 281.363Z" fill="#AA5635" />
        <path d="M178.077 463.175C178.077 463.175 198.502 479.326 211.251 488.518C224.001 497.709 239.52 499.609 239.52 499.609C239.52 499.609 245.662 496.389 246.772 492.397C246.772 492.397 250.946 496.572 252.844 499.609C254.742 502.647 278.933 495.559 283.335 492.397C287.738 489.236 289.564 487.261 286.829 479.514L178.077 463.175Z" fill="#E8C0A6" />
        <path d="M287.676 477.168C280.149 505.045 205.702 480.228 178.077 463.175C175.825 461.785 173.144 460.923 170.29 460.427C158.71 458.415 144.259 462.439 143.815 461.654C133.524 443.466 157.194 383.021 173.256 339.793C180.391 320.585 186.023 304.776 186.503 297.584C186.033 293.124 193.193 285.094 197.184 282.329C209.262 290.763 226.357 296.503 222.973 281.373C231.627 288.585 241.319 296.409 249.564 305.576C278.68 335.121 300.331 439.276 287.676 477.168Z" fill="#EB5648" />
        <path d="M173.174 385.551C159.441 414.538 162.503 434.901 170.288 460.422C158.708 458.41 144.256 462.434 143.813 461.649C133.521 443.461 157.191 383.016 173.253 339.788L195.551 331.563C195.551 331.563 186.907 356.556 173.174 385.551Z" fill="#CE3932" />
        <path d="M195.288 243.972C195.353 244.418 195.432 244.871 195.536 245.31C196.133 244.914 197.806 261.124 197.821 272.89C208.878 277.919 221.204 275.707 223.461 275.244C223.708 260.339 222.333 246.752 220.143 238.234C215.379 223.768 193.242 228.906 195.288 243.972Z" fill="#7C3021" />
        <path d="M240.64 261.545C227.695 274.124 206.45 275.729 192.776 265.262H192.761C177.74 251.459 173.189 223.639 182.068 205.952C188.718 190.727 210.119 182.311 223.54 193.73C230.44 199.51 233.267 207.659 236.874 216.12C238.155 218.805 240.655 222.314 243.068 224.704C252.421 234.112 252.435 248.868 240.64 261.545Z" fill="#AA5635" />
        <path d="M195.544 331.563C181.528 377.452 137.059 397.996 172.307 474.24C161.109 489.137 146.811 486.449 146.811 486.449C137.257 476.108 129.51 465.868 123.361 455.812C70.2126 368.865 136.474 295.175 190.237 283.494C192.581 282.987 194.893 282.597 197.174 282.324C201.17 302.321 199.684 318.041 195.544 331.563Z" fill="#EB5648" />
        <path d="M231.312 283.813C231.312 283.813 232.798 295.777 222.975 297.646C204.106 301.235 188.302 283.94 188.302 283.94C192.561 281.688 197.184 282.324 197.184 282.324C205.451 287.612 210.852 289.703 214.774 290.416C225.428 292.358 223.123 281.931 222.99 281.376C227.412 281.361 231.312 283.813 231.312 283.813Z" fill="#CE3932" />
        <path d="M221.878 226.032C222.933 224.03 219.764 222.42 218.768 224.452C217.715 226.453 220.884 228.056 221.878 226.032Z" fill="#7C3021" />
        <path d="M236.54 223.567C237.593 221.565 234.424 219.955 233.43 221.989C232.387 223.991 235.544 225.599 236.54 223.567Z" fill="#7C3021" />
        <path d="M230.158 201.614C219.831 210.51 208.078 196.839 207.86 209.913C208.053 215.248 198.326 213.679 197.177 216.182C196.027 218.684 197.363 223.451 195.175 226.694C192.987 229.937 182.017 233.926 182.017 233.926C184.603 244.874 182.995 254.242 195.135 266.998C194.312 266.469 193.522 265.89 192.769 265.264H192.754C175.3 248.746 171.348 214.328 188.555 196.849C200.249 184.546 222.188 185.881 230.158 201.614Z" fill="#7C3021" />
        <path d="M230.995 238.732C230.17 238.65 228.443 238.806 228.631 237.627C228.658 237.544 228.7 237.468 228.756 237.401C228.812 237.335 228.88 237.28 228.957 237.24C229.035 237.201 229.119 237.176 229.205 237.169C229.292 237.162 229.379 237.172 229.461 237.198C231.691 237.986 237.07 236.455 234.486 234.867C230.817 233.083 225.971 222.46 229.375 225.024C229.4 225.093 231.823 231.924 235.115 233.695C239.154 236.544 234.186 238.69 230.995 238.732Z" fill="#7C3021" />
        <path d="M227.739 198.138C227.739 198.138 233.353 191.218 227.412 186.132C221.471 181.045 221.843 173.417 213.647 174.688C205.451 175.959 202.409 176.95 193.49 174.542C184.571 172.133 177.041 180.696 177.386 186.337C177.73 191.978 165.774 191.976 164.007 199.607C162.241 207.238 164.007 209.517 164.007 212.832C164.007 216.147 153.579 220.46 155.613 228.344C157.647 236.227 164.26 235.033 165.523 240.075C166.787 245.117 162.902 253.8 168.744 256.647C177.396 260.859 184.848 255.304 184.848 255.304C168.928 221.471 194.444 236.881 192.209 217.918C190.457 210.543 201.359 212.832 203.92 209.017C206.482 205.201 204.634 200.623 209.371 199.602C214.108 198.581 217.222 204.292 227.739 198.138Z" fill="#5E1226" />
        <path d="M170.6 238.958C173.432 252.049 189.429 248.67 186.704 235.551C183.877 222.46 167.892 225.839 170.6 238.958Z" fill="#AA5635" />
        <path d="M174.755 241.663C174.613 241.663 174.476 241.617 174.362 241.533C174.248 241.449 174.164 241.33 174.123 241.195C171.15 232.855 175.669 229.372 181.154 231.621C181.955 231.924 181.466 233.17 180.674 232.86C175.966 230.928 172.894 233.851 175.387 240.818C175.414 240.916 175.418 241.019 175.4 241.119C175.381 241.22 175.339 241.314 175.278 241.396C175.217 241.477 175.138 241.544 175.048 241.59C174.957 241.636 174.857 241.661 174.755 241.663Z" fill="#7C3021" />
        <path d="M180.914 240.739C179.718 240.58 179.056 235.749 173.965 235.231C173.797 235.211 173.644 235.127 173.536 234.997C173.428 234.866 173.374 234.7 173.385 234.531C173.396 234.363 173.472 234.205 173.595 234.09C173.719 233.975 173.883 233.912 174.052 233.913C179.059 234.25 182.961 240.568 180.914 240.739Z" fill="#7C3021" />
        <path d="M147.425 488.515C146.154 488.458 138.486 488.537 138.506 486.637C138.541 485.852 144.794 485.017 145.572 485.049C163.811 485.639 167.686 476.288 171.053 471.452C172.5 469.376 174.39 465.945 175.689 465.821C178.092 467.112 174.22 475.448 169.056 480.567C164.869 484.234 159.213 488.515 147.425 488.515Z" fill="#103663" />
        <path d="M230.549 246.962C226.662 246.935 222.897 245.599 219.863 243.169C219.724 243.047 219.639 242.875 219.627 242.69C219.615 242.505 219.677 242.323 219.799 242.183C219.921 242.044 220.094 241.959 220.279 241.947C220.463 241.935 220.646 241.997 220.785 242.119C220.844 242.168 226.795 247.255 234.793 244.968C234.969 244.924 235.155 244.949 235.313 245.04C235.47 245.13 235.586 245.279 235.636 245.453C235.686 245.628 235.666 245.815 235.58 245.975C235.494 246.135 235.35 246.255 235.177 246.311C233.672 246.743 232.114 246.963 230.549 246.962Z" fill="#7C3021" />
        <path d="M210.857 222.643C210.765 222.643 210.674 222.624 210.59 222.589C210.419 222.517 210.283 222.381 210.212 222.211C210.141 222.04 210.141 221.848 210.211 221.677C210.32 221.429 212.948 215.235 221.36 213.553C221.541 213.517 221.73 213.554 221.884 213.656C222.038 213.759 222.146 213.919 222.182 214.101C222.219 214.282 222.181 214.471 222.079 214.625C221.976 214.779 221.816 214.887 221.635 214.923C213.991 216.464 211.608 221.977 211.511 222.212C211.457 222.34 211.366 222.45 211.25 222.527C211.133 222.603 210.997 222.644 210.857 222.643Z" fill="#7C3021" />
        <path d="M235.474 215.864C235.323 215.865 235.176 215.815 235.056 215.723C231.684 213.196 227.65 214.326 227.623 214.338C227.535 214.364 227.443 214.373 227.351 214.363C227.26 214.353 227.172 214.326 227.091 214.282C227.01 214.238 226.939 214.179 226.881 214.108C226.824 214.036 226.781 213.954 226.755 213.866C226.729 213.778 226.72 213.686 226.73 213.595C226.739 213.503 226.767 213.415 226.811 213.334C226.855 213.254 226.914 213.182 226.985 213.125C227.056 213.067 227.139 213.024 227.227 212.998C227.42 212.941 231.961 211.648 235.898 214.606C236.016 214.694 236.103 214.816 236.147 214.956C236.191 215.097 236.189 215.247 236.143 215.386C236.097 215.526 236.008 215.647 235.888 215.733C235.769 215.818 235.626 215.865 235.479 215.864H235.474Z" fill="#7C3021" />
        <path d="M476.389 317.337C476.389 317.337 447.23 324.371 430.933 347.618C400.737 390.685 405.37 444.385 412.077 497.105H480.09L476.389 317.337Z" fill="#AAB082" />
        <path d="M519.983 318.648C519.983 318.648 558.482 326.001 580.601 376.602C606.888 436.745 566.422 516.335 566.422 516.335L531.823 502.622L519.983 318.648Z" fill="#AAB082" />
        <path d="M471.99 246.142C471.99 246.142 468.294 225.306 486.583 218.56L498.133 227.231L471.99 246.142Z" fill="#3D0B0B" />
        <path d="M569.412 533.643H412.125C408.161 478.875 426.205 453.426 426.205 453.426C469.961 457.12 516.388 456.381 558.895 444.259C565.864 471.395 567.043 503.239 569.412 533.643Z" fill="#EB5648" />
        <path d="M484.379 315.972C483.883 300.116 481.901 268.663 494.769 264.439C504.011 261.218 514.951 269.102 512.112 279.518C511.275 278.992 508.592 308.693 510.445 316.928C534.829 324.262 461.474 348.324 484.379 315.972Z" fill="#AA5635" />
        <path d="M512.35 278.177C512.285 278.628 512.206 279.086 512.102 279.527C511.497 279.128 509.808 295.515 509.793 307.407C498.617 312.491 486.45 310.499 484.168 310.031C483.546 293.615 482.542 269.032 494.764 264.444C503.493 260.718 513.893 268.668 512.35 278.177Z" fill="#7C3021" />
        <path d="M529.918 267.224C528.043 278.868 524.111 291.999 514.914 299.695H514.899C501.493 309.852 481.854 308.765 468.218 297.571C457.695 287.74 454.366 274.5 459.905 264.3C463.528 258.287 470.202 252.998 472.001 246.148C487.607 200.556 536.548 226.057 529.918 267.224Z" fill="#AA5635" />
        <path d="M485.481 260.044C484.413 258.02 487.616 256.392 488.622 258.446C489.688 260.47 486.487 262.098 485.481 260.044Z" fill="#7C3021" />
        <path d="M470.66 257.552C469.594 255.528 472.798 253.902 473.804 255.956C474.869 257.978 471.666 259.606 470.66 257.552Z" fill="#7C3021" />
        <path d="M529.915 267.224C528.037 278.868 524.108 291.999 514.909 299.694H514.894C514.224 300.239 513.517 300.735 512.778 301.181C519.78 294.244 523.555 279.626 523.555 279.626L521.91 267.008C510.613 255.56 515.469 242.684 515.469 242.684C496.575 247.986 490.21 236.326 490.21 236.326C484.237 237.097 477.674 234.424 477.674 234.424C499.603 199.545 536.568 235.985 529.915 267.224Z" fill="#7C3021" />
        <path d="M524.123 236.879C516.091 240.053 513.271 258.708 532.249 271.46C532.249 271.46 541.443 240.729 524.123 236.879Z" fill="#3D0B0B" />
        <path d="M476.265 272.88C473.044 272.843 468.022 270.668 472.102 267.799C475.43 265.997 477.877 259.093 477.902 259.023C478.175 258.208 479.461 258.649 479.163 259.464C479.057 259.769 476.517 266.924 472.737 268.973C470.125 270.573 475.568 272.124 477.815 271.332C477.899 271.305 477.987 271.294 478.074 271.301C478.162 271.309 478.247 271.333 478.325 271.373C478.403 271.413 478.472 271.468 478.529 271.535C478.586 271.602 478.629 271.679 478.655 271.763C478.844 272.959 477.102 272.791 476.265 272.88Z" fill="#7C3021" />
        <path d="M567.153 502.615C522.941 524.64 423.76 516.737 413.409 505.677C395.489 486.548 420.908 476.246 423.554 423.19C425.938 375.413 450.847 331.469 476.388 317.34C476.732 317.149 481.633 315.992 484.366 315.987C484.177 316.75 479.351 336.828 510.439 316.946C510.618 317.156 518.023 317.288 519.998 318.648C519.998 318.648 549.339 340.376 558.694 424.347C562.611 459.503 582.159 495.135 567.153 502.615Z" fill="#B2BB77" />
        <path d="M468.269 217.294C468.868 213.199 473.14 208.87 481.754 211.4C480.364 208.566 480.106 204.309 483.402 202.285C487.727 199.632 492.192 202.392 495.239 205.806C496.438 197.816 503.415 195.992 509.398 197.04C524.541 199.691 523.907 219.291 523.907 219.291C523.907 219.291 557.369 221.769 534.59 252.158L523.216 237.454C511.403 244.703 499.184 241.381 491.543 234.062C482.326 234.003 466.515 229.295 468.269 217.294Z" fill="#3D0B0B" />
        <path d="M537.313 273.108C534.449 286.341 518.291 282.924 521.026 269.664C523.893 256.432 540.049 259.848 537.313 273.108Z" fill="#AA5635" />
        <path d="M533.113 275.841C533.009 275.84 532.907 275.816 532.814 275.769C532.721 275.722 532.641 275.654 532.579 275.571C532.517 275.487 532.475 275.391 532.457 275.288C532.439 275.186 532.445 275.081 532.474 274.981C534.996 267.94 531.877 264.982 527.128 266.936C522.46 265.343 538.988 261.037 533.75 275.36C533.71 275.498 533.627 275.62 533.512 275.707C533.397 275.793 533.257 275.84 533.113 275.841Z" fill="#7C3021" />
        <path d="M526.886 274.909C524.864 274.624 528.699 268.428 533.823 268.009C534.687 267.935 534.774 269.298 533.912 269.342C528.754 269.875 528.107 274.738 526.886 274.909Z" fill="#7C3021" />
        <path d="M519.983 318.648C515.028 325.624 472.761 351.951 476.378 317.337C476.757 317.233 481.623 315.992 484.356 315.987C484.168 316.75 481.028 335.535 510.429 316.946C510.566 316.866 518.048 317.389 519.983 318.648Z" fill="#AAB082" />
        <path d="M494.846 258.808C494.941 258.839 495.043 258.844 495.14 258.822C495.238 258.799 495.327 258.751 495.399 258.681C495.471 258.611 495.522 258.523 495.546 258.426C495.571 258.329 495.569 258.227 495.54 258.131C493.31 251.021 489.098 248.925 488.927 248.838C488.796 248.775 488.645 248.767 488.508 248.816C488.37 248.864 488.258 248.965 488.195 249.097C488.132 249.228 488.124 249.379 488.173 249.517C488.221 249.654 488.323 249.766 488.454 249.829C488.513 249.859 492.44 251.858 494.502 258.466C494.529 258.545 494.574 258.618 494.634 258.677C494.693 258.736 494.766 258.781 494.846 258.808Z" fill="#7C3021" />
        <path d="M480.454 247.998C476.212 247.877 473.556 249.222 472.558 249.732C472.449 249.789 472.31 249.854 472.268 249.874C472.137 249.916 472.026 250.007 471.959 250.128C471.892 250.248 471.873 250.39 471.906 250.524C471.94 250.658 472.023 250.775 472.139 250.85C472.255 250.925 472.395 250.953 472.531 250.929C472.714 250.873 472.89 250.795 473.056 250.699C473.988 250.225 476.465 248.964 480.429 249.086C480.475 249.092 480.522 249.092 480.568 249.086C480.698 249.058 480.813 248.983 480.892 248.875C480.97 248.767 481.006 248.634 480.993 248.502C480.98 248.369 480.918 248.246 480.82 248.156C480.722 248.066 480.595 248.015 480.461 248.013L480.454 247.998Z" fill="#7C3021" />
        <path d="M481.799 280.868C480.634 280.868 479.653 280.427 479.158 279.567C478.263 278.019 479.339 275.779 481.606 274.468C482.568 273.89 483.674 273.592 484.797 273.609C485.922 273.656 486.779 274.104 487.245 274.899C487.71 275.695 487.661 276.666 487.138 277.664C486.591 278.646 485.78 279.454 484.797 279.998C483.889 280.542 482.857 280.842 481.799 280.868ZM484.601 274.842C483.762 274.867 482.944 275.107 482.225 275.541C480.615 276.473 479.703 278.031 480.231 278.948C480.758 279.864 482.567 279.854 484.177 278.925C484.957 278.5 485.602 277.865 486.04 277.092C486.224 276.738 486.486 276.066 486.172 275.519C485.855 274.971 485.141 274.862 484.745 274.845L484.601 274.842Z" fill="#722310" />
        <path d="M489.534 358.172C474.828 358.172 466.872 353.043 466.421 352.743L468.136 350.162L469.833 347.573C469.868 347.595 473.205 349.726 479.495 351.004C485.33 352.191 494.98 352.867 507.796 349.359L509.431 355.332C501.838 357.414 495.188 358.172 489.534 358.172Z" fill="#929868" />
        <path d="M487.381 374.87C472.662 374.87 463.44 369.45 462.9 369.123L466.091 363.816C466.133 363.84 470.323 366.293 477.409 367.693C483.92 368.974 494.303 369.601 506.795 365.292L508.814 371.147C500.844 373.897 493.617 374.87 487.381 374.87Z" fill="#929868" />
        <path d="M485.991 391.79C482.421 391.795 478.858 391.463 475.35 390.799C467.011 389.198 461.971 386.24 461.763 386.114L464.922 380.787C464.964 380.812 469.431 383.398 476.789 384.766C486.603 386.592 496.654 385.509 506.664 381.545L508.943 387.303C500.366 390.695 492.529 391.79 485.991 391.79Z" fill="#929868" />
        <path d="M375.914 268.401C375.914 268.401 383.057 225.579 354.055 231.773L375.914 268.401Z" fill="#3D0B0B" />
        <path d="M312.107 281.799C312.107 281.799 297.819 291.856 291.268 309.3C284.212 328.087 291.836 338.406 308.775 342.335C325.714 346.265 363.635 347.191 385.601 339.561C407.567 331.93 385.214 295.475 369.472 285.917L312.107 281.799Z" fill="#3D0B0B" />
        <path d="M416.818 533.636H267.093C268.634 520.74 270.589 507.907 272.958 495.138C302.822 499.798 375.015 504.58 411.885 495.138C413.801 507.841 415.446 520.674 416.818 533.636Z" fill="#3A72AA" />
        <path d="M355.576 300.143H332.725V327.252H355.576V300.143Z" fill="#AA5635" />
        <path d="M332.582 302.212V314.386C345.465 318.898 355.432 314.386 355.432 314.386V302.212H332.582Z" fill="#7C3021" />
        <path d="M272.523 474.701C271.329 450.27 287.245 428.767 295.131 405.778C303.163 382.613 302.767 357.838 302.992 332.606C310.787 327.978 333.518 321.15 332.289 322.027C336.84 325.03 351.27 327.064 357.54 322.027C368.367 324.785 377.457 328.075 386.795 332.614C386.458 351.76 390.239 391.156 399.698 412.787C410.847 439.77 413.468 465.947 411.887 495.138C367.653 505.182 318.075 505.028 272.959 495.138C272.746 491.689 272.35 484.73 272.523 474.701Z" fill="#1D3F70" />
        <path d="M365.198 430.053C365.198 430.053 382.115 421.85 392.897 430.053C392.897 430.053 386.252 443.82 374.548 443.969L365.198 430.053Z" fill="#AA5635" />
        <path d="M280.554 472.094C298.622 474.433 327.498 468.992 339.95 464.77C365.256 456.443 374.517 443.099 374.517 443.099C374.517 443.099 375.587 432.805 365.199 430.058C365.199 430.058 314.905 438.853 301.219 432.805C295.676 430.36 292.109 413.48 295.129 405.783C307.115 375.252 303.107 332.842 303.107 332.842C247.927 351.963 210.201 455.626 280.554 472.094Z" fill="#4B89BC" />
        <path d="M339.942 464.758C472.917 507.32 481.112 380.77 386.793 332.614C386.793 332.614 386.406 373.493 393.432 394.379C404.133 426.2 388.856 439.297 374.516 443.095L339.942 464.758Z" fill="#4B89BC" />
        <path d="M341.399 465.266C360.394 459.795 381.956 440.79 372.571 442.698C372.448 442.834 360.075 456.324 340.963 462.486C339.449 462.927 339.838 465.318 341.399 465.266Z" fill="#23659B" />
        <path d="M355.917 321.566C355.917 321.566 365.406 320.372 369.472 325.53C363.818 331.816 350.038 348.995 344.912 325.233C343.178 343.881 328.295 338.911 320.359 325.364C334.868 313.826 335.599 331.521 355.917 321.566Z" fill="#4B89BC" />
        <path d="M279.352 426.064C282.295 420.727 290.275 414.209 301.471 418.188C317.999 424.877 321.7 434.857 321.7 434.857C315.905 434.941 308.681 436.497 303.81 435.253C301.332 436.113 299.35 438.318 298.042 443.535C296.803 449.031 291.886 446.228 292.708 441.338C290.766 446.506 285.858 443.617 287.684 438.184C280.675 442.111 284.413 429.319 286.797 426.22C285.739 427.063 284.819 428.066 284.071 429.193C280.422 434.668 276.517 431.215 279.352 426.064Z" fill="#AA5635" />
        <path d="M292.708 441.962C294.014 441.791 294.046 434.054 299.013 430.672C300.668 428.992 303.721 430.365 304.323 429.282C303.438 427.33 299.757 428.705 298.31 429.641C293.793 432.949 291.038 441.883 292.708 441.962Z" fill="#7C3021" />
        <path d="M287.686 438.808C288.882 439.044 290.815 423.99 298.136 424.652C298.3 424.67 298.465 424.623 298.595 424.52C298.725 424.418 298.809 424.268 298.83 424.104C292.428 419.498 285.243 439.539 287.686 438.808Z" fill="#7C3021" />
        <path d="M286.541 426.842C287.78 426.594 288.974 420.038 295.708 420.863C295.79 420.876 295.873 420.872 295.953 420.852C296.032 420.833 296.108 420.797 296.174 420.749C296.24 420.7 296.296 420.639 296.339 420.568C296.381 420.498 296.41 420.42 296.422 420.338C296.434 420.257 296.43 420.174 296.411 420.094C296.391 420.014 296.356 419.939 296.307 419.873C296.258 419.806 296.197 419.75 296.126 419.708C296.056 419.665 295.978 419.637 295.897 419.625C289.076 418.579 284.515 426.718 286.541 426.842Z" fill="#7C3021" />
        <path d="M317.144 271.483C317.721 285.741 322.2 303.245 336.964 308.341C337.514 308.559 338.099 308.75 338.678 308.936C362.493 318.43 394.039 292.859 377.179 270.118C375.197 267.697 373.285 264.256 372.373 261.679C363.835 215.85 316.18 230.571 317.144 271.483Z" fill="#AA5635" />
        <path d="M355.881 235.301L355.536 238.551C362.969 240.357 372.289 261.414 372.289 261.414C370.984 252.366 366.095 239.845 355.881 235.301Z" fill="#7C3021" />
        <path d="M318.179 281.034C319.745 290.642 323.783 301.045 332.232 306.015C322.101 298.528 322.354 282.686 322.354 282.686L318.179 281.034Z" fill="#7C3021" />
        <path d="M317.144 271.483L324.346 275.66C334.164 272.3 344.803 257.881 344.803 257.881L323.56 247.059C319.326 253.692 316.938 262.247 317.144 271.483Z" fill="#7C3021" />
        <path d="M357.795 269.273C358.947 267.539 356.227 265.767 355.122 267.539C353.97 269.248 356.69 271.034 357.795 269.273Z" fill="#7C3021" />
        <path d="M371.36 268.44C372.512 266.721 369.794 264.935 368.687 266.706C367.535 268.423 370.255 270.209 371.36 268.44Z" fill="#7C3021" />
        <path d="M365.679 281.799C368.432 281.74 372.245 280.313 369.093 277.57C366.269 275.618 364.73 269.147 364.715 269.082C364.549 268.322 363.348 268.587 363.538 269.357C363.605 269.642 365.201 276.351 368.404 278.566C368.771 278.814 369.17 279.183 368.994 279.495C367.079 281.76 363.296 279.582 362.817 280.516C362.594 281.819 364.72 281.685 365.679 281.799Z" fill="#7C3021" />
        <path d="M348.222 265.324C348.108 265.321 347.998 265.283 347.906 265.216C347.815 265.148 347.745 265.054 347.708 264.947C347.671 264.839 347.668 264.723 347.698 264.613C347.729 264.503 347.793 264.405 347.88 264.333C352.62 260.656 358.764 260.146 359.029 260.121C359.173 260.118 359.312 260.169 359.418 260.265C359.525 260.361 359.59 260.494 359.601 260.637C359.612 260.78 359.568 260.922 359.478 261.033C359.388 261.145 359.258 261.217 359.116 261.236C359.057 261.236 353.039 261.746 348.569 265.212C348.469 265.286 348.347 265.326 348.222 265.324Z" fill="#7C3021" />
        <path d="M371.15 261.974C371.058 261.974 370.968 261.951 370.887 261.907C370.85 261.89 368.023 260.421 364.022 261.221C363.95 261.235 363.876 261.236 363.804 261.221C363.732 261.207 363.663 261.179 363.602 261.139C363.541 261.098 363.489 261.046 363.448 260.985C363.407 260.924 363.378 260.856 363.364 260.784C363.35 260.712 363.349 260.638 363.364 260.566C363.378 260.494 363.406 260.425 363.446 260.364C363.487 260.303 363.539 260.251 363.6 260.21C363.661 260.169 363.729 260.14 363.801 260.126C368.221 259.241 371.286 260.854 371.415 260.924C371.525 260.982 371.613 261.076 371.664 261.19C371.715 261.304 371.726 261.432 371.695 261.553C371.665 261.674 371.594 261.782 371.495 261.858C371.396 261.934 371.275 261.975 371.15 261.974Z" fill="#7C3021" />
        <path d="M358.076 236.445C358.076 236.445 353.458 258 324.324 271.807L310.74 270.39C310.74 270.39 301.494 252.599 314.147 235.301C328.72 215.396 351.248 225.116 358.076 236.445Z" fill="#3D0B0B" />
        <path d="M309.934 276.086C311.247 288.323 326.103 286.779 324.911 274.543C323.596 262.306 308.738 263.85 309.934 276.086Z" fill="#AA5635" />
        <path d="M313.509 278.963C313.598 278.962 313.686 278.942 313.767 278.904C313.847 278.866 313.918 278.811 313.975 278.743C314.032 278.674 314.073 278.594 314.095 278.508C314.117 278.422 314.12 278.332 314.104 278.244C312.516 271.659 315.573 269.26 319.679 271.488C320.365 271.862 320.94 270.767 320.238 270.415C315.435 267.824 311.02 270.586 312.915 278.472C312.942 278.61 313.016 278.734 313.124 278.824C313.233 278.913 313.369 278.962 313.509 278.963Z" fill="#7C3021" />
        <path d="M319.198 278.72C320.893 278.529 318.133 272.714 313.559 271.817C313.481 271.804 313.401 271.806 313.323 271.823C313.246 271.84 313.172 271.873 313.107 271.918C313.042 271.964 312.987 272.022 312.944 272.089C312.902 272.156 312.873 272.231 312.859 272.309C312.846 272.387 312.847 272.468 312.865 272.545C312.882 272.623 312.914 272.696 312.96 272.761C313.006 272.826 313.064 272.881 313.131 272.924C313.198 272.966 313.273 272.995 313.351 273.009C318.009 274 317.982 278.504 319.198 278.72Z" fill="#7C3021" />
        <path d="M318.18 292.307C316.712 292.305 315.305 291.721 314.266 290.685C313.228 289.648 312.642 288.242 312.638 286.774C312.605 285.727 312.902 284.695 313.487 283.826C313.53 283.763 313.584 283.709 313.647 283.667C313.71 283.625 313.781 283.596 313.855 283.581C313.93 283.567 314.006 283.567 314.081 283.582C314.155 283.597 314.226 283.626 314.289 283.669C314.352 283.711 314.406 283.765 314.448 283.828C314.49 283.892 314.519 283.962 314.533 284.037C314.548 284.111 314.548 284.188 314.533 284.262C314.518 284.336 314.488 284.407 314.446 284.47C313.989 285.149 313.76 285.956 313.792 286.774C313.792 287.642 314.049 288.49 314.532 289.212C315.014 289.933 315.699 290.496 316.501 290.828C317.302 291.16 318.185 291.247 319.036 291.078C319.887 290.908 320.669 290.49 321.282 289.877C321.896 289.263 322.314 288.481 322.483 287.63C322.653 286.779 322.566 285.897 322.234 285.095C321.901 284.293 321.339 283.608 320.617 283.126C319.896 282.644 319.048 282.386 318.18 282.386C318.027 282.386 317.88 282.326 317.772 282.217C317.663 282.109 317.603 281.962 317.603 281.809C317.603 281.656 317.663 281.509 317.772 281.401C317.88 281.293 318.027 281.232 318.18 281.232C319.65 281.232 321.059 281.816 322.099 282.855C323.138 283.895 323.722 285.304 323.722 286.774C323.722 288.244 323.138 289.654 322.099 290.693C321.059 291.733 319.65 292.316 318.18 292.316V292.307Z" fill="#F39200" />
        <path d="M361.183 287.27H361.165C357.117 287.126 355.07 282.998 354.986 282.81C354.958 282.751 354.941 282.688 354.937 282.623C354.933 282.558 354.942 282.493 354.964 282.431C354.985 282.37 355.018 282.313 355.061 282.264C355.104 282.216 355.157 282.176 355.215 282.147C355.274 282.119 355.338 282.102 355.403 282.098C355.468 282.094 355.533 282.103 355.594 282.125C355.656 282.146 355.713 282.179 355.761 282.222C355.81 282.266 355.85 282.318 355.878 282.376C355.895 282.414 357.756 286.145 361.2 286.266C361.331 286.269 361.456 286.323 361.548 286.417C361.639 286.512 361.689 286.639 361.687 286.77C361.684 286.902 361.63 287.027 361.535 287.118C361.441 287.21 361.314 287.26 361.183 287.257V287.27Z" fill="#722310" />
        <path fill-rule="evenodd" clip-rule="evenodd" d="M734.533 160.477C736.906 159.811 739.39 159.475 741.8 159.167C742.319 159.103 742.801 159.463 742.838 159.97C742.912 160.477 742.541 160.942 742.059 161.006C739.724 161.302 737.314 161.619 735.052 162.26C734.57 162.399 734.051 162.113 733.903 161.621C733.755 161.129 734.051 160.616 734.533 160.477Z" fill="#A1A1A1" />
        <path fill-rule="evenodd" clip-rule="evenodd" d="M727.341 151.036C731.16 147.139 735.46 143.744 739.205 139.743C739.539 139.369 740.132 139.349 740.503 139.698C740.873 140.047 740.91 140.634 740.54 141.008C736.795 145.021 732.494 148.427 728.676 152.336C728.305 152.701 727.712 152.706 727.341 152.347C727.008 151.988 726.97 151.401 727.341 151.036Z" fill="#A1A1A1" />
        <path fill-rule="evenodd" clip-rule="evenodd" d="M720.185 136.048C720.074 138.278 719.963 140.508 719.852 142.739C719.852 143.25 719.407 143.644 718.887 143.62C718.368 143.594 717.998 143.159 717.998 142.648C718.109 140.414 718.22 138.18 718.331 135.947C718.368 135.436 718.813 135.044 719.332 135.072C719.814 135.1 720.222 135.537 720.185 136.048Z" fill="#A1A1A1" />
        <g clip-path="url(#clip2_1_1492)">
            <path d="M231.776 74.7866C232.64 76.2846 232.875 78.0649 232.427 79.7357C231.979 81.4066 230.886 82.8312 229.388 83.696C227.89 84.5609 226.11 84.7953 224.439 84.3476C222.768 83.8999 221.344 82.8068 220.479 81.3088C219.614 79.8107 219.38 78.0305 219.827 76.3596C220.275 74.6888 221.368 73.2642 222.866 72.3993C224.364 71.5344 226.144 71.3 227.815 71.7477C229.486 72.1954 230.911 73.2886 231.776 74.7866ZM222.362 80.2217C222.938 81.2204 223.888 81.9492 225.002 82.2476C226.116 82.5461 227.303 82.3899 228.301 81.8133C229.3 81.2367 230.029 80.287 230.327 79.1731C230.626 78.0592 230.469 76.8723 229.893 75.8736C229.316 74.8749 228.367 74.1462 227.253 73.8477C226.139 73.5493 224.952 73.7055 223.953 74.2821C222.954 74.8587 222.226 75.8084 221.927 76.9223C221.629 78.0362 221.785 79.223 222.362 80.2217Z" fill="#A1A1A1" fill-opacity="0.5" />
            <path d="M240.685 77.1738L241.626 76.6303C242.54 76.1028 243.613 75.9253 244.648 76.1308C245.682 76.3362 246.607 76.9106 247.249 77.747L251.602 71.7643C251.815 71.4711 252.098 71.2358 252.425 71.0797C252.752 70.9236 253.113 70.8517 253.475 70.8705C253.836 70.8894 254.188 70.9983 254.497 71.1875C254.806 71.3767 255.063 71.6401 255.244 71.9538L263.355 86.0032C263.536 86.3169 263.636 86.6707 263.645 87.0327C263.654 87.3946 263.573 87.7531 263.409 88.0757C263.244 88.3982 263.002 88.6746 262.704 88.8798C262.405 89.085 262.061 89.2124 261.701 89.2505L254.341 90.0303C254.744 91.0048 254.779 92.0926 254.44 93.0912C254.101 94.0897 253.41 94.9309 252.497 95.4581L238.376 103.611C237.377 104.187 236.19 104.344 235.076 104.045C233.962 103.747 233.013 103.018 232.436 102.019L225.914 90.7226C225.337 89.7239 225.181 88.5371 225.48 87.4232C225.778 86.3093 226.507 85.3596 227.505 84.783L240.685 77.1738ZM261.471 87.0883L253.362 73.0427L248.463 79.7751L253.191 87.9652L261.473 87.0902L261.471 87.0883ZM227.797 89.6356L234.319 100.932C234.607 101.432 235.082 101.796 235.639 101.945C236.196 102.094 236.789 102.016 237.289 101.728L251.41 93.5754C251.909 93.2871 252.273 92.8122 252.423 92.2553C252.572 91.6983 252.494 91.1049 252.205 90.6055L245.683 79.3088C245.395 78.8095 244.92 78.4451 244.363 78.2959C243.806 78.1466 243.213 78.2247 242.713 78.513L228.592 86.6658C228.093 86.9541 227.729 87.4289 227.58 87.9859C227.43 88.5428 227.508 89.1362 227.797 89.6356Z" fill="#A1A1A1" fill-opacity="0.5" />
            <path d="M240.686 77.1738C242.184 76.3089 243.277 74.8844 243.724 73.2135C244.172 71.5427 243.938 69.7624 243.073 68.2644C242.208 66.7663 240.783 65.6732 239.112 65.2255C237.442 64.7778 235.661 65.0122 234.163 65.8771C232.665 66.742 231.572 68.1666 231.124 69.8374C230.677 71.5082 230.911 73.2885 231.776 74.7866C232.641 76.2846 234.066 77.3777 235.736 77.8254C237.407 78.2731 239.187 78.0387 240.686 77.1738ZM233.659 73.6995C233.082 72.7008 232.926 71.514 233.224 70.4001C233.523 69.2862 234.252 68.3365 235.25 67.7599C236.249 67.1833 237.436 67.027 238.55 67.3255C239.664 67.624 240.613 68.3527 241.19 69.3514C241.767 70.3501 241.923 71.5369 241.624 72.6508C241.326 73.7647 240.597 74.7144 239.598 75.291C238.6 75.8676 237.413 76.0239 236.299 75.7254C235.185 75.427 234.235 74.6982 233.659 73.6995Z" fill="#A1A1A1" fill-opacity="0.5" />
        </g>
    </g>
    <path fill-rule="evenodd" clip-rule="evenodd" d="M279.726 17.9188C280.259 15.8196 281.092 13.7806 281.913 11.8106C282.091 11.387 282.574 11.1784 282.975 11.3731C283.392 11.5397 283.581 12.0262 283.419 12.4215C282.622 14.33 281.808 16.3039 281.304 18.3075C281.199 18.7356 280.755 19.0051 280.317 18.9016C279.879 18.7983 279.62 18.347 279.726 17.9188Z" fill="#A1A1A1" />
    <path fill-rule="evenodd" clip-rule="evenodd" d="M269.426 19.2449C268.143 14.6246 267.452 9.85779 266.058 5.24797C265.921 4.82966 266.165 4.36923 266.592 4.24031C267.019 4.11156 267.48 4.34158 267.601 4.78812C269.004 9.403 269.703 14.1747 270.994 18.8C271.109 19.2426 270.853 19.6965 270.419 19.821C270.001 19.9174 269.54 19.6875 269.426 19.2449Z" fill="#A1A1A1" />
    <path fill-rule="evenodd" clip-rule="evenodd" d="M254.937 18.1044C256.579 19.1695 258.22 20.2344 259.862 21.2997C260.249 21.5243 260.353 22.0366 260.107 22.4208C259.861 22.8049 259.369 22.8958 258.982 22.6711C257.338 21.6044 255.694 20.538 254.05 19.4714C253.679 19.2186 253.576 18.7076 253.825 18.3247C254.057 17.9699 254.566 17.8518 254.937 18.1044Z" fill="#A1A1A1" />
    <g clip-path="url(#clip3_1_1492)">
        <g clip-path="url(#clip4_1_1492)">
            <path d="M83.2027 236.258C83.5615 236.051 83.9878 235.994 84.3879 236.102C84.788 236.209 85.1292 236.471 85.3363 236.829L86.8981 239.535C88.555 242.404 91.2841 244.499 94.485 245.356C97.686 246.214 101.096 245.765 103.966 244.108C106.836 242.451 108.93 239.722 109.788 236.521C110.646 233.32 110.197 229.91 108.54 227.04L106.978 224.335C106.771 223.976 106.715 223.549 106.822 223.149C106.929 222.749 107.191 222.408 107.55 222.201C107.908 221.994 108.335 221.938 108.735 222.045C109.135 222.152 109.476 222.414 109.683 222.773L111.245 225.478C113.181 228.831 113.802 232.784 112.989 236.569C112.175 240.355 109.985 243.703 106.842 245.965L110.005 251.443L118.12 246.757C118.479 246.55 118.905 246.494 119.305 246.601C119.705 246.708 120.047 246.97 120.254 247.329C120.461 247.687 120.517 248.114 120.41 248.514C120.302 248.914 120.041 249.255 119.682 249.462L100.746 260.395C100.387 260.602 99.9605 260.658 99.5604 260.551C99.1603 260.444 98.8191 260.182 98.612 259.824C98.4049 259.465 98.3488 259.039 98.456 258.638C98.5632 258.238 98.8249 257.897 99.1837 257.69L107.299 253.004L104.137 247.526C100.607 249.117 96.6115 249.34 92.9264 248.152C89.2413 246.964 86.1288 244.45 84.1929 241.096L82.6311 238.391C82.4239 238.032 82.3678 237.606 82.475 237.206C82.5822 236.806 82.844 236.465 83.2027 236.258Z" fill="#A1A1A1" fill-opacity="0.5" />
            <path d="M103.129 230.163C103.958 231.598 104.182 233.304 103.753 234.904C103.325 236.505 102.278 237.869 100.843 238.698C99.4077 239.526 97.7024 239.751 96.1019 239.322C94.5015 238.893 93.1369 237.846 92.3085 236.411L84.4992 222.885C83.6708 221.45 83.4463 219.745 83.8751 218.144C84.3039 216.544 85.351 215.179 86.7859 214.351C88.2209 213.522 89.9261 213.298 91.5266 213.727C93.127 214.155 94.4916 215.202 95.32 216.637L103.129 230.163ZM85.2241 211.646C83.0717 212.888 81.5011 214.935 80.8578 217.336C80.2146 219.736 80.5513 222.294 81.794 224.447L89.6033 237.973C90.846 240.125 92.8928 241.696 95.2935 242.339C97.6942 242.982 100.252 242.645 102.404 241.403C104.557 240.16 106.127 238.113 106.771 235.713C107.414 233.312 107.077 230.754 105.835 228.602L98.0253 215.076C96.7826 212.923 94.7357 211.353 92.3351 210.709C89.9344 210.066 87.3765 210.403 85.2241 211.646V211.646Z" fill="#A1A1A1" fill-opacity="0.5" />
        </g>
    </g>
    <g clip-path="url(#clip5_1_1492)">
        <path fill-rule="evenodd" clip-rule="evenodd" d="M73.4001 413.87C73.9333 433.602 77.8756 454.245 88.8872 470.611C92.8933 476.566 97.9953 481.274 103.175 486.141C103.538 486.483 104.112 486.465 104.456 486.101C104.799 485.736 104.781 485.161 104.416 484.819C99.3363 480.045 94.3205 475.439 90.392 469.599C79.5365 453.465 75.7079 433.095 75.2069 413.649L75.5054 413.617C78.7477 413.28 82.098 410.395 84.96 406.234C89.0634 400.271 92.247 391.742 92.9984 385.286C93.3354 382.385 93.1715 379.886 92.4459 378.166C91.881 376.825 90.9805 375.915 89.7537 375.518C87.1388 374.674 84.4523 376.308 82.1039 379.529C77.1904 386.266 73.4562 399.876 73.3577 406.145C73.3277 408.102 73.3264 410.077 73.361 412.06C72.7923 412.135 72.2352 412.206 71.6903 412.25C70.1375 412.372 68.6613 412.274 67.138 411.321C64.7656 409.832 63.0859 407.376 61.8614 404.578C59.9534 400.208 59.1691 394.998 58.7959 391.043C56.719 369.02 65.5778 352.404 76.7995 339.757C88.1346 326.987 101.879 318.236 109.396 312.052C109.783 311.735 109.837 311.164 109.519 310.777C109.202 310.389 108.63 310.334 108.244 310.653C100.677 316.876 86.8532 325.698 75.4441 338.555C63.9216 351.536 54.8592 368.605 56.9893 391.212C57.3777 395.332 58.2121 400.753 60.1993 405.303C61.5764 408.452 63.5057 411.183 66.1759 412.857C68.5726 414.359 70.8591 414.185 73.4001 413.87ZM75.1703 411.829L75.3192 411.814C78.1534 411.52 80.9634 408.845 83.4654 405.207C87.4085 399.477 90.4743 391.282 91.1957 385.076C91.4444 382.948 91.4179 381.064 91.0296 379.618C90.7078 378.426 90.1506 377.551 89.1965 377.245C88.2967 376.952 87.4026 377.145 86.5301 377.663C85.5046 378.269 84.5183 379.296 83.5687 380.596C78.848 387.07 75.2648 400.149 75.1709 406.173C75.1431 408.044 75.1408 409.93 75.1703 411.829Z" fill="#A1A1A1" />
        <path fill-rule="evenodd" clip-rule="evenodd" d="M106.756 486.731C106.38 486.857 105.824 486.872 105.225 486.881C103.8 486.905 102.158 486.715 101.38 486.656C100.88 486.62 100.447 486.997 100.409 487.495C100.373 487.996 100.748 488.43 101.248 488.466C102.201 488.536 104.39 488.786 106.013 488.661C106.884 488.594 107.612 488.4 108.043 488.101C108.779 487.594 108.908 486.706 108.181 485.514C107.32 484.104 105.069 481.861 104.647 479.14C104.572 478.646 104.105 478.306 103.613 478.384C103.117 478.461 102.778 478.924 102.855 479.419C103.259 482.014 105.081 484.258 106.207 485.827C106.42 486.125 106.633 486.504 106.756 486.731Z" fill="#A1A1A1" />
    </g>
    <defs>
        <clipPath id="clip0_1_1492">
            <rect width="668.197" height="474.803" fill="white" transform="translate(103.803 58.8406)" />
        </clipPath>
        <clipPath id="clip1_1_1492">
            <rect width="41.329" height="41.329" fill="white" transform="translate(615.415 50.3518) rotate(15)" />
        </clipPath>
        <clipPath id="clip2_1_1492">
            <rect width="34.7849" height="34.7849" fill="white" transform="translate(217.218 75.6604) rotate(-30)" />
        </clipPath>
        <clipPath id="clip3_1_1492">
            <rect width="59.5906" height="59.5906" fill="white" transform="translate(61.1799 219.979) rotate(-30)" />
        </clipPath>
        <clipPath id="clip4_1_1492">
            <rect width="49.9792" height="49.9792" fill="white" transform="translate(63.5826 224.14) rotate(-30)" />
        </clipPath>
        <clipPath id="clip5_1_1492">
            <rect width="153.782" height="153.782" fill="white" transform="translate(133.179 296.242) rotate(60)" />
        </clipPath>
    </defs>
</svg>
    