<svg width="32" height="31" viewBox="0 0 32 31" fill="none" xmlns="http://www.w3.org/2000/svg">
    <path fill-rule="evenodd" clip-rule="evenodd" d="M26.4862 17.4979C27.0198 15.3987 27.8521 13.3597 28.6732 11.3897C28.8514 10.9661 29.335 10.7575 29.7355 10.9522C30.1526 11.1188 30.342 11.6053 30.1801 12.0006C29.3827 13.9091 28.5687 15.883 28.065 17.8866C27.9595 18.3147 27.5154 18.5842 27.0774 18.4807C26.6398 18.3774 26.381 17.9261 26.4862 17.4979Z" fill="#A1A1A1" />
    <path fill-rule="evenodd" clip-rule="evenodd" d="M16.1863 18.824C14.904 14.2037 14.2127 9.43689 12.8188 4.82707C12.6816 4.40876 12.9259 3.94833 13.3525 3.81942C13.7793 3.69066 14.2405 3.92069 14.3615 4.36723C15.7641 8.9821 16.4639 13.7538 17.7549 18.3791C17.8691 18.8218 17.6136 19.2756 17.1794 19.4001C16.7618 19.4965 16.3006 19.2666 16.1863 18.824Z" fill="#A1A1A1" />
    <path fill-rule="evenodd" clip-rule="evenodd" d="M1.69765 17.6835C3.33912 18.7486 4.98068 19.8135 6.62243 20.8788C7.00956 21.1034 7.11375 21.6157 6.86784 21.9999C6.62166 22.384 6.13002 22.4749 5.7426 22.2502C4.09833 21.1835 2.45423 20.1171 0.810238 19.0505C0.439325 18.7977 0.337043 18.2867 0.585193 17.9038C0.817123 17.549 1.32702 17.4309 1.69765 17.6835Z" fill="#A1A1A1" />
</svg>
    