<svg width="466" height="466" viewBox="0 0 466 466" fill="none" xmlns="http://www.w3.org/2000/svg">
    <path fill-rule="evenodd" clip-rule="evenodd" d="M239.494 453.998C212.7 453.998 192.231 450.308 184.067 448.675C154.461 442.751 97.2314 431.303 55.8555 383.376C-6.74278 310.866 3.00464 196.627 51.56 121.219C55.3606 115.315 66.1282 97.9175 84.6729 78.9838C84.7997 79.2611 85.0323 79.4919 85.3423 79.6116C86.5651 80.0837 87.7847 80.6146 88.9677 81.19C89.1419 81.2746 89.3266 81.3149 89.5085 81.3149C89.9136 81.3149 90.3048 81.1157 90.5349 80.7669C90.5611 80.7275 90.5849 80.686 90.6069 80.6426C90.9061 80.0455 90.6572 79.3224 90.0513 79.0277C88.8145 78.4266 87.5396 77.8712 86.262 77.377C103.459 60.1542 127.053 41.9037 157.663 30.0178C145.725 37.1173 134.829 46.4442 126.123 57.2705C125.929 57.3676 125.782 57.5456 125.729 57.7632C109.049 78.7558 100.605 105.301 108.684 132.171C109.419 134.616 110.309 137.161 111.35 139.742C111.274 139.925 111.195 140.107 111.115 140.288C110.847 140.901 111.134 141.609 111.754 141.873C111.913 141.939 112.076 141.971 112.238 141.971C112.254 141.971 112.269 141.971 112.283 141.971C117.828 154.727 126.978 167.812 139.141 173.039C140.38 173.571 141.648 174.019 142.94 174.385C143.744 174.857 144.608 175.293 145.537 175.692C151.172 178.114 163.397 179.869 173.359 179.869C178.079 179.869 182.287 179.476 185.051 178.572C207.903 171.099 222.923 150.647 210.495 127.964C206.515 120.701 201.363 114.066 197.927 106.538C194.489 99.0099 192.924 90.0753 196.427 82.5771C203.015 68.4817 224.251 63.5936 239.052 63.5936C239.705 63.5936 240.343 63.6031 240.97 63.6217C241.738 63.6446 242.5 63.6828 243.26 63.7362C251.764 67.7619 259.086 74.0512 264.374 82.2655C276.104 100.481 279.075 122.638 277.359 143.783C275.521 166.41 265.836 183.688 251.321 201.046C238.824 215.989 225.062 230.333 216.758 247.881C209.132 263.99 206.64 281.839 206.296 299.462C206.228 302.878 207.397 338.548 207.47 348.382C207.482 349.771 208.616 350.894 210.025 350.909C214.75 352.788 228.208 355.91 229.369 355.923C236.729 356.005 257.578 356.234 265.251 356.319C265.261 356.319 265.272 356.319 265.283 356.319C266.847 356.319 268.129 355.083 268.147 353.539C268.694 305.693 283.635 260.078 321.456 227.945C335.218 216.252 350.039 206.73 360.74 191.972C368.538 181.217 374.317 170.549 377.812 159.221L433.226 156.573C435.09 156.483 436.763 155.714 438.002 154.514C465.853 229.249 455.408 317.423 418.791 372.279C418.325 372.294 417.855 372.302 417.386 372.302C409.61 372.302 401.55 370.312 393.13 368.323C384.708 366.332 375.923 364.341 366.692 364.341C360.599 364.341 354.31 365.21 347.803 367.516C313.83 379.562 318.512 424.986 320.419 437.142C320.689 438.855 322.025 440.195 323.737 440.517C293.447 450.944 263.855 453.998 239.494 453.998ZM228.01 449.758C228.173 449.818 228.338 449.878 228.505 449.938C232.563 451.383 247.46 451.42 253.147 451.42C253.473 451.42 253.77 451.42 254.031 451.42C276.368 451.42 288.749 431.955 288.749 409.954C288.749 388.355 265.948 372.32 243.98 371.742C240.781 370.94 237.431 370.514 233.979 370.514C211.642 370.514 193.536 388.35 193.536 410.351C193.536 430.354 208.504 446.915 228.01 449.758ZM419.413 182.87C417.406 182.87 415.411 184.218 415.161 186.61C411.434 222.252 383.412 234.707 321.593 295.369C256.474 359.27 305.403 429.177 312.132 438.11C312.594 438.722 313.281 439.122 314.049 439.224C314.185 439.243 314.318 439.251 314.45 439.251C316.286 439.251 317.692 437.532 317.214 435.71C313.352 420.951 306.804 369.014 386.696 321.635C459.121 278.683 437.236 213.245 423.189 185.202C422.389 183.606 420.899 182.87 419.413 182.87ZM75.3982 167.465C75.3388 167.465 75.2785 167.47 75.2178 167.477C73.9342 167.665 72.6289 167.801 71.3375 167.882C70.6631 167.923 70.1508 168.496 70.1936 169.16C70.2348 169.8 70.7729 170.29 71.4138 170.29C71.4398 170.29 71.4661 170.289 71.4923 170.287C72.8514 170.202 74.2254 170.06 75.576 169.863C75.9375 169.811 76.2388 169.607 76.4233 169.328C76.5802 169.089 76.6529 168.797 76.6074 168.494C76.5177 167.896 75.995 167.465 75.3982 167.465ZM60.9319 167.389C60.3409 167.389 59.8203 167.812 59.7243 168.406C59.6178 169.062 60.0726 169.681 60.7402 169.785C62.0863 169.997 63.4592 170.155 64.8207 170.253C64.8511 170.256 64.8816 170.257 64.9117 170.257C65.3369 170.257 65.718 170.039 65.9375 169.706C66.0463 169.542 66.1154 169.35 66.1313 169.14C66.181 168.475 65.675 167.897 65.0008 167.848C63.7075 167.755 62.4039 167.605 61.126 167.405C61.0608 167.394 60.996 167.389 60.9319 167.389ZM85.5449 164.841C85.399 164.841 85.2509 164.866 85.1067 164.922C83.8964 165.378 82.6521 165.792 81.4093 166.147C80.7599 166.331 80.3865 167.001 80.5753 167.642C80.7309 168.169 81.2196 168.51 81.7504 168.51C81.8633 168.51 81.9784 168.494 82.0924 168.462C83.4006 168.088 84.7096 167.654 85.9833 167.173C86.234 167.078 86.4348 166.911 86.5707 166.706C86.777 166.393 86.8335 165.99 86.6879 165.615C86.501 165.136 86.037 164.841 85.5449 164.841ZM50.8183 164.639C50.3319 164.639 49.8715 164.926 49.6805 165.397C49.4293 166.016 49.7351 166.717 50.3627 166.964C51.6302 167.463 52.933 167.915 54.2356 168.305C54.3546 168.341 54.4748 168.358 54.5931 168.358C55.0056 168.358 55.3939 168.151 55.6191 167.809C55.68 167.717 55.729 167.615 55.7633 167.504C55.9604 166.867 55.596 166.192 54.9495 165.998C53.7123 165.627 52.4751 165.2 51.271 164.724C51.1225 164.666 50.9691 164.639 50.8183 164.639ZM94.8641 160.105C94.6314 160.105 94.3961 160.17 94.1878 160.306C93.1116 161.012 91.9893 161.681 90.8524 162.297C90.2599 162.617 90.0432 163.349 90.3692 163.934C90.592 164.333 91.0106 164.559 91.4426 164.559C91.6419 164.559 91.8439 164.51 92.031 164.409C93.228 163.761 94.4094 163.057 95.5428 162.314C95.6862 162.221 95.8034 162.102 95.8915 161.968C96.1495 161.577 96.1635 161.057 95.8848 160.644C95.649 160.293 95.2604 160.105 94.8641 160.105ZM41.5584 159.78C41.1672 159.78 40.7827 159.965 40.546 160.308C40.1497 160.858 40.3098 161.608 40.8682 161.982C41.1666 162.183 41.4675 162.38 41.7717 162.574C42.6115 163.113 43.4804 163.632 44.3535 164.12C44.5439 164.226 44.7511 164.276 44.9555 164.276C45.3582 164.276 45.7502 164.08 45.9821 163.728C45.9959 163.708 46.0089 163.686 46.0214 163.665C46.3545 163.086 46.1478 162.35 45.5597 162.022C44.7295 161.558 43.9041 161.065 43.1056 160.554C42.8165 160.369 42.5299 160.18 42.2466 159.99C42.0355 159.848 41.7958 159.78 41.5584 159.78ZM102.901 153.472C102.579 153.472 102.257 153.597 102.017 153.846C101.124 154.767 100.179 155.663 99.2059 156.509C98.701 156.95 98.653 157.712 99.1001 158.211C99.3421 158.48 99.6786 158.618 100.018 158.618C100.305 158.618 100.595 158.517 100.828 158.315C101.852 157.425 102.847 156.481 103.788 155.51C103.841 155.455 103.889 155.397 103.929 155.333C104.243 154.857 104.18 154.213 103.748 153.807C103.51 153.583 103.206 153.472 102.901 153.472ZM35.0209 154.497C34.7039 154.497 34.3873 154.618 34.1476 154.858C33.6721 155.335 33.6812 156.096 34.1631 156.563C34.6401 157.024 35.1318 157.48 35.6246 157.919C35.8587 158.128 36.1523 158.232 36.4449 158.232C36.7791 158.232 37.1118 158.098 37.3535 157.834C37.398 157.785 37.4376 157.734 37.4725 157.681C37.7945 157.193 37.7185 156.533 37.2664 156.131C36.7985 155.714 36.3312 155.281 35.8784 154.843C35.6401 154.612 35.3303 154.497 35.0209 154.497ZM109.267 145.257C108.85 145.257 108.445 145.466 108.217 145.841C107.541 146.946 106.82 148.021 106.067 149.049C105.672 149.589 105.796 150.342 106.342 150.732C106.56 150.887 106.81 150.961 107.059 150.961C107.438 150.961 107.814 150.787 108.052 150.46C108.519 149.824 108.977 149.166 109.415 148.501C109.721 148.037 110.02 147.565 110.314 147.085C110.663 146.516 110.477 145.775 109.899 145.431C109.7 145.314 109.482 145.257 109.267 145.257ZM95.2227 82.176C94.8304 82.176 94.445 82.3615 94.2084 82.7054L94.1955 82.7253C93.8331 83.2745 93.9823 84.0109 94.5354 84.3798C95.6287 85.1091 96.7002 85.8916 97.7202 86.7055C97.9478 86.8863 98.2203 86.9744 98.4911 86.9744C98.8469 86.9744 99.201 86.8216 99.443 86.5272C99.4703 86.494 99.4943 86.4596 99.5184 86.4244C99.8549 85.9136 99.7524 85.2237 99.262 84.8319C98.1866 83.9749 97.0584 83.1514 95.9083 82.3837C95.6979 82.2434 95.4591 82.176 95.2227 82.176ZM96.8471 72.8496C96.5845 72.8496 96.3295 72.9822 96.1979 73.2226C96.1098 73.3737 96.0224 73.5246 95.9372 73.6777C95.3708 74.6817 94.8541 75.7239 94.4036 76.7722C94.2408 77.1511 94.4203 77.5877 94.8049 77.7481C94.9011 77.7882 95.0009 77.8073 95.0993 77.8073C95.3509 77.8073 95.5921 77.6827 95.733 77.469C95.7567 77.4328 95.778 77.394 95.7955 77.3528C96.2253 76.3531 96.7181 75.3592 97.2603 74.3982C97.342 74.2522 97.4238 74.1096 97.5071 73.9688C97.7154 73.6124 97.592 73.1571 97.2314 72.9513C97.1112 72.8826 96.9782 72.8496 96.8471 72.8496ZM101.575 66.6772C101.377 66.6772 101.18 66.753 101.031 66.9037C100.103 67.8473 99.2235 68.8607 98.4158 69.9157C98.169 70.2489 98.2315 70.7116 98.5648 70.9588C98.701 71.0601 98.8613 71.1089 99.0184 71.1089C99.2475 71.1089 99.4751 71.0066 99.6241 70.8128C100.393 69.8058 101.233 68.8392 102.118 67.9396C102.151 67.9043 102.182 67.8664 102.209 67.8267C102.401 67.5341 102.365 67.1386 102.1 66.887C101.954 66.747 101.764 66.6772 101.575 66.6772ZM107.687 61.8353C107.551 61.8353 107.414 61.8711 107.289 61.9462C106.152 62.6389 105.046 63.4082 104.006 64.2328C103.68 64.4923 103.629 64.9594 103.89 65.28C104.039 65.4628 104.259 65.5579 104.48 65.5579C104.647 65.5579 104.813 65.504 104.953 65.3935C105.946 64.6069 106.999 63.8737 108.084 63.2135C108.184 63.1538 108.262 63.0752 108.322 62.9857C108.475 62.7519 108.488 62.4416 108.33 62.1884C108.187 61.9606 107.94 61.8353 107.687 61.8353ZM114.817 58.6121C114.742 58.6121 114.665 58.6233 114.589 58.6472C113.314 59.0467 112.051 59.5272 110.836 60.0759C110.456 60.2469 110.291 60.6892 110.464 61.0632C110.592 61.3364 110.866 61.4976 111.152 61.4976C111.258 61.4976 111.365 61.4758 111.466 61.4297C112.626 60.9063 113.83 60.4477 115.046 60.0668C115.219 60.0123 115.36 59.9023 115.452 59.7629C115.57 59.5825 115.609 59.3525 115.538 59.131C115.436 58.8143 115.139 58.6121 114.817 58.6121ZM122.534 57.1912C122.517 57.1912 122.501 57.1917 122.485 57.1927C121.149 57.2746 119.804 57.4388 118.492 57.6812C118.081 57.7573 117.812 58.1472 117.888 58.5504C117.956 58.9081 118.274 59.1578 118.63 59.1578C118.676 59.1578 118.724 59.1537 118.771 59.1451C120.022 58.9136 121.304 58.757 122.578 58.6792C122.828 58.6641 123.04 58.5322 123.167 58.3411C123.251 58.2118 123.296 58.0555 123.287 57.8901C123.263 57.4954 122.929 57.1912 122.534 57.1912ZM327.15 439.313C327.729 438.613 328.033 437.69 327.891 436.702C326.958 430.225 331.487 424.866 369.107 418.831C355.305 427.549 341.165 434.238 327.15 439.313ZM375.407 94.2968C371.173 81.2689 364.733 68.9859 355.746 58.4497C349.582 51.2234 342.375 44.9889 334.457 39.7264C349.385 46.8757 363.541 55.7328 376.4 66.3446C386.417 74.611 395.38 83.7009 403.34 93.4453L375.407 94.2968Z" fill="#FEE9D1" />
    <path fill-rule="evenodd" clip-rule="evenodd" d="M314.051 439.228C313.283 439.125 312.595 438.726 312.134 438.114C305.404 429.18 256.475 359.273 321.594 295.373C383.413 234.711 411.435 222.256 415.163 186.614C415.597 182.452 421.31 181.453 423.19 185.205C437.237 213.249 459.123 278.687 386.697 321.639C306.805 369.018 313.353 420.954 317.216 435.714C317.727 437.665 316.078 439.5 314.051 439.228Z" fill="#FDAB76" />
    <path fill-rule="evenodd" clip-rule="evenodd" d="M323.959 440.553C322.141 440.309 320.701 438.927 320.42 437.142C318.513 424.986 313.83 379.562 347.804 367.516C364.167 361.715 379.15 365.019 393.131 368.323C411.107 372.569 427.427 376.817 442.892 361.712C444.338 360.299 446.77 361.53 446.426 363.508C443.977 377.535 433.079 410.027 384.587 416.564C332.685 423.562 326.844 429.426 327.892 436.702C328.215 438.945 326.238 440.858 323.959 440.553Z" fill="#FDAB76" />
    <path fill-rule="evenodd" clip-rule="evenodd" d="M309.004 427.763C308.621 427.763 308.257 427.547 308.084 427.193C303.558 417.731 300.178 407.672 298.307 397.287C297.35 392.1 296.784 386.83 296.622 381.542C296.494 376.254 296.72 370.944 297.396 365.681C298.696 355.147 301.714 344.828 306.058 335.113C310.416 325.394 316.172 316.315 322.897 308.034C329.62 299.742 337.418 292.323 345.946 285.841C350.218 282.608 354.685 279.617 359.348 276.928C363.913 274.349 368.246 271.727 372.445 268.744C380.822 262.849 388.564 256.044 395.226 248.277C398.598 244.429 401.651 240.309 404.441 236.015C407.175 231.712 409.731 227.172 411.57 222.477L411.594 222.415C411.735 222.056 412.086 221.833 412.456 221.833C412.566 221.833 412.679 221.854 412.788 221.895C413.223 222.06 413.459 222.517 413.355 222.952C412.72 225.596 411.877 228.078 410.871 230.54C409.884 233.001 408.746 235.401 407.505 237.748C405.05 242.459 402.105 246.915 398.877 251.16C392.381 259.629 384.522 267.069 375.86 273.378C371.54 276.515 366.921 279.397 362.357 282.002C357.911 284.542 353.634 287.383 349.537 290.46C341.337 296.613 333.902 303.753 327.338 311.581C314.257 327.252 304.975 346.162 301.919 366.295C300.359 376.339 300.34 386.622 301.746 396.75C303.134 406.891 306.068 416.82 309.937 426.394C310.147 426.906 309.897 427.485 309.377 427.692C309.256 427.741 309.129 427.763 309.004 427.763Z" fill="#FEE9D1" />
    <path fill-rule="evenodd" clip-rule="evenodd" d="M322.522 433.33C322.245 433.33 321.979 433.182 321.843 432.923C321.742 432.731 321.732 432.516 321.8 432.326L321.806 432.312C321.965 431.872 321.915 431.463 321.9 431.043L321.86 429.79L321.832 427.286C321.833 425.616 321.87 423.947 321.944 422.28C322.096 418.945 322.383 415.612 322.836 412.299C323.759 405.68 325.284 399.08 327.995 392.865C330.678 386.691 334.739 380.792 340.635 376.939C343.571 375.046 346.884 373.7 350.316 373.015C352.581 372.546 354.885 372.339 357.182 372.339C358.366 372.339 359.546 372.394 360.719 372.495C374.231 374.039 387.473 376.59 400.751 378.663C405.442 379.351 410.179 379.987 414.854 379.987C416.77 379.987 418.676 379.88 420.565 379.626C422.179 379.394 423.769 379.046 425.312 378.557C426.841 378.031 428.343 377.417 429.745 376.607C432.569 375.019 435.051 372.847 437.271 370.438L437.277 370.431C437.439 370.255 437.664 370.165 437.888 370.165C438.085 370.165 438.282 370.235 438.441 370.375C438.773 370.672 438.801 371.176 438.51 371.509C436.261 374.058 433.692 376.415 430.689 378.189C429.199 379.092 427.59 379.796 425.95 380.396C424.295 380.96 422.593 381.368 420.876 381.653C418.665 381.971 416.458 382.101 414.262 382.101C409.592 382.101 404.966 381.512 400.416 380.898C393.707 379.957 387.082 378.732 380.434 377.673C373.808 376.611 367.102 375.583 360.503 374.82C359.291 374.705 358.075 374.644 356.861 374.644C354.812 374.644 352.77 374.821 350.775 375.217C347.594 375.823 344.552 377.032 341.831 378.748C336.345 382.189 332.366 387.664 329.664 393.591C326.929 399.547 325.304 405.996 324.274 412.503C323.766 415.762 323.42 419.049 323.21 422.347C323.106 423.995 323.038 425.644 323.005 427.297L322.987 429.774L323.003 431.01C323.014 431.42 322.995 431.84 323.2 432.23C323.394 432.6 323.248 433.054 322.873 433.245C322.761 433.302 322.641 433.33 322.522 433.33Z" fill="#FEE9D1" />
    <path fill-rule="evenodd" clip-rule="evenodd" d="M265.283 356.325C265.271 356.325 265.26 356.325 265.251 356.325C257.577 356.24 236.729 356.011 229.368 355.929C228.208 355.917 214.749 352.794 210.025 350.916C210.025 350.916 210.025 350.916 210.028 350.916C217.387 350.998 238.235 351.227 245.909 351.31C245.92 351.312 245.929 351.312 245.941 351.312C247.505 351.312 248.787 350.076 248.805 348.532C249.351 300.687 264.292 255.071 302.114 222.937C315.876 211.245 330.697 201.723 341.397 186.965C347.796 178.141 352.837 169.373 356.369 160.252L377.812 159.228C374.316 170.556 368.537 181.224 360.739 191.978C350.038 206.736 335.217 216.258 321.456 227.951C283.634 260.084 268.693 305.699 268.147 353.546C268.129 355.089 266.847 356.325 265.283 356.325ZM173.358 179.875C163.396 179.875 151.172 178.12 145.537 175.699C144.607 175.299 143.744 174.863 142.939 174.391C146.072 175.282 149.337 175.699 152.617 175.699C157.047 175.699 161.505 174.939 165.709 173.564C188.561 166.091 203.58 145.638 191.152 122.957C187.173 115.694 182.02 109.059 178.584 101.531C175.148 94.003 173.581 85.068 177.084 77.5698C183.673 63.4742 204.909 58.5861 219.709 58.5861C220.363 58.5861 221.001 58.5956 221.627 58.6144C229.288 58.8427 236.631 60.6051 243.26 63.7424C242.5 63.689 241.737 63.6508 240.969 63.6279C240.343 63.6093 239.705 63.5998 239.051 63.5998C224.251 63.5998 203.015 68.4879 196.426 82.5833C192.923 90.0815 194.489 99.0161 197.926 106.544C201.362 114.073 206.515 120.707 210.494 127.97C222.922 150.653 207.903 171.105 185.051 178.578C182.286 179.482 178.078 179.875 173.358 179.875ZM357.725 94.8419C353.595 79.7607 346.657 65.464 336.403 53.4424C323.169 37.9256 305.119 26.9815 285.564 20.4143C286.564 20.605 287.557 20.8033 288.548 21.0088C304.826 24.3898 320.711 30.5963 334.456 39.7326C342.375 44.9951 349.582 51.2297 355.745 58.4559C364.733 68.9921 371.172 81.2752 375.406 94.303L357.725 94.8419Z" fill="#B3200E" />
    <path fill-rule="evenodd" clip-rule="evenodd" d="M253.148 451.419C247.462 451.419 232.564 451.381 228.506 449.936C228.34 449.876 228.175 449.816 228.011 449.756C229.96 450.04 231.952 450.187 233.981 450.187C256.318 450.187 274.425 432.351 274.425 410.349C274.425 391.748 261.482 376.124 243.981 371.74C265.95 372.318 288.75 388.353 288.75 409.953C288.75 431.953 276.37 451.419 254.033 451.419C253.772 451.419 253.475 451.419 253.148 451.419Z" fill="#B3200E" />
    <path fill-rule="evenodd" clip-rule="evenodd" d="M245.943 351.308C245.931 351.308 245.922 351.308 245.91 351.308C238.237 351.223 217.389 350.994 210.03 350.912C210.028 350.912 210.028 350.912 210.026 350.912C208.618 350.896 207.483 349.774 207.472 348.385C207.398 338.55 206.23 302.881 206.297 299.465C206.642 281.842 209.134 263.993 216.759 247.883C225.064 230.336 238.825 215.991 251.323 201.049C265.837 183.691 275.522 166.413 277.36 143.786C279.077 122.641 276.105 100.484 264.376 82.2682C259.087 74.0539 251.765 67.7646 243.261 63.7389C236.633 60.6016 229.29 58.8392 221.629 58.6109C221.003 58.5921 220.365 58.5826 219.711 58.5826C204.911 58.5826 183.675 63.4707 177.086 77.5663C173.583 85.0645 175.15 93.9995 178.586 101.527C182.022 109.056 187.175 115.69 191.154 122.953C203.582 145.634 188.563 166.088 165.711 173.561C161.507 174.936 157.049 175.695 152.619 175.695C149.339 175.695 146.074 175.278 142.941 174.388C141.649 174.022 140.382 173.573 139.143 173.041C126.979 167.815 117.83 154.73 112.285 141.974C112.676 141.959 113.046 141.759 113.265 141.426C113.304 141.37 113.336 141.309 113.365 141.246C113.905 140.01 114.398 138.739 114.831 137.467C115.046 136.835 114.7 136.152 114.059 135.94C113.93 135.898 113.799 135.877 113.671 135.877C113.158 135.877 112.679 136.196 112.511 136.701C112.163 137.722 111.773 138.744 111.352 139.745C110.31 137.164 109.421 134.619 108.685 132.174C100.606 105.303 109.051 78.7586 125.731 57.7659C125.721 57.8066 125.715 57.8489 125.711 57.8922C125.686 58.3024 126.003 58.6557 126.42 58.6811C127.694 58.7588 128.976 58.9156 130.229 59.1478C130.277 59.1564 130.324 59.1605 130.37 59.1605C130.628 59.1605 130.865 59.0295 131.003 58.8213C131.056 58.7421 131.093 58.6516 131.112 58.5534C131.189 58.1492 130.918 57.76 130.508 57.6839C129.194 57.4408 127.849 57.2757 126.513 57.1947C126.497 57.1936 126.481 57.1932 126.465 57.1932C126.343 57.1932 126.227 57.2219 126.125 57.2732C134.83 46.4469 145.726 37.12 157.664 30.0205C162.565 27.1057 167.644 24.5653 172.817 22.4514C190.553 15.2025 210.546 12 230.428 12C230.908 12 231.389 12 231.87 12.0057C244.593 12.1045 257.246 13.5069 269.208 15.9917C274.729 17.1384 280.203 18.61 285.566 20.4108C305.121 26.978 323.171 37.9221 336.405 53.4388C346.659 65.4605 353.596 79.7572 357.726 94.8384L312.441 96.2187C306.859 96.3889 302.422 100.896 302.422 106.397V147.407L280.439 169.556L306.808 162.618L306.747 162.405C307.162 162.501 307.595 162.552 308.039 162.552C308.13 162.552 308.223 162.55 308.316 162.546L356.371 160.249C352.838 169.37 347.798 178.137 341.399 186.961C330.698 201.719 315.877 211.241 302.116 222.934C264.294 255.067 249.353 300.683 248.806 348.528C248.789 350.072 247.507 351.308 245.943 351.308ZM124.897 135.858C124.836 135.858 124.774 135.869 124.713 135.891C124.444 135.992 124.311 136.287 124.413 136.551C127.123 143.538 130.038 147.505 130.16 147.669C130.263 147.806 130.42 147.879 130.58 147.879C130.686 147.879 130.793 147.847 130.886 147.781C131.117 147.614 131.168 147.295 130.998 147.066C130.969 147.027 128.04 143.034 125.383 136.186C125.304 135.983 125.106 135.858 124.897 135.858ZM115.876 125.774C115.256 125.774 114.725 126.237 114.661 126.859C114.53 128.128 114.342 129.406 114.104 130.661C113.979 131.315 114.416 131.945 115.081 132.068C115.158 132.082 115.233 132.088 115.309 132.088C115.727 132.088 116.112 131.877 116.334 131.541C116.418 131.411 116.479 131.266 116.509 131.105C116.761 129.785 116.958 128.437 117.096 127.102C117.165 126.439 116.674 125.848 116.003 125.781C115.959 125.776 115.918 125.774 115.876 125.774ZM120.504 121.135C120.778 123.304 121.145 125.327 121.567 127.196C121.62 127.435 121.835 127.597 122.072 127.597C122.11 127.597 122.147 127.594 122.186 127.585C122.464 127.525 122.642 127.252 122.58 126.975C122.187 125.231 121.843 123.348 121.577 121.337C122.53 121.42 123.493 121.462 124.453 121.462C124.572 121.462 124.692 121.462 124.812 121.46C125.075 121.457 125.304 121.323 125.437 121.121C125.516 121.002 125.561 120.86 125.559 120.707C125.554 120.298 125.218 119.97 124.803 119.97C124.801 119.97 124.798 119.97 124.795 119.97C124.676 119.971 124.559 119.973 124.44 119.973C123.424 119.973 122.404 119.922 121.395 119.825C120.085 107.655 121.822 91.2151 133.311 72.9339C135.575 69.3324 137.994 65.9285 140.558 62.7291C140.592 62.9349 140.712 63.1256 140.906 63.2442C141.096 63.3603 141.286 63.4778 141.471 63.5971C142.354 64.1624 143.218 64.7793 144.039 65.4302C144.18 65.541 144.346 65.595 144.513 65.595C144.734 65.595 144.952 65.4999 145.103 65.3176C145.119 65.2971 145.133 65.2766 145.148 65.2554C145.356 64.9391 145.292 64.5119 144.988 64.2706C144.127 63.5878 143.221 62.9411 142.295 62.3483C142.1 62.2236 141.903 62.1005 141.704 61.9788C141.585 61.9063 141.454 61.8732 141.324 61.8732C141.298 61.8732 141.274 61.8744 141.249 61.8768C161.089 37.6613 189.595 25.2687 224.575 25.2687C241.984 25.2687 260.999 28.3387 281.344 34.5485C281.396 34.5643 281.447 34.5717 281.497 34.5717C281.718 34.5717 281.924 34.4306 281.993 34.2115C282.078 33.9419 281.924 33.6554 281.65 33.5717C261.139 27.3115 242.016 24.1771 224.452 24.1771C212.134 24.1771 200.582 25.7192 189.859 28.8063C165.527 35.8126 146.204 50.4781 132.429 72.3956C120.759 90.9646 119.024 107.676 120.375 120.031C120.274 120.143 120.206 120.284 120.189 120.443C120.157 120.723 120.286 120.983 120.504 121.135ZM115.977 117.417C115.945 117.417 115.913 117.417 115.881 117.42C115.208 117.472 114.703 118.05 114.756 118.715C114.806 119.34 114.841 119.971 114.865 120.59C114.889 121.241 115.431 121.752 116.086 121.752C116.102 121.752 116.116 121.752 116.132 121.75C116.546 121.736 116.905 121.52 117.113 121.203C117.246 121.001 117.32 120.759 117.31 120.502C117.286 119.85 117.248 119.187 117.197 118.529C117.145 117.897 116.61 117.417 115.977 117.417ZM132.458 118.969C132.396 118.969 132.333 118.977 132.269 118.993C131.051 119.302 129.804 119.542 128.562 119.705C128.149 119.76 127.857 120.134 127.913 120.541C127.963 120.915 128.288 121.187 128.66 121.187C128.694 121.187 128.727 121.185 128.761 121.181C130.064 121.01 131.372 120.759 132.647 120.434C132.838 120.387 132.992 120.27 133.091 120.12C133.204 119.951 133.245 119.738 133.191 119.528C133.103 119.192 132.795 118.969 132.458 118.969ZM139.643 116.192C139.521 116.192 139.399 116.221 139.285 116.281C138.181 116.868 137.029 117.395 135.861 117.845C135.471 117.995 135.279 118.427 135.433 118.81C135.548 119.103 135.835 119.283 136.136 119.283C136.228 119.283 136.321 119.267 136.412 119.233C137.636 118.759 138.845 118.206 140.003 117.592C140.117 117.531 140.21 117.444 140.277 117.343C140.423 117.122 140.444 116.832 140.31 116.584C140.172 116.334 139.912 116.192 139.643 116.192ZM145.943 111.801C145.762 111.801 145.579 111.864 145.435 111.993C144.502 112.827 143.513 113.61 142.491 114.323C142.149 114.563 142.069 115.026 142.311 115.362C142.459 115.566 142.691 115.676 142.928 115.676C143.079 115.676 143.233 115.632 143.364 115.539C144.436 114.79 145.475 113.97 146.451 113.097C146.499 113.052 146.542 113.002 146.576 112.95C146.758 112.674 146.738 112.299 146.502 112.044C146.353 111.883 146.148 111.801 145.943 111.801ZM150.977 106.037C150.733 106.037 150.494 106.153 150.348 106.369C149.65 107.398 148.882 108.394 148.065 109.329C147.797 109.641 147.829 110.11 148.145 110.378C148.287 110.5 148.464 110.558 148.638 110.558C148.85 110.558 149.061 110.471 149.212 110.299C150.068 109.319 150.872 108.276 151.605 107.196L151.611 107.188C151.836 106.847 151.741 106.389 151.396 106.164C151.268 106.078 151.122 106.037 150.977 106.037ZM154.47 99.2525C154.161 99.2525 153.871 99.442 153.759 99.7419C153.329 100.904 152.823 102.053 152.255 103.156C152.066 103.523 152.215 103.971 152.587 104.156C152.698 104.211 152.815 104.238 152.928 104.238C153.179 104.238 153.42 104.115 153.563 103.898C153.578 103.876 153.59 103.854 153.603 103.829C154.199 102.673 154.73 101.469 155.179 100.252C155.321 99.865 155.119 99.4388 154.727 99.2983C154.642 99.2668 154.555 99.2525 154.47 99.2525ZM156.203 91.8405C155.821 91.8405 155.493 92.1251 155.451 92.5076C155.321 93.7369 155.111 94.9711 154.829 96.1764C154.736 96.5769 154.989 96.9769 155.397 97.0691C155.454 97.082 155.51 97.0882 155.566 97.0882C155.823 97.0882 156.062 96.9584 156.199 96.7493C156.248 96.6782 156.283 96.598 156.304 96.5107C156.598 95.2468 156.818 93.9519 156.954 92.6625C156.999 92.2535 156.696 91.8874 156.281 91.8445C156.256 91.8418 156.23 91.8405 156.203 91.8405ZM156.281 86.1414C156.26 86.1414 156.241 86.1422 156.222 86.1436C155.807 86.1766 155.494 86.534 155.526 86.9441C155.573 87.5397 155.603 88.15 155.614 88.7582C155.622 89.1645 155.959 89.4886 156.371 89.4888C156.376 89.4888 156.381 89.4886 156.385 89.4886C156.645 89.4834 156.873 89.3495 157.006 89.1492C157.084 89.0288 157.129 88.8846 157.127 88.7301C157.115 88.093 157.084 87.4533 157.034 86.8285C157.002 86.4383 156.672 86.1414 156.281 86.1414ZM147.417 66.7167C147.228 66.7167 147.037 66.7863 146.891 66.9262C146.589 67.2114 146.584 67.6836 146.874 67.9791C147.299 68.4123 147.717 68.864 148.116 69.3218C148.265 69.4934 148.476 69.5815 148.69 69.5815C148.864 69.5815 149.039 69.5225 149.182 69.4022C149.238 69.3544 149.284 69.3004 149.323 69.2423C149.501 68.9722 149.486 68.6088 149.263 68.3518C148.845 67.8721 148.406 67.3982 147.96 66.9436C147.811 66.7926 147.614 66.7167 147.417 66.7167ZM134.183 58.6223C133.862 58.6223 133.566 58.8249 133.463 59.1396C133.335 59.5314 133.553 59.95 133.952 60.0758C135.165 60.4591 136.367 60.9216 137.527 61.45C137.63 61.4968 137.737 61.5189 137.843 61.5189C138.095 61.5189 138.335 61.3953 138.478 61.1808C138.497 61.1513 138.515 61.1199 138.531 61.0874C138.705 60.7137 138.54 60.2712 138.162 60.0985C136.946 59.5441 135.684 59.0595 134.413 58.6579C134.337 58.6338 134.26 58.6223 134.183 58.6223Z" fill="#FA541C" />
    <path fill-rule="evenodd" clip-rule="evenodd" d="M248.029 383.963C248.009 383.8 247.909 383.65 247.749 383.57C243.457 381.426 238.825 380.338 233.981 380.338C233.694 380.338 233.462 380.567 233.462 380.85C233.462 380.871 233.463 380.891 233.465 380.912C233.495 381.167 233.714 381.364 233.981 381.364C238.661 381.364 243.135 382.414 247.28 384.485C247.355 384.523 247.435 384.54 247.514 384.54C247.703 384.54 247.885 384.438 247.977 384.259C248.026 384.165 248.042 384.061 248.029 383.963ZM204.811 414.277C205.934 422.4 210.509 429.733 217.522 434.4C217.649 434.485 217.727 434.616 217.746 434.756C217.764 434.878 217.737 435.006 217.662 435.115C217.562 435.26 217.399 435.339 217.232 435.339C217.131 435.339 217.03 435.311 216.942 435.252C209.68 430.419 204.944 422.825 203.784 414.415C203.6 413.08 203.505 411.724 203.505 410.355C203.505 399.283 209.662 389.145 219.571 383.898C219.65 383.857 219.735 383.836 219.818 383.836C220.002 383.836 220.18 383.934 220.275 384.106C220.306 384.162 220.324 384.221 220.333 384.28C220.363 384.486 220.262 384.699 220.064 384.803C210.49 389.871 204.543 399.665 204.543 410.36C204.543 411.68 204.634 412.989 204.811 414.277ZM228.011 449.767C229.96 450.051 231.952 450.198 233.981 450.198C256.318 450.198 274.425 432.362 274.425 410.36C274.425 391.759 261.482 376.135 243.981 371.751C240.783 370.949 237.433 370.523 233.981 370.523C211.644 370.523 193.538 388.359 193.538 410.36C193.538 430.363 208.506 446.924 228.011 449.767Z" fill="#FA541C" />
    <path fill-rule="evenodd" clip-rule="evenodd" d="M84.6721 78.9855C84.5418 78.7003 84.5235 78.3654 84.6485 78.051C84.84 77.5747 85.3002 77.285 85.7882 77.285C85.9369 77.285 86.088 77.3119 86.2352 77.3685C86.2438 77.372 86.2525 77.3753 86.2613 77.3786C85.725 77.9157 85.1958 78.4508 84.6721 78.9855Z" fill="#FDAB76" />
    <path fill-rule="evenodd" clip-rule="evenodd" d="M112.284 141.971C111.962 141.226 111.649 140.482 111.351 139.742C111.773 138.741 112.162 137.72 112.51 136.699C112.678 136.194 113.157 135.875 113.67 135.875C113.798 135.875 113.93 135.895 114.058 135.938C114.699 136.149 115.045 136.833 114.83 137.464C114.398 138.737 113.904 140.007 113.364 141.243C113.335 141.307 113.303 141.368 113.265 141.423C113.045 141.756 112.675 141.957 112.284 141.971ZM115.308 132.086C115.233 132.086 115.157 132.08 115.08 132.066C114.415 131.942 113.978 131.313 114.103 130.659C114.342 129.404 114.529 128.125 114.66 126.856C114.725 126.234 115.255 125.772 115.875 125.772C115.917 125.772 115.959 125.773 116.002 125.778C116.673 125.846 117.164 126.436 117.095 127.099C116.957 128.435 116.76 129.783 116.508 131.103C116.478 131.264 116.417 131.409 116.334 131.538C116.111 131.875 115.726 132.086 115.308 132.086Z" fill="#FDAB76" />
    <path fill-rule="evenodd" clip-rule="evenodd" d="M36.4444 158.229C36.1517 158.229 35.8581 158.125 35.624 157.916C35.1312 157.477 34.6395 157.021 34.1626 156.56C33.6807 156.093 33.6715 155.332 34.147 154.855C34.3868 154.615 34.7033 154.494 35.0203 154.494C35.3298 154.494 35.6395 154.609 35.8778 154.84C36.3306 155.278 36.7979 155.711 37.2659 156.128C37.718 156.53 37.7939 157.19 37.472 157.678C37.437 157.732 37.3974 157.782 37.3529 157.831C37.1112 158.095 36.7785 158.229 36.4444 158.229Z" fill="#FDAB76" />
    <path fill-rule="evenodd" clip-rule="evenodd" d="M21.3124 116.409C21.2515 116.409 21.19 116.404 21.1281 116.395C20.4596 116.295 19.9995 115.681 20.1002 115.023C20.3069 113.675 20.5765 112.316 20.901 110.987C21.0359 110.434 21.5372 110.063 22.0898 110.063C22.1847 110.063 22.281 110.074 22.3773 110.096C23.0341 110.253 23.4389 110.903 23.2807 111.55C22.9727 112.813 22.7171 114.103 22.5209 115.383C22.4942 115.558 22.4299 115.719 22.3377 115.86C22.1163 116.194 21.7324 116.409 21.3124 116.409Z" fill="#FDAB76" />
    <path fill-rule="evenodd" clip-rule="evenodd" d="M24.0809 106.264C23.9315 106.264 23.7798 106.237 23.6325 106.18C23.0038 105.935 22.695 105.236 22.9427 104.616C23.4509 103.348 24.0213 102.084 24.6373 100.859C24.849 100.434 25.2827 100.189 25.7333 100.189C25.9165 100.189 26.1026 100.229 26.2777 100.316C26.8831 100.611 27.1307 101.334 26.8305 101.93C26.2447 103.094 25.7027 104.295 25.2202 105.501C25.1894 105.579 25.1511 105.65 25.107 105.716C24.8796 106.062 24.4896 106.264 24.0809 106.264Z" fill="#FDAB76" />
    <path fill-rule="evenodd" clip-rule="evenodd" d="M29.0683 96.9769C28.8313 96.9769 28.5919 96.9092 28.381 96.7679C27.8295 96.3984 27.6811 95.6631 28.0428 95.1147L28.0574 95.0935C28.8372 93.9633 29.6755 92.8542 30.5485 91.7964C30.7906 91.5033 31.1434 91.3512 31.4992 91.3512C31.7706 91.3512 32.0436 91.4396 32.2707 91.6215C32.7604 92.0136 32.862 92.7023 32.5255 93.2125C32.5019 93.2482 32.476 93.2832 32.4484 93.3173C31.6189 94.3222 30.8224 95.3756 30.0813 96.4489C29.8446 96.7921 29.4598 96.9769 29.0683 96.9769Z" fill="#FDAB76" />
    <path fill-rule="evenodd" clip-rule="evenodd" d="M36.0145 89.0128C35.6861 89.0128 35.3585 88.8833 35.1175 88.6276C34.6572 88.1395 34.6885 87.3789 35.1816 86.9237C36.1967 85.9952 37.2655 85.0987 38.358 84.2595C38.5814 84.0878 38.8466 84.0044 39.1098 84.0044C39.474 84.0044 39.8343 84.1639 40.0756 84.4685C40.4056 84.8849 40.414 85.4479 40.1372 85.8671C40.0652 85.9764 39.9734 86.0757 39.8633 86.1604C38.8261 86.9575 37.8112 87.8086 36.8473 88.6906C36.6116 88.9061 36.3127 89.0128 36.0145 89.0128Z" fill="#FDAB76" />
    <path fill-rule="evenodd" clip-rule="evenodd" d="M98.4921 86.9709C98.2213 86.9709 97.9488 86.8828 97.7213 86.7021C96.7012 85.8882 95.6297 85.1057 94.5364 84.3764C93.9833 84.0075 93.8341 83.2711 94.1965 82.7219L94.2095 82.702C94.446 82.358 94.8314 82.1725 95.2238 82.1725C95.4601 82.1725 95.6989 82.24 95.9094 82.3803C97.0594 83.1479 98.1876 83.9715 99.263 84.8285C99.7534 85.2203 99.8559 85.9101 99.5194 86.4209C99.4953 86.4561 99.4713 86.4906 99.4441 86.5237C99.2021 86.8181 98.8479 86.9709 98.4921 86.9709Z" fill="#FDAB76" />
    <path fill-rule="evenodd" clip-rule="evenodd" d="M44.5881 82.7823C44.1648 82.7823 43.7533 82.5659 43.5268 82.1789C43.189 81.6021 43.3896 80.8649 43.9754 80.5322C45.1756 79.8501 46.4207 79.2108 47.6752 78.6316C47.8431 78.5542 48.0197 78.5174 48.1936 78.5174C48.6537 78.5174 49.0945 78.7743 49.3028 79.2119C49.4892 79.6035 49.4429 80.0434 49.2201 80.3813C49.0998 80.5634 48.9284 80.7161 48.7137 80.8151C47.5217 81.3652 46.3392 81.9728 45.1985 82.6208C45.0059 82.7302 44.7956 82.7823 44.5881 82.7823Z" fill="#FDAB76" />
    <path fill-rule="evenodd" clip-rule="evenodd" d="M89.509 81.312C89.3271 81.312 89.1424 81.2717 88.9682 81.1871C87.7852 80.6117 86.5656 80.0808 85.3428 79.6087C85.0329 79.489 84.8002 79.2582 84.6734 78.9809C85.1972 78.4462 85.7263 77.9111 86.2626 77.3741C87.5402 77.8683 88.815 78.4236 90.0518 79.0248C90.6577 79.3195 90.9066 80.0426 90.6074 80.6396C90.5854 80.6831 90.5616 80.7246 90.5354 80.764C90.3053 81.1127 89.9141 81.312 89.509 81.312Z" fill="#FDAB76" />
    <path fill-rule="evenodd" clip-rule="evenodd" d="M54.3575 78.5812C53.8348 78.5812 53.3509 78.2489 53.1884 77.7313C52.9886 77.0948 53.3506 76.4198 53.9966 76.2236C55.3225 75.8198 56.6802 75.4676 58.0314 75.1768C58.1195 75.1577 58.2075 75.1486 58.2942 75.1486C58.8567 75.1486 59.3633 75.5331 59.4881 76.097C59.5611 76.4245 59.491 76.7505 59.3189 77.0113C59.1495 77.2681 58.8817 77.4617 58.554 77.5321C57.27 77.8086 55.9797 78.1432 54.7194 78.5272C54.599 78.5638 54.4772 78.5812 54.3575 78.5812Z" fill="#FDAB76" />
    <path fill-rule="evenodd" clip-rule="evenodd" d="M79.4858 77.7453C79.3919 77.7453 79.2964 77.7346 79.2009 77.7122C77.9209 77.4115 76.6122 77.1621 75.3101 76.9707C74.6418 76.8727 74.1804 76.259 74.2803 75.6005C74.3714 75.0027 74.8936 74.5727 75.4899 74.5727C75.5498 74.5727 75.6103 74.577 75.6713 74.586C77.0425 74.7874 78.4211 75.0503 79.7689 75.3668C80.4262 75.5213 80.832 76.1715 80.6756 76.8194C80.6421 76.9573 80.5859 77.0842 80.5115 77.1966C80.2879 77.5354 79.9016 77.7453 79.4858 77.7453Z" fill="#FDAB76" />
    <path fill-rule="evenodd" clip-rule="evenodd" d="M64.8308 76.6098C64.1974 76.6098 63.661 76.1292 63.6115 75.4969C63.5601 74.8332 64.0644 74.254 64.7377 74.2022C65.9848 74.1076 67.2499 74.0598 68.504 74.0598C68.6394 74.0598 68.7743 74.0603 68.9094 74.0615C69.5854 74.0672 70.1289 74.6115 70.1228 75.2774C70.1207 75.5154 70.0489 75.7369 69.9261 75.923C69.7075 76.2543 69.3285 76.4728 68.8988 76.4728C68.8955 76.4728 68.8923 76.4728 68.8889 76.4728C68.7559 76.4717 68.6226 76.4711 68.4892 76.4711C67.3022 76.4711 66.1056 76.5167 64.926 76.6062C64.8941 76.6086 64.8623 76.6098 64.8308 76.6098Z" fill="#FDAB76" />
    <path fill-rule="evenodd" clip-rule="evenodd" d="M20.8019 124.859C20.1444 124.859 19.6005 124.344 19.5798 123.692C19.5591 123.037 19.5516 122.373 19.5578 121.716C19.563 121.053 20.1104 120.521 20.7809 120.521C20.7849 120.521 20.789 120.521 20.793 120.521C21.4688 120.527 22.0118 121.072 22.0053 121.738C21.9997 122.363 22.0065 122.995 22.0267 123.617C22.0348 123.872 21.9614 124.111 21.83 124.31C21.6191 124.63 21.2579 124.846 20.8412 124.859C20.8281 124.859 20.8151 124.859 20.8019 124.859Z" fill="#FDAB76" />
    <path fill-rule="evenodd" clip-rule="evenodd" d="M71.4147 170.288C70.7738 170.288 70.2357 169.797 70.1945 169.158C70.1517 168.493 70.664 167.92 71.3384 167.879C72.6298 167.799 73.9351 167.663 75.2187 167.475C75.2794 167.467 75.3397 167.463 75.3991 167.463C75.9959 167.463 76.5186 167.894 76.6083 168.492C76.6538 168.795 76.581 169.087 76.4242 169.325C76.2397 169.605 75.9384 169.808 75.5769 169.861C74.2263 170.058 72.8522 170.2 71.4932 170.285C71.4669 170.287 71.4407 170.288 71.4147 170.288ZM64.9126 170.255C64.8825 170.255 64.852 170.254 64.8216 170.25C63.4601 170.153 62.0872 169.995 60.7411 169.783C60.0735 169.679 59.6187 169.06 59.7252 168.404C59.8212 167.81 60.3418 167.387 60.9328 167.387C60.9969 167.387 61.0617 167.392 61.1269 167.403C62.4048 167.603 63.7084 167.753 65.0017 167.846C65.6759 167.895 66.1818 168.473 66.1322 169.138C66.1163 169.348 66.0472 169.54 65.9384 169.704C65.7189 170.037 65.3378 170.255 64.9126 170.255ZM81.7512 168.508C81.2205 168.508 80.7318 168.167 80.5762 167.639C80.3874 166.999 80.7608 166.329 81.4102 166.145C82.653 165.789 83.8973 165.376 85.1076 164.92C85.2518 164.864 85.3999 164.839 85.5458 164.839C86.0379 164.839 86.5019 165.134 86.6887 165.613C86.8344 165.988 86.7778 166.391 86.5716 166.703C86.4357 166.909 86.2349 167.076 85.9842 167.171C84.7105 167.652 83.4015 168.086 82.0932 168.46C81.9793 168.492 81.8642 168.508 81.7512 168.508ZM54.594 168.356C54.4757 168.356 54.3555 168.339 54.2364 168.302C52.9338 167.913 51.6311 167.461 50.3636 166.962C49.736 166.714 49.4302 166.014 49.6813 165.395C49.8724 164.924 50.3328 164.637 50.8192 164.637C50.97 164.637 51.1234 164.664 51.2719 164.722C52.476 165.197 53.7132 165.625 54.9504 165.996C55.5969 166.19 55.9613 166.864 55.7642 167.502C55.7299 167.613 55.6809 167.715 55.62 167.807C55.3948 168.149 55.0065 168.356 54.594 168.356ZM91.4435 164.557C91.0115 164.557 90.5929 164.331 90.3701 163.931C90.0441 163.347 90.2608 162.615 90.8533 162.294C91.9902 161.679 93.1125 161.009 94.1886 160.304C94.397 160.168 94.6323 160.103 94.865 160.103C95.2613 160.103 95.6499 160.291 95.8857 160.642C96.1644 161.055 96.1504 161.575 95.8924 161.966C95.8043 162.1 95.6871 162.219 95.5437 162.312C94.4103 163.055 93.2288 163.759 92.0319 164.407C91.8448 164.508 91.6427 164.557 91.4435 164.557ZM44.9563 164.274C44.752 164.274 44.5448 164.223 44.3544 164.118C43.4813 163.63 42.6124 163.111 41.7726 162.572C41.4684 162.378 41.1674 162.181 40.869 161.98C40.3107 161.606 40.1506 160.856 40.5469 160.305C40.7836 159.963 41.1681 159.778 41.5593 159.778C41.7966 159.778 42.0364 159.846 42.2474 159.988C42.5308 160.178 42.8173 160.367 43.1064 160.552C43.905 161.063 44.7304 161.556 45.5605 162.02C46.1487 162.348 46.3554 163.084 46.0222 163.663C46.0097 163.684 45.9968 163.706 45.983 163.726C45.7511 164.078 45.3591 164.274 44.9563 164.274ZM100.019 158.616C99.6795 158.616 99.343 158.477 99.101 158.209C98.6539 157.71 98.7019 156.948 99.2068 156.507C100.18 155.661 101.125 154.765 102.018 153.844C102.258 153.595 102.58 153.47 102.902 153.47C103.207 153.47 103.511 153.581 103.749 153.805C104.181 154.21 104.244 154.855 103.93 155.331C103.89 155.394 103.842 155.453 103.789 155.508C102.848 156.479 101.853 157.423 100.829 158.313C100.596 158.515 100.306 158.616 100.019 158.616ZM107.06 150.959C106.811 150.959 106.561 150.884 106.343 150.73C105.797 150.34 105.673 149.587 106.068 149.047C106.821 148.019 107.542 146.944 108.218 145.839C108.446 145.464 108.851 145.255 109.268 145.255C109.483 145.255 109.701 145.312 109.899 145.429C110.478 145.773 110.664 146.513 110.314 147.083C110.021 147.563 109.722 148.035 109.415 148.499C108.978 149.164 108.52 149.822 108.053 150.458C107.814 150.785 107.439 150.959 107.06 150.959ZM112.239 141.969C112.077 141.969 111.914 141.937 111.755 141.871C111.135 141.607 110.848 140.898 111.116 140.286C111.196 140.104 111.274 139.923 111.351 139.74C111.649 140.48 111.962 141.223 112.284 141.969C112.27 141.969 112.255 141.969 112.239 141.969Z" fill="#FDAB76" />
    <path fill-rule="evenodd" clip-rule="evenodd" d="M116.085 121.745C115.429 121.745 114.887 121.234 114.863 120.583C114.839 119.965 114.804 119.333 114.754 118.708C114.701 118.044 115.206 117.466 115.879 117.414C115.911 117.411 115.943 117.41 115.976 117.41C116.609 117.41 117.144 117.89 117.195 118.522C117.246 119.18 117.285 119.843 117.309 120.495C117.319 120.752 117.245 120.994 117.112 121.196C116.903 121.513 116.544 121.729 116.131 121.744C116.115 121.745 116.101 121.745 116.085 121.745Z" fill="#FDAB76" />
    <path fill-rule="evenodd" clip-rule="evenodd" d="M101.762 107.115C101.688 106.886 101.474 106.728 101.23 106.723L94.2697 106.572C92.5976 103.825 90.4689 101.321 87.9214 99.1856L88.9147 92.402C88.9495 92.1639 88.8272 91.9304 88.6102 91.8204L81.1848 88.0563C80.9678 87.9461 80.7039 87.9839 80.5276 88.1501L75.5008 92.8886C72.2549 92.0885 68.9492 91.8372 65.7082 92.0932L61.5384 86.6015C61.3922 86.4089 61.138 86.329 60.9058 86.4024L52.9528 88.9124C52.7206 88.9858 52.5608 89.1964 52.5556 89.4366L52.4027 96.2928C49.6141 97.9398 47.0722 100.036 44.9029 102.546L38.0165 101.568C37.7748 101.533 37.5378 101.653 37.4261 101.868L33.6045 109.181C33.4928 109.396 33.5311 109.655 33.6999 109.828L38.5106 114.78C37.6982 117.977 37.4431 121.234 37.703 124.425L32.1277 128.533C31.9323 128.677 31.8509 128.928 31.9256 129.156L34.4738 136.989C34.5481 137.218 34.7621 137.376 35.0058 137.381L41.9666 137.532C43.6386 140.279 45.7674 142.783 48.3149 144.918L47.3216 151.702C47.2866 151.94 47.4089 152.174 47.6259 152.284L55.0515 156.047C55.2685 156.158 55.5324 156.12 55.7087 155.954L60.7355 151.215C63.9814 152.016 67.2873 152.267 70.5282 152.011L74.6979 157.503C74.8441 157.695 75.0981 157.776 75.3306 157.702L83.2834 155.192C83.5158 155.119 83.6753 154.908 83.6807 154.668L83.8336 147.812C86.6221 146.164 89.1639 144.068 91.3335 141.558L98.2203 142.536C98.4606 142.571 98.6978 142.451 98.81 142.236L102.632 134.923C102.743 134.708 102.706 134.449 102.536 134.276L97.725 129.324C98.5376 126.127 98.7924 122.871 98.5328 119.679L104.108 115.571C104.304 115.428 104.386 115.177 104.31 114.948L101.762 107.115Z" fill="#FDAB76" />
    <path fill-rule="evenodd" clip-rule="evenodd" d="M74.4143 127.519C71.3532 130.938 66.0386 131.268 62.5662 128.251C60.8841 126.791 59.8804 124.774 59.7398 122.569C59.5989 120.365 60.3376 118.238 61.8211 116.583C64.8824 113.162 70.197 112.833 73.6693 115.849C76.828 118.592 77.3897 123.172 75.16 126.551C74.939 126.886 74.6901 127.21 74.4143 127.519Z" fill="#FEE9D1" />
    <path fill-rule="evenodd" clip-rule="evenodd" d="M85.2331 133.201C85.6161 132.621 85.9716 132.019 86.2977 131.394C86.4003 131.198 86.4996 131.001 86.5959 130.8C87.0701 129.817 87.4641 128.797 87.7716 127.757L87.7844 127.714C87.7961 127.675 87.8078 127.634 87.819 127.594C87.8416 127.515 87.8634 127.437 87.8851 127.358C87.9418 127.151 87.8529 126.939 87.6798 126.829C87.6376 126.802 87.5905 126.781 87.5396 126.767C87.2785 126.698 87.0105 126.851 86.9399 127.108C86.5781 128.431 86.0692 129.725 85.427 130.954C82.2397 137.055 76.195 140.783 69.7238 141.372C66.1245 141.701 62.3931 141.056 58.9476 139.311C58.3433 139.004 57.7591 138.67 57.1974 138.31C53.4149 135.888 50.6165 132.289 49.2215 128C47.6188 123.075 48.0598 117.828 50.4629 113.229C55.4272 103.73 67.3032 99.9852 76.9423 104.871C77.5367 105.172 78.1133 105.502 78.6699 105.859C81.0826 107.404 83.1253 109.452 84.6441 111.862C84.6834 111.924 84.7345 111.974 84.7932 112.012C84.947 112.11 85.1517 112.12 85.318 112.017C85.5475 111.877 85.6191 111.58 85.4759 111.352C83.8813 108.822 81.7368 106.672 79.2039 105.051C78.6196 104.677 78.0144 104.329 77.3907 104.014C67.2705 98.8833 54.7991 102.822 49.5924 112.787C47.0692 117.616 46.6066 123.122 48.289 128.295C49.7533 132.797 52.6914 136.575 56.6622 139.118C57.2521 139.495 57.8654 139.846 58.4992 140.168C63.4018 142.654 68.9931 143.109 74.2433 141.453C78.8152 140.01 82.6521 137.115 85.2331 133.201Z" fill="#FEE9D1" />
    <path fill-rule="evenodd" clip-rule="evenodd" d="M140.558 62.7261C140.531 62.5555 140.563 62.3744 140.663 62.2159C140.796 62.0222 141.017 61.8963 141.249 61.8739C141.017 62.1575 140.789 62.4393 140.558 62.7261Z" fill="#FDAB76" />
    <path fill-rule="evenodd" clip-rule="evenodd" d="M121.576 121.331C121.336 121.31 121.095 121.287 120.856 121.26C120.725 121.246 120.605 121.2 120.504 121.129C120.459 120.766 120.414 120.396 120.374 120.025C120.513 119.871 120.719 119.776 120.94 119.776C120.967 119.776 120.994 119.778 121.023 119.779C121.146 119.793 121.271 119.806 121.395 119.819C121.451 120.33 121.512 120.835 121.576 121.331Z" fill="#FDAB76" />
    <path fill-rule="evenodd" clip-rule="evenodd" d="M128.66 121.18C128.288 121.18 127.963 120.908 127.913 120.534C127.857 120.127 128.149 119.753 128.563 119.697C129.805 119.535 131.051 119.295 132.269 118.985C132.333 118.97 132.396 118.962 132.458 118.962C132.795 118.962 133.103 119.184 133.191 119.521C133.245 119.73 133.204 119.944 133.092 120.112C132.992 120.262 132.838 120.379 132.648 120.427C131.372 120.752 130.064 121.003 128.761 121.173C128.728 121.178 128.694 121.18 128.66 121.18ZM136.136 119.276C135.835 119.276 135.548 119.096 135.433 118.802C135.279 118.42 135.471 117.988 135.861 117.838C137.029 117.388 138.181 116.861 139.286 116.273C139.399 116.213 139.521 116.185 139.643 116.185C139.912 116.185 140.172 116.327 140.31 116.576C140.444 116.824 140.423 117.115 140.278 117.336C140.21 117.437 140.117 117.524 140.004 117.585C138.845 118.199 137.637 118.752 136.412 119.225C136.321 119.26 136.228 119.276 136.136 119.276ZM142.928 115.669C142.691 115.669 142.459 115.558 142.311 115.355C142.069 115.018 142.149 114.556 142.491 114.316C143.513 113.602 144.502 112.819 145.435 111.986C145.579 111.857 145.762 111.793 145.943 111.793C146.148 111.793 146.353 111.875 146.502 112.036C146.738 112.292 146.759 112.666 146.576 112.943C146.542 112.995 146.499 113.045 146.451 113.089C145.475 113.962 144.436 114.783 143.364 115.531C143.233 115.625 143.079 115.669 142.928 115.669ZM148.638 110.551C148.464 110.551 148.287 110.493 148.145 110.371C147.829 110.103 147.797 109.634 148.065 109.321C148.882 108.387 149.65 107.391 150.348 106.362C150.494 106.145 150.733 106.03 150.977 106.03C151.123 106.03 151.268 106.071 151.397 106.156C151.741 106.382 151.836 106.84 151.611 107.181L151.605 107.189C150.873 108.268 150.068 109.312 149.212 110.292C149.062 110.464 148.85 110.551 148.638 110.551ZM152.929 104.23C152.815 104.23 152.698 104.204 152.587 104.148C152.216 103.964 152.066 103.515 152.256 103.149C152.823 102.046 153.329 100.896 153.759 99.7347C153.871 99.4347 154.161 99.2453 154.47 99.2453C154.555 99.2453 154.642 99.2595 154.727 99.2911C155.119 99.4316 155.321 99.8578 155.179 100.245C154.73 101.462 154.2 102.666 153.603 103.822C153.591 103.847 153.578 103.869 153.563 103.891C153.421 104.107 153.179 104.23 152.929 104.23ZM155.567 97.0809C155.51 97.0809 155.454 97.0748 155.397 97.0618C154.99 96.9696 154.736 96.5696 154.829 96.1691C155.111 94.9639 155.321 93.7296 155.451 92.5004C155.493 92.1179 155.821 91.8333 156.203 91.8333C156.23 91.8333 156.256 91.8345 156.281 91.8372C156.696 91.8801 156.999 92.2462 156.954 92.6552C156.818 93.9446 156.599 95.2395 156.304 96.5035C156.283 96.5908 156.248 96.671 156.2 96.742C156.062 96.9512 155.823 97.0809 155.567 97.0809Z" fill="#FDAB76" />
    <path fill-rule="evenodd" clip-rule="evenodd" d="M148.688 69.572C148.475 69.572 148.264 69.4839 148.115 69.3123C147.716 68.8545 147.297 68.4027 146.873 67.9695C146.583 67.674 146.587 67.2019 146.89 66.9166C147.036 66.7768 147.227 66.7071 147.416 66.7071C147.613 66.7071 147.81 66.7831 147.959 66.934C148.405 67.3886 148.844 67.8625 149.262 68.3422C149.485 68.5992 149.499 68.9626 149.322 69.2327C149.283 69.2908 149.237 69.3448 149.18 69.3926C149.038 69.5129 148.863 69.572 148.688 69.572Z" fill="#FDAB76" />
    <path fill-rule="evenodd" clip-rule="evenodd" d="M95.1001 77.8015C95.0017 77.8015 94.9019 77.7824 94.8057 77.7423C94.4211 77.5819 94.2416 77.1453 94.4044 76.7664C94.8549 75.7181 95.3716 74.6759 95.938 73.6719C96.0232 73.5188 96.1106 73.3679 96.1987 73.2168C96.3303 72.9764 96.5853 72.8438 96.8479 72.8438C96.979 72.8438 97.112 72.8768 97.2322 72.9455C97.5928 73.1513 97.7162 73.6066 97.5079 73.963C97.4246 74.1038 97.3428 74.2464 97.2611 74.3924C96.7189 75.3534 96.2261 76.3473 95.7963 77.347C95.7788 77.3882 95.7575 77.4271 95.7338 77.4632C95.5929 77.677 95.3517 77.8015 95.1001 77.8015ZM99.0192 71.1031C98.8621 71.1031 98.7018 71.0543 98.5656 70.953C98.2323 70.7058 98.1698 70.2431 98.4166 69.9099C99.2243 68.8549 100.104 67.8415 101.032 66.898C101.181 66.7472 101.378 66.6714 101.575 66.6714C101.764 66.6714 101.955 66.7412 102.101 66.8812C102.365 67.1329 102.402 67.5283 102.21 67.821C102.183 67.8606 102.152 67.8985 102.119 67.9338C101.234 68.8335 100.394 69.8 99.6249 70.807C99.4759 71.0008 99.2483 71.1031 99.0192 71.1031Z" fill="#FDAB76" />
    <path fill-rule="evenodd" clip-rule="evenodd" d="M144.513 65.5859C144.346 65.5859 144.18 65.5319 144.039 65.4211C143.218 64.7703 142.354 64.1534 141.471 63.5881C141.285 63.4687 141.096 63.3513 140.906 63.2351C140.712 63.1165 140.592 62.9258 140.558 62.72C140.789 62.4332 141.016 62.1514 141.249 61.8677C141.274 61.8654 141.298 61.8641 141.324 61.8641C141.454 61.8641 141.585 61.8973 141.704 61.9697C141.902 62.0914 142.1 62.2145 142.295 62.3393C143.221 62.932 144.127 63.5787 144.987 64.2615C145.292 64.5028 145.356 64.93 145.148 65.2464C145.133 65.2675 145.119 65.288 145.103 65.3085C144.952 65.4909 144.734 65.5859 144.513 65.5859Z" fill="#FDAB76" />
    <path fill-rule="evenodd" clip-rule="evenodd" d="M104.481 65.5509C104.26 65.5509 104.041 65.4559 103.892 65.2731C103.63 64.9525 103.682 64.4854 104.007 64.2259C105.047 63.4012 106.153 62.632 107.291 61.9393C107.416 61.8641 107.552 61.8283 107.688 61.8283C107.942 61.8283 108.188 61.9537 108.331 62.1814C108.49 62.4346 108.477 62.745 108.323 62.9788C108.264 63.0683 108.185 63.1469 108.086 63.2066C107.001 63.8667 105.948 64.6 104.954 65.3866C104.815 65.4971 104.648 65.5509 104.481 65.5509Z" fill="#FDAB76" />
    <path fill-rule="evenodd" clip-rule="evenodd" d="M137.844 61.5092C137.738 61.5092 137.63 61.4871 137.528 61.4402C136.368 60.9119 135.166 60.4494 133.952 60.0661C133.553 59.9403 133.335 59.5216 133.464 59.1298C133.566 58.8152 133.863 58.6125 134.183 58.6125C134.26 58.6125 134.337 58.6241 134.414 58.6482C135.685 59.0498 136.946 59.5344 138.163 60.0888C138.541 60.2615 138.706 60.704 138.531 61.0776C138.515 61.1101 138.498 61.1416 138.478 61.1711C138.336 61.3856 138.095 61.5092 137.844 61.5092Z" fill="#FDAB76" />
    <path fill-rule="evenodd" clip-rule="evenodd" d="M111.154 61.4921C110.868 61.4921 110.594 61.331 110.466 61.0577C110.293 60.6837 110.458 60.2414 110.838 60.0705C112.053 59.5218 113.316 59.0412 114.591 58.6417C114.667 58.6179 114.744 58.6067 114.819 58.6067C115.141 58.6067 115.437 58.8089 115.54 59.1255C115.611 59.347 115.572 59.577 115.453 59.7574C115.362 59.8968 115.221 60.0069 115.048 60.0613C113.832 60.4422 112.628 60.9008 111.468 61.4243C111.367 61.4703 111.259 61.4921 111.154 61.4921ZM125.731 57.7577C125.784 57.5402 125.931 57.3621 126.125 57.265C125.994 57.429 125.862 57.5929 125.731 57.7577Z" fill="#FDAB76" />
    <path fill-rule="evenodd" clip-rule="evenodd" d="M130.369 59.1533C130.323 59.1533 130.276 59.1492 130.228 59.1405C128.975 58.9083 127.693 58.7515 126.419 58.6739C126.002 58.6484 125.685 58.2952 125.71 57.8849C125.714 57.8416 125.72 57.7993 125.73 57.7586C125.861 57.5938 125.993 57.4299 126.124 57.2659C126.226 57.2146 126.342 57.1859 126.464 57.1859C126.48 57.1859 126.496 57.1864 126.512 57.1875C127.848 57.2684 129.193 57.4336 130.507 57.6767C130.917 57.7528 131.188 58.1419 131.111 58.5461C131.092 58.6443 131.055 58.7348 131.002 58.814C130.864 59.0223 130.627 59.1533 130.369 59.1533Z" fill="#FDAB76" />
    <path fill-rule="evenodd" clip-rule="evenodd" d="M118.631 59.1499C118.275 59.1499 117.958 58.9002 117.889 58.5425C117.814 58.1393 118.083 57.7494 118.493 57.6733C119.806 57.4309 121.15 57.2667 122.487 57.1848C122.503 57.1838 122.519 57.1833 122.535 57.1833C122.931 57.1833 123.264 57.4875 123.288 57.8822C123.298 58.0476 123.253 58.2039 123.168 58.3332C123.042 58.5243 122.83 58.6562 122.58 58.6713C121.306 58.7491 120.024 58.9057 118.772 59.1372C118.726 59.1458 118.678 59.1499 118.631 59.1499Z" fill="#FDAB76" />
    <path fill-rule="evenodd" clip-rule="evenodd" d="M124.454 121.453C123.494 121.453 122.531 121.412 121.577 121.328C121.513 120.832 121.452 120.327 121.396 119.816C122.404 119.914 123.425 119.964 124.441 119.964C124.56 119.964 124.677 119.963 124.795 119.961C124.798 119.961 124.803 119.961 124.803 119.961C125.218 119.961 125.555 120.289 125.56 120.698C125.561 120.851 125.516 120.993 125.438 121.112C125.305 121.314 125.076 121.448 124.813 121.451C124.693 121.453 124.572 121.453 124.454 121.453ZM120.505 121.126C120.287 120.975 120.157 120.714 120.189 120.435C120.207 120.275 120.274 120.135 120.375 120.023C120.415 120.394 120.46 120.763 120.505 121.126Z" fill="#FDAB76" />
    <path fill-rule="evenodd" clip-rule="evenodd" d="M156.37 89.4812C155.958 89.4811 155.621 89.157 155.613 88.7507C155.602 88.1424 155.572 87.5322 155.525 86.9366C155.493 86.5265 155.806 86.1691 156.221 86.1361C156.24 86.1347 156.259 86.1339 156.28 86.1339C156.671 86.1339 157.001 86.4308 157.033 86.821C157.083 87.4458 157.113 88.0855 157.126 88.7226C157.128 88.8771 157.083 89.0212 157.004 89.1417C156.871 89.342 156.644 89.4759 156.384 89.4811C156.379 89.4811 156.375 89.4812 156.37 89.4812Z" fill="#FDAB76" />
    <path fill-rule="evenodd" clip-rule="evenodd" d="M146.769 79.1824C146.718 79.0292 146.575 78.9241 146.412 78.9205L141.754 78.8198C140.636 76.9818 139.211 75.3065 137.506 73.8766L138.171 69.3376C138.195 69.1783 138.113 69.0222 137.968 68.9485L132.999 66.4297C132.854 66.356 132.677 66.3812 132.559 66.4923L129.195 69.6632C127.023 69.1278 124.812 68.9597 122.642 69.1309L119.852 65.4562C119.754 65.3274 119.584 65.2738 119.428 65.3229L114.108 67.0025C113.952 67.0515 113.845 67.1924 113.842 67.3533L113.739 71.9411C111.874 73.0431 110.172 74.4463 108.72 76.1254L104.112 75.4707C103.95 75.4478 103.792 75.5283 103.718 75.6713L101.16 80.5657C101.085 80.7087 101.111 80.8825 101.224 80.9988L104.442 84.3121C103.899 86.4515 103.729 88.6304 103.902 90.7666L100.171 93.5149C100.042 93.6113 99.9872 93.7788 100.037 93.9319L101.742 99.1742C101.792 99.3273 101.934 99.4315 102.098 99.4363L106.755 99.5357C107.875 101.375 109.298 103.05 111.004 104.48L110.338 109.018C110.316 109.178 110.398 109.334 110.542 109.408L115.512 111.926C115.656 112 115.834 111.975 115.951 111.864L119.315 108.693C121.486 109.228 123.699 109.397 125.868 109.225L128.658 112.9C128.756 113.029 128.926 113.083 129.081 113.033L134.403 111.353C134.559 111.304 134.665 111.163 134.669 111.002L134.772 106.415C136.637 105.313 138.338 103.91 139.79 102.23L144.397 102.885C144.559 102.909 144.718 102.829 144.793 102.685L147.349 97.7906C147.425 97.6476 147.399 97.4736 147.287 97.3574L144.067 94.0442C144.61 91.9047 144.782 89.7258 144.607 87.5897L148.338 84.8412C148.469 84.7449 148.524 84.5775 148.474 84.4243L146.769 79.1824Z" fill="#FDAB76" />
    <path fill-rule="evenodd" clip-rule="evenodd" d="M128.545 92.91C127.536 94.0389 126.14 94.7124 124.616 94.8068C123.091 94.9013 121.62 94.4055 120.474 93.4102C118.111 91.3566 117.883 87.7966 119.966 85.4605C122.053 83.1313 125.673 82.9072 128.037 84.9607C129.183 85.9556 129.867 87.3303 129.963 88.8317C130.04 90.0523 129.723 91.2378 129.058 92.2451C128.906 92.4765 128.734 92.6989 128.545 92.91Z" fill="#FEE9D1" />
    <path fill-rule="evenodd" clip-rule="evenodd" d="M136.075 96.861C136.335 96.4659 136.577 96.0545 136.801 95.6272C137.245 94.7784 137.602 93.8841 137.862 92.967C137.873 92.9258 137.884 92.8844 137.896 92.8431C137.984 92.5236 137.846 92.1968 137.578 92.0254C137.514 91.9837 137.44 91.9513 137.362 91.9305C136.96 91.8235 136.546 92.0601 136.436 92.456C136.202 93.3146 135.872 94.1518 135.456 94.9451V94.9454C135.434 94.989 135.41 95.0325 135.388 95.0755C134.387 96.944 132.953 98.4964 131.216 99.6377C130.272 100.257 129.237 100.754 128.132 101.114L128.105 101.122C128.078 101.131 128.051 101.139 128.024 101.148C124.786 102.17 121.337 101.889 118.315 100.356C117.924 100.159 117.546 99.9424 117.182 99.7087C114.733 98.1412 112.922 95.8108 112.018 93.0342C110.981 89.8449 111.267 86.449 112.823 83.4717C114.379 80.4967 117.018 78.2916 120.256 77.2692C123.493 76.2475 126.942 76.5285 129.964 78.0611C130.349 78.2558 130.722 78.4695 131.083 78.7001C132.644 79.7005 133.968 81.0258 134.95 82.5864C135.011 82.6826 135.089 82.7605 135.181 82.818C135.418 82.9702 135.734 82.9837 135.99 82.8265C136.344 82.6087 136.455 82.1509 136.234 81.8008C135.134 80.0547 133.655 78.5713 131.908 77.4523C131.504 77.1939 131.086 76.955 130.657 76.7369C127.273 75.0222 123.416 74.7078 119.794 75.8511C116.172 76.9946 113.217 79.4558 111.478 82.7899C109.738 86.1212 109.417 89.9205 110.579 93.4887C111.589 96.595 113.616 99.202 116.355 100.956C116.762 101.216 117.185 101.458 117.623 101.68C124.171 105 132.145 102.817 136.075 96.861Z" fill="#FEE9D1" />
    <path fill-rule="evenodd" clip-rule="evenodd" d="M302.421 147.404L280.438 169.553L306.807 162.615L302.421 147.404Z" fill="#D2FCF4" />
    <path fill-rule="evenodd" clip-rule="evenodd" d="M433.226 156.573L308.315 162.544C305.107 162.697 302.421 160.177 302.421 157.014V106.395C302.421 100.894 306.858 96.3869 312.44 96.2167L425.018 92.7854C433.401 92.7854 440.197 99.4795 440.197 107.737V149.366C440.197 153.214 437.13 156.386 433.226 156.573Z" fill="#D2FCF4" />
    <path fill-rule="evenodd" clip-rule="evenodd" d="M422.947 103.917L323.066 107.598C322.085 107.634 321.312 108.275 321.346 109.025L321.383 109.89C321.415 110.632 322.224 111.202 323.194 111.167L423.078 107.574C424.061 107.54 424.833 106.899 424.802 106.147L424.759 105.194C424.727 104.45 423.918 103.881 422.947 103.917Z" fill="#22B8CF" />
    <path fill-rule="evenodd" clip-rule="evenodd" d="M414.007 128.823L314.126 132.485C313.145 132.521 312.374 133.184 312.408 133.961L312.448 134.856C312.48 135.625 313.291 136.217 314.26 136.182L414.147 132.611C415.127 132.576 415.9 131.915 415.866 131.137L415.823 130.149C415.789 129.378 414.98 128.786 414.007 128.823Z" fill="#22B8CF" />
    <path fill-rule="evenodd" clip-rule="evenodd" d="M425.677 139.244L314.331 143.384C313.238 143.425 312.374 144.098 312.408 144.882L312.448 145.787C312.481 146.563 313.382 147.157 314.464 147.117L425.814 143.07C426.908 143.031 427.772 142.358 427.739 141.574L427.695 140.576C427.661 139.798 426.759 139.204 425.677 139.244Z" fill="#22B8CF" />
    <path fill-rule="evenodd" clip-rule="evenodd" d="M368.183 118.602L313.744 120.165C313.21 120.181 312.81 120.904 312.855 121.775L312.904 122.781C312.947 123.644 313.409 124.328 313.938 124.314L368.382 122.855C368.917 122.841 369.318 122.118 369.275 121.245L369.218 120.135C369.175 119.272 368.714 118.587 368.183 118.602Z" fill="#22B8CF" />
    <path fill-rule="evenodd" clip-rule="evenodd" d="M428.171 116.748L376.714 118.2C376.21 118.214 375.834 118.937 375.878 119.809L375.929 120.814C375.972 121.678 376.411 122.363 376.911 122.349L428.371 121.001C428.878 120.988 429.253 120.265 429.209 119.392L429.153 118.282C429.11 117.419 428.671 116.734 428.171 116.748Z" fill="#22B8CF" />
    <path fill-rule="evenodd" clip-rule="evenodd" d="M112.759 435.764C112.759 435.764 111.73 441.505 111.225 447.188C111.027 449.409 112.765 451.338 115.028 451.431C122.711 451.747 139.148 452.359 145.045 452.1C145.931 452.061 146.512 451.167 146.183 450.354C145.907 449.674 145.377 449.123 144.702 448.818L117.552 436.528L112.759 435.764Z" fill="#22B8CF" />
    <path fill-rule="evenodd" clip-rule="evenodd" d="M111.916 432.389L112.743 439.256C112.743 439.256 117.498 441.438 120.747 438.982L118.777 431.329L111.916 432.389Z" fill="#FDBAB9" />
    <path fill-rule="evenodd" clip-rule="evenodd" d="M112.537 303.275C112.179 305.068 110.618 392.769 120.136 432.069C120.29 432.712 119.96 433.371 119.342 433.621C117.882 434.208 115.019 435.059 111.59 435.174C110.529 435.207 109.575 434.529 109.276 433.525C106.556 424.405 93.5197 378.718 91.8192 335.075C89.9189 286.308 91.8192 333.415 91.8192 333.415L92.9336 303.27L112.537 303.275Z" fill="#212B36" />
    <path fill-rule="evenodd" clip-rule="evenodd" d="M81.5281 438.757C81.5281 438.757 79.8891 441.657 78.3024 449.359C78.016 450.75 79.0025 452.081 80.4366 452.219C82.9737 452.466 86.8796 452.781 90.0082 452.759C91.4506 452.75 92.5762 451.514 92.4023 450.103C92.0559 447.291 90.9762 442.679 87.6408 439.084L81.5281 438.757Z" fill="#22B8CF" />
    <path fill-rule="evenodd" clip-rule="evenodd" d="M80.0877 429.921L82.0206 440.306C82.0206 440.306 83.9319 441.707 87.7125 440.692L86.7899 429.517L80.0877 429.921Z" fill="#FDBAB9" />
    <path fill-rule="evenodd" clip-rule="evenodd" d="M74.8668 305.968C67.0829 352.239 76.5554 420.331 79.7499 433.659C79.9454 434.475 80.614 435.1 81.4536 435.236C82.8796 435.469 85.2273 435.659 87.5419 434.997C88.3392 434.769 88.8995 434.06 88.9321 433.244C89.3606 422.468 88.5893 356.321 95.8421 330.18C96.2095 328.856 97.0317 327.7 98.1679 326.905L112.244 317.048L113.324 301.114L74.8668 305.968Z" fill="#212B36" />
    <path fill-rule="evenodd" clip-rule="evenodd" d="M193.369 184.447C191.079 181.721 188.178 183.01 188.178 183.01C184.746 197.293 166.747 208.874 148.254 214.535C149.462 219.6 152.243 228.169 158.141 234.901C188.829 217.906 193.369 184.447 193.369 184.447Z" fill="#BC675A" />
    <path fill-rule="evenodd" clip-rule="evenodd" d="M192.813 185.141C193.053 185.893 190.276 187.036 188.641 183.965C188.585 182.494 187.676 176.189 188.569 174.989C193.324 168.604 202.542 160.599 202.542 160.599C204.101 162.115 202.818 163.602 202.818 163.602L198.345 168.191C199.281 169.856 200.422 171.261 200.955 173.275C201.361 174.8 201.113 176.431 200.33 177.818C199.547 179.212 198.475 181.023 197.463 182.44C195.547 185.122 192.813 185.141 192.813 185.141Z" fill="#BC675A" />
    <path fill-rule="evenodd" clip-rule="evenodd" d="M196.387 171.168L192.311 174.572L191.032 177.96L194.666 181.931C194.666 181.931 195.888 175.208 196.795 173.753C197.704 172.299 197.233 171.595 196.387 171.168Z" fill="#BC675A" />
    <path fill-rule="evenodd" clip-rule="evenodd" d="M124.465 218.295C101.139 217.914 75.4007 224.326 75.4007 224.326C68.4476 264.29 74.1849 310.386 74.1849 310.386C92.2438 315.05 112.616 307.533 112.616 307.533C115.617 290.829 129.621 243.82 129.621 243.82C141.019 242.426 150.407 239.187 158.139 234.904C152.242 228.172 149.461 219.603 148.253 214.538C140.006 217.063 131.661 218.411 124.465 218.295Z" fill="#116E95" />
    <path fill-rule="evenodd" clip-rule="evenodd" d="M84.3475 246.573L75.4003 224.325C75.4003 224.325 53.6118 238.908 50.0285 257.396C54.1455 257.696 61.637 258.75 68.9698 262.397C70.5812 253.667 84.3475 246.573 84.3475 246.573Z" fill="#116E95" />
    <path fill-rule="evenodd" clip-rule="evenodd" d="M100.45 284.734L113.801 238.809C113.953 238.288 114.404 237.908 114.952 237.845C117.37 237.567 124.38 236.787 132.472 236.113C142.22 235.3 153.541 234.642 160.306 235.202C161.267 235.281 161.849 236.283 161.421 237.136C157.573 244.801 141.751 275.984 133.827 286.199C133.565 286.539 133.157 286.736 132.726 286.731L101.749 286.449C100.847 286.439 100.203 285.588 100.45 284.734Z" fill="#22B8CF" />
    <path fill-rule="evenodd" clip-rule="evenodd" d="M133.857 232.134L143.536 230.546C144.051 230.461 144.474 230.947 144.309 231.435L143.352 234.295C143.269 234.544 143.048 234.724 142.783 234.759L133.469 235.986C132.988 236.049 132.591 235.616 132.701 235.151L133.294 232.653C133.358 232.385 133.579 232.18 133.857 232.134Z" fill="#77F0ED" />
    <path fill-rule="evenodd" clip-rule="evenodd" d="M126.607 240.21L127.406 236.118C127.486 235.708 127.829 235.398 128.25 235.356L147.802 233.402C148.459 233.335 148.986 233.93 148.833 234.563L147.589 239.661C147.49 240.069 147.129 240.365 146.704 240.385L127.6 241.332C126.978 241.364 126.491 240.811 126.607 240.21Z" fill="#77F0ED" />
    <path fill-rule="evenodd" clip-rule="evenodd" d="M103.39 267.506C103.39 267.506 78.926 281.125 70.6717 269.497C68.9579 267.082 68.5483 264.682 68.9704 262.395C61.6376 258.748 54.146 257.694 50.0291 257.394C48.9488 262.968 49.5201 268.897 52.8452 274.888C67.3037 300.939 106.627 273.448 106.627 273.448L103.39 267.506Z" fill="#BC675A" />
    <path fill-rule="evenodd" clip-rule="evenodd" d="M103.674 273.641C103.674 273.641 101.815 266.108 102.565 263.436C103.315 260.763 104.768 257.328 109.613 258.091C114.458 258.855 120.173 260.866 120.173 260.866C120.173 260.866 119.884 264.347 116.203 263.223L118.485 264.964C118.485 264.964 118.16 267.75 115.049 266.261L117.173 268.569C117.173 268.569 115.838 270.858 113.549 269.39C111.261 267.922 110.163 274.549 103.674 273.641Z" fill="#BC675A" />
    <path fill-rule="evenodd" clip-rule="evenodd" d="M100.838 199.636L93.4159 220.778C93.293 221.128 93.439 221.516 93.7683 221.696C95.7915 222.798 103.08 225.982 111.864 220.497C112.779 219.925 113.403 218.992 113.542 217.935L115.946 199.636H100.838Z" fill="#BC675A" />
    <path fill-rule="evenodd" clip-rule="evenodd" d="M116.987 180.058C116.987 180.058 125.138 195.17 124.093 201.276C123.048 207.38 112.947 206.942 104.126 201.983L97.9626 185.665L116.987 180.058Z" fill="#BC675A" />
    <path fill-rule="evenodd" clip-rule="evenodd" d="M104.515 193.965C104.874 193.808 105.006 193.376 104.793 193.052C104.139 192.07 102.914 190.066 102.525 188.31C102.525 188.31 101.059 187.387 106.254 186.162C111.448 184.937 119.194 183.036 120.822 178.681C122.41 174.435 118.239 163.757 111.585 172.266C111.331 172.589 110.836 172.596 110.583 172.272C109.492 170.873 106.624 167.97 102.642 169.73C98.9159 171.377 98.496 174.067 98.5473 175.423C98.5633 175.821 98.2011 176.132 97.8021 176.056C95.9188 175.702 91.398 175.399 89.2878 179.966C87.5498 183.729 88.6795 185.859 89.7082 186.901C90.0417 187.238 89.8956 187.794 89.4385 187.931C88.2005 188.306 86.6015 189.339 86.7615 192.197C86.983 196.146 91.4664 195.799 92.7429 195.619C92.9522 195.589 93.1628 195.66 93.3046 195.813C94.3991 197.007 99.331 202.072 104.668 202.683C105.131 202.737 105.488 202.287 105.338 201.853L103.027 195.24C102.919 194.932 103.068 194.596 103.371 194.464L104.515 193.965Z" fill="#063963" />
    <path fill-rule="evenodd" clip-rule="evenodd" d="M105.446 194.912C105.446 194.912 99.6424 190.991 99.2177 194.293C98.7946 197.596 104.444 199.078 107.242 197.847L105.446 194.912Z" fill="#BC675A" />
</svg>
    