<svg width="89" height="89" viewBox="0 0 89 89" fill="none" xmlns="http://www.w3.org/2000/svg">
    <path opacity="0.08" d="M87.485 21.6216C91.3018 36.4068 77.475 58.6304 61.1996 72.9564C44.8522 87.1905 25.9843 93.7107 13.9578 83.609C1.93126 73.5992 -3.25382 46.9676 2.43536 28.9683C8.05253 10.969 24.544 1.60197 43.4119 0.591805C62.3518 -0.41836 83.7403 6.9283 87.485 21.6216Z" fill="url(#paint0_linear_1_1430)" />
    <g clip-path="url(#clip0_1_1430)">
        <path d="M27.601 25.625H56.9198C59.563 25.625 61.7134 27.7839 61.7134 30.4375V43.257C61.7134 43.7749 62.1332 44.1945 62.6509 44.1945C63.1687 44.1945 63.5884 43.7749 63.5884 43.257V30.4375C63.5884 26.75 60.5969 23.75 56.9198 23.75H27.601C27.0833 23.75 26.6635 24.1696 26.6635 24.6875C26.6635 25.2054 27.0833 25.625 27.601 25.625Z" fill="#FA541C" />
        <path d="M50.4198 54.5695H32.7409C32.4657 54.5695 32.2045 54.6904 32.0264 54.9001L26.7142 61.1527L21.4023 54.9C21.2241 54.6903 20.9629 54.5694 20.6877 54.5694H18.7936C16.1504 54.5694 14 52.4105 14 49.7569V30.4375C14 27.7839 16.1504 25.625 18.7936 25.625H23.2535C23.7712 25.625 24.191 25.2054 24.191 24.6875C24.191 24.1696 23.7712 23.75 23.2535 23.75H18.7936C15.1165 23.75 12.125 26.75 12.125 30.4375V49.757C12.125 53.4445 15.1165 56.4445 18.7936 56.4445H20.2541L25.9999 63.2076C26.178 63.4174 26.4392 63.5382 26.7144 63.5382C26.9895 63.5382 27.2507 63.4174 27.4289 63.2076L33.1746 56.4445H50.4198C50.9375 56.4445 51.3573 56.0249 51.3573 55.507C51.3573 54.9891 50.9375 54.5695 50.4198 54.5695Z" fill="#FA541C" />
        <path d="M39.791 68.4163H31.268C30.7502 68.4163 30.3305 68.8359 30.3305 69.3538C30.3305 69.8717 30.7502 70.2913 31.268 70.2913H39.791C40.982 70.2913 41.951 71.2633 41.951 72.4582C41.951 73.653 40.982 74.6252 39.791 74.6252H16.16C14.969 74.6252 14 73.653 14 72.4582C14 71.2633 14.969 70.2913 16.16 70.2913H16.9894C17.2901 70.2913 17.5726 70.147 17.7489 69.9034L19.378 67.6523L21.0071 69.9034C21.1834 70.1469 21.4659 70.2913 21.7666 70.2913H26.9331C27.4509 70.2913 27.8706 69.8717 27.8706 69.3538C27.8706 68.8359 27.4509 68.4163 26.9331 68.4163H22.2454L20.1375 65.5035C19.9612 65.26 19.6787 65.1157 19.378 65.1157C19.0773 65.1157 18.7948 65.2599 18.6185 65.5035L16.5106 68.4163H16.16C13.9351 68.4163 12.125 70.2295 12.125 72.4582C12.125 74.6869 13.9351 76.5002 16.16 76.5002H39.791C42.0159 76.5002 43.826 74.6869 43.826 72.4582C43.826 70.2295 42.0159 68.4163 39.791 68.4163Z" fill="#FA541C" />
        <path d="M48.4575 20.5839H51.9841C52.5018 20.5839 52.9216 20.1643 52.9216 19.6464C52.9216 19.1285 52.5018 18.7089 51.9841 18.7089H48.4575C47.2665 18.7089 46.2975 17.7369 46.2975 16.542C46.2975 15.3471 47.2665 14.375 48.4575 14.375H72.0885C73.2795 14.375 74.2485 15.347 74.2485 16.5419C74.2485 17.7367 73.2795 18.7089 72.0885 18.7089H71.2591C70.9583 18.7089 70.6758 18.8531 70.4996 19.0967L68.8705 21.3479L67.2413 19.0966C67.0651 18.8531 66.7826 18.7087 66.4818 18.7087H56.3191C55.8013 18.7087 55.3816 19.1284 55.3816 19.6462C55.3816 20.1641 55.8013 20.5837 56.3191 20.5837H66.0031L68.111 23.4965C68.2872 23.74 68.5697 23.8844 68.8705 23.8844C69.1712 23.8844 69.4537 23.7401 69.63 23.4965L71.7378 20.5837H72.0885C74.3133 20.5837 76.1235 18.7705 76.1235 16.5417C76.1235 14.3133 74.3133 12.5 72.0885 12.5H48.4575C46.2326 12.5 44.4225 14.3132 44.4225 16.542C44.4225 18.7706 46.2326 20.5839 48.4575 20.5839Z" fill="#FA541C" />
        <path d="M76.1237 55.6557C76.1235 55.1947 75.7883 54.8024 75.333 54.7302L74.0395 54.525L73.4222 53.0351L74.1914 51.974C74.4619 51.6009 74.421 51.0865 74.0952 50.7607L71.4474 48.1132C71.1212 47.7871 70.6063 47.7465 70.2333 48.0179L69.1744 48.7876L67.6852 48.1709L67.4793 46.8769C67.4069 46.4216 67.0143 46.0867 66.5534 46.0867L62.8099 46.0882C62.3489 46.0884 61.9563 46.4239 61.8843 46.8792L61.6794 48.1739L60.1915 48.7912L59.1317 48.022C58.7583 47.751 58.2434 47.7917 57.9177 48.1182L55.2718 50.7676C54.9462 51.0936 54.9058 51.6081 55.1765 51.9809L55.9462 53.0409L55.3295 54.532L54.0369 54.738C53.5817 54.8105 53.2468 55.2032 53.2469 55.6641L53.2484 59.4097C53.2485 59.8707 53.5839 60.2631 54.0392 60.3352L55.3325 60.5404L55.9499 62.0302L55.1807 63.0914C54.9102 63.4645 54.951 63.9789 55.2768 64.3046L57.9244 66.9522C58.2504 67.2781 58.7653 67.319 59.1385 67.0476L60.1974 66.2779L61.6865 66.8946L61.8924 68.1886C61.9649 68.6439 62.3574 68.9787 62.8183 68.9787L66.5618 68.9771C67.0228 68.9769 67.4153 68.6415 67.4873 68.1862L67.6923 66.8915L69.1803 66.2741L70.2402 67.0435C70.6134 67.3145 71.1283 67.2736 71.4542 66.9472L74.1 64.2979C74.4257 63.9719 74.466 63.4575 74.1954 63.0846L73.4258 62.0245L74.0424 60.5334L75.335 60.3275C75.7903 60.255 76.1253 59.8622 76.125 59.4014L76.1237 55.6557ZM73.2294 58.7644C72.9074 58.8156 72.6352 59.0306 72.5105 59.3319L71.4929 61.7926C71.3684 62.0937 71.4092 62.438 71.6005 62.7016L72.2084 63.5389L70.6937 65.0557L69.8569 64.4484C69.5928 64.2567 69.2482 64.2161 68.9469 64.3411L66.4893 65.3609C66.1882 65.4859 65.9737 65.7582 65.9227 66.0802L65.7608 67.1027L63.6185 67.1036L63.4559 66.082C63.4047 65.7601 63.1899 65.4879 62.8887 65.3631L60.4297 64.3449C60.3142 64.297 60.1924 64.2736 60.071 64.2736C59.8759 64.2736 59.6825 64.3345 59.5197 64.4529L58.6839 65.0604L57.1683 63.5447L57.7759 62.7065C57.9672 62.4426 58.0077 62.0984 57.8829 61.7974L56.864 59.338C56.7392 59.0367 56.4668 58.822 56.1448 58.771L55.1234 58.609L55.1225 56.464L56.1432 56.3012C56.4652 56.25 56.7374 56.035 56.8619 55.7337L57.8795 53.273C58.0042 52.9719 57.9633 52.6276 57.7718 52.364L57.1639 51.5267L58.6787 50.01L59.5154 50.6172C59.7795 50.8091 60.1243 50.8495 60.4254 50.7245L62.883 49.7047C63.1842 49.5797 63.3987 49.3072 63.4497 48.9852L63.6114 47.9629L65.7537 47.9621L65.9162 48.9837C65.9674 49.3056 66.1822 49.5779 66.4834 49.7026L68.9425 50.7209C69.244 50.8456 69.5885 50.8047 69.8524 50.613L70.6882 50.0055L72.2039 51.5211L71.5963 52.3592C71.405 52.6231 71.3645 52.9674 71.4893 53.2684L72.5084 55.7276C72.6333 56.0289 72.9057 56.2436 73.2277 56.2946L74.2492 56.4566L74.25 58.6017L73.2294 58.7644Z" fill="#FA541C" />
        <path d="M68.6665 56.5957C68.1488 56.5957 67.729 57.0153 67.729 57.5332C67.729 59.2111 66.364 60.5761 64.6863 60.5761C63.0085 60.5761 61.6435 59.2111 61.6435 57.5332C61.6435 55.8553 63.0085 54.4903 64.6863 54.4903C65.1257 54.4903 65.5493 54.5817 65.9452 54.762C66.4165 54.9767 66.9724 54.7683 67.1869 54.2971C67.4014 53.8257 67.1933 53.2698 66.722 53.0553C66.0805 52.7633 65.3956 52.6152 64.6863 52.6152C61.9747 52.6152 59.7685 54.8213 59.7685 57.5331C59.7685 60.2448 61.9747 62.451 64.6863 62.451C67.3979 62.451 69.604 60.2448 69.604 57.5331C69.604 57.0153 69.1843 56.5957 68.6665 56.5957Z" fill="#FA541C" />
    </g>
    <defs>
        <linearGradient id="paint0_linear_1_1430" x1="0.125" y1="0.5" x2="88.125" y2="88.5" gradientUnits="userSpaceOnUse">
            <stop stop-color="#FDAB76" />
            <stop offset="1" stop-color="#FA541C" />
        </linearGradient>
        <clipPath id="clip0_1_1430">
            <rect width="64" height="64" fill="white" transform="translate(12.125 12.5)" />
        </clipPath>
    </defs>
</svg>
    