<svg width="89" height="88" viewBox="0 0 89 88" fill="none" xmlns="http://www.w3.org/2000/svg">
    <path opacity="0.08" d="M66.6562 10.5286C72.0274 15.5348 76.2744 20.5409 80.1466 26.1729C84.0189 31.7422 87.5164 37.9374 88.3908 44.6331C89.2651 51.3289 87.5788 58.5878 85.2055 66.7854C82.8947 75.0456 79.8968 84.3696 73.6512 87.0604C67.4057 89.7512 57.9124 85.934 49.1062 84.6824C40.3624 83.4309 32.2432 84.8076 23.8741 83.3683C15.4426 81.8665 6.76129 77.6112 3.0764 70.6026C-0.54602 63.594 0.828004 53.8319 1.14028 44.3202C1.51502 34.8085 0.765546 25.4845 5.07498 19.5397C9.38442 13.6575 18.6278 11.0918 26.6846 7.65005C34.7414 4.14574 41.6115 -0.297238 48.2318 0.0156473C54.8521 0.328533 61.3475 5.45985 66.6562 10.5286Z" fill="url(#paint0_linear_1_1445)" />
    <g clip-path="url(#clip0_1_1445)">
        <path d="M39.3057 16.2796C26.9392 16.2796 16.9142 26.3046 16.9142 38.6711C16.9142 51.0376 26.9392 61.0626 39.3057 61.0626C51.6722 61.0626 61.6972 51.0376 61.6972 38.6711C61.6837 26.3102 51.6666 16.2931 39.3057 16.2796ZM39.3057 18.4121C45.892 18.4173 52.0639 21.6273 55.8498 27.0169L53.1842 29.6825C52.5355 29.29 51.7928 29.0799 51.0346 29.0747C48.6791 29.0747 46.7695 30.9843 46.7695 33.3398C46.7733 34.0988 46.9821 34.8427 47.3741 35.4926L40.3922 42.4745C39.0702 41.6684 37.4087 41.6684 36.0867 42.4745L31.2373 37.6251C31.6293 36.9752 31.8381 36.2314 31.8419 35.4723C31.8448 33.1215 29.9415 31.2134 27.5907 31.2105C25.6465 31.2081 23.9478 32.5232 23.4632 34.4061H19.5073C21.5262 25.0833 29.7669 18.4261 39.3057 18.4121ZM53.1671 33.3398C53.1671 34.5176 52.2124 35.4723 51.0346 35.4723C49.8568 35.4723 48.9021 34.5176 48.9021 33.3398C48.9021 32.162 49.8568 31.2073 51.0346 31.2073C52.2124 31.2073 53.1671 32.162 53.1671 33.3398ZM40.372 46.1349C40.372 47.3128 39.4173 48.2675 38.2394 48.2675C37.0616 48.2675 36.1069 47.3128 36.1069 46.1349C36.1069 44.9571 37.0616 44.0024 38.2394 44.0024C39.4173 44.0024 40.372 44.9571 40.372 46.1349ZM29.7093 35.4723C29.7093 36.6501 28.7546 37.6048 27.5768 37.6048C26.399 37.6048 25.4443 36.6501 25.4443 35.4723C25.4443 34.2945 26.399 33.3398 27.5768 33.3398C28.7546 33.3398 29.7093 34.2945 29.7093 35.4723ZM49.1492 56.3852C46.138 58.0571 42.75 58.933 39.3057 58.93C28.1246 58.9376 19.0543 49.8798 19.0467 38.6987C19.0462 37.9771 19.0843 37.2559 19.1608 36.5385H23.4632C23.9479 38.4157 25.6379 39.7299 27.5768 39.7372C28.3359 39.7335 29.0797 39.5247 29.7296 39.1327L34.579 43.982C34.187 44.6319 33.9781 45.3758 33.9744 46.1348C33.9744 48.4903 35.8839 50.3999 38.2394 50.3999C40.5949 50.3999 42.5045 48.4903 42.5045 46.1348C42.5008 45.3758 42.2919 44.6319 41.8999 43.982L48.8818 37.0001C49.5317 37.3921 50.2755 37.601 51.0346 37.6047C53.3901 37.6047 55.2996 35.6952 55.2996 33.3397C55.2959 32.5806 55.087 31.8368 54.6951 31.1869L57.0195 28.8635C62.4461 38.6369 58.9224 50.9587 49.1492 56.3852Z" fill="#0CD66E" />
        <path d="M65.9622 22.6769C67.9011 22.6696 69.5911 21.3555 70.0759 19.4781H76.6248V17.3456H70.0759C69.5911 15.4682 67.9011 14.1541 65.9622 14.1468C63.6067 14.1468 61.6972 16.0564 61.6972 18.4119C61.7009 19.1709 61.9097 19.9148 62.3017 20.5646L60.4283 22.4381C51.4644 10.7597 34.7305 8.5592 23.0521 17.5231C11.3737 26.4871 9.17321 43.2211 18.1371 54.8995C26.5985 65.9229 42.1087 68.597 53.7727 61.0432L67.0818 74.3523C69.2648 76.5353 72.804 76.5353 74.9871 74.3523C77.1701 72.1692 77.1701 68.63 74.9871 66.447L61.678 53.1379C67.3903 44.3391 67.3903 33.0027 61.678 24.2038L63.8105 22.0713C64.46 22.4634 65.2036 22.6726 65.9622 22.6769ZM65.9622 16.2793C67.14 16.2793 68.0947 17.234 68.0947 18.4119C68.0947 19.5897 67.14 20.5444 65.9622 20.5444C64.7844 20.5444 63.8297 19.5897 63.8297 18.4119C63.8297 17.234 64.7845 16.2793 65.9622 16.2793ZM73.4794 67.9547C74.845 69.2896 74.8699 71.4789 73.5349 72.8446C72.2 74.2102 70.0107 74.2351 68.6451 72.9001C68.6263 72.8819 68.6079 72.8633 68.5895 72.8446L60.0061 64.2611L64.896 59.3713L73.4794 67.9547ZM63.3883 57.8636L58.4984 62.7535L55.547 59.802C55.6973 59.6869 55.8381 59.56 55.9863 59.4416C56.1345 59.3233 56.3061 59.1815 56.465 59.0482C56.6985 58.852 56.9288 58.6537 57.1549 58.45C57.2711 58.3434 57.382 58.2368 57.4961 58.1301C57.9333 57.7207 58.3566 57.2974 58.766 56.8602C58.8726 56.7461 58.9793 56.6352 59.0859 56.519C59.2895 56.293 59.4879 56.0627 59.6841 55.8291C59.8177 55.6713 59.9489 55.5118 60.0775 55.3504C60.1948 55.2032 60.3217 55.0625 60.4368 54.9122L63.3883 57.8636ZM59.2533 52.9108C58.9174 53.3799 58.5709 53.8395 58.2052 54.282C58.0985 54.411 57.9844 54.5358 57.8746 54.6627C57.5483 55.0422 57.2114 55.4105 56.8638 55.7673C56.7124 55.9236 56.5584 56.0776 56.4021 56.229C56.0466 56.5766 55.6785 56.9135 55.2975 57.2398C55.1706 57.3464 55.0458 57.4627 54.9168 57.5704C54.4743 57.9361 54.0147 58.2826 53.5456 58.6185C42.5076 66.5042 27.1669 63.9487 19.2812 52.9108C11.3956 41.8728 13.951 26.5321 24.9889 18.6464C36.0269 10.7608 51.3676 13.3161 59.2533 24.3541C65.3551 32.8952 65.3551 44.3698 59.2533 52.9108Z" fill="#0CD66E" />
    </g>
    <defs>
        <linearGradient id="paint0_linear_1_1445" x1="0.625" y1="0" x2="88.625" y2="88" gradientUnits="userSpaceOnUse">
            <stop stop-color="#69F290" />
            <stop offset="1" stop-color="#0CD66E" />
        </linearGradient>
        <clipPath id="clip0_1_1445">
            <rect width="64" height="64" fill="white" transform="translate(12.625 12)" />
        </clipPath>
    </defs>
</svg>
    