<svg width="89" height="88" viewBox="0 0 89 88" fill="none" xmlns="http://www.w3.org/2000/svg">
    <path opacity="0.08" d="M74.5313 1.36972C79.316 4.85107 79.4954 15.7153 80.1533 23.9385C80.7514 32.1016 81.828 37.6838 84.2204 44.6465C86.6127 51.6092 90.3209 59.9525 88.2874 65.6547C86.2539 71.4169 78.4189 74.4781 71.182 78.9798C64.0049 83.4216 57.4258 89.3038 51.744 87.7432C46.0023 86.2427 41.2176 77.2992 33.0835 73.3377C24.9495 69.4361 13.5259 70.4565 7.12635 66.3149C0.726767 62.1133 -0.589036 52.6896 2.40142 45.0067C5.39188 37.3237 12.6288 31.3213 18.4901 26.1593C24.2916 20.9373 28.5978 16.5556 33.7414 13.2543C38.885 10.0131 44.8659 7.85224 52.5813 4.79105C60.2967 1.78989 69.7465 -2.11163 74.5313 1.36972Z" fill="url(#paint0_linear_1_1452)" />
    <path d="M76.1457 49.374C74.6876 47.3947 71.9071 46.9668 69.93 48.4328L56.6274 58.2314H43.2248C42.2526 58.2314 41.5467 57.4257 41.5467 56.4544C41.5467 55.482 42.3524 54.6762 43.2248 54.6762H51.921C53.5991 54.6762 55.3383 53.4671 55.6295 51.7179C55.9906 49.4952 54.2825 47.5637 52.1154 47.5637H34.2375C31.3369 47.5637 28.3341 48.5917 26.0003 50.481L20.8326 54.6751L14.6781 54.575C13.8058 54.575 13 55.4863 13 56.4532V67.1197C13 68.0999 13.8058 68.9 14.6781 68.9H53.1412C55.5895 68.9 58.0222 68.1012 59.9981 66.6474L75.0121 55.5874C77.1792 54.1305 77.6015 51.3522 76.1457 49.374ZM44.0394 31.4483C43.1948 31.326 42.0835 30.9259 41.1055 30.5703L40.561 30.3814C39.1718 29.7924 37.6493 30.6148 37.1603 31.9039C36.6713 33.193 37.396 34.8156 38.7817 35.309L39.299 35.493C40.2421 35.8332 41.2861 36.1704 42.343 36.4168V37.7828C42.343 39.2553 43.5354 40.45 45.0079 40.45C46.4804 40.45 47.6751 39.2553 47.6751 37.7828V36.627C50.4835 35.991 52.4405 34.1988 52.7983 31.5461C53.7639 25.9839 48.4764 24.4713 45.6392 23.6612L45.0507 23.4578C42.1279 22.6287 42.2946 22.2709 42.3724 21.8141C42.5009 21.0622 44.0728 20.6961 45.952 20.9928C46.5008 21.0796 47.2156 21.2758 48.1358 21.5953C49.5283 22.0711 51.0486 21.3384 51.5275 19.9461C52.0065 18.5538 51.2709 17.0355 49.8783 16.5532C49.0335 16.2613 48.3314 16.0689 47.6757 15.9174V14.6672C47.6757 13.1947 46.481 12 45.0085 12C43.536 12 42.3435 13.1947 42.3435 14.6672V15.8363C39.5385 16.4709 37.5715 18.2512 37.0158 20.9051C36.1601 26.4028 41.5278 27.9809 43.5504 28.581L44.2726 28.7894C47.791 29.7965 47.7344 30.1108 47.6443 30.6386C47.5179 31.3927 45.9509 31.7594 44.0394 31.4483Z" fill="#FFC81A" />
    <defs>
        <linearGradient id="paint0_linear_1_1452" x1="0.875" y1="0" x2="88.875" y2="88" gradientUnits="userSpaceOnUse">
            <stop stop-color="#FFE475" />
            <stop offset="1" stop-color="#FFC81A" />
        </linearGradient>
    </defs>
</svg>
    