<svg width="89" height="88" viewBox="0 0 89 88" fill="none" xmlns="http://www.w3.org/2000/svg">
    <path opacity="0.08" d="M70.6809 0.631649C75.4712 3.28898 75.6795 15.0572 76.1655 23.9403C76.7209 32.8234 77.554 38.8973 80.6781 46.9452C83.8022 54.9932 89.2868 65.0151 88.2454 72.9871C87.2735 80.9591 79.845 86.9571 71.8611 87.8682C63.9467 88.7793 55.4768 84.6794 47.2152 84.3757C38.9537 84.072 30.8309 87.5645 23.4719 86.3497C16.0434 85.059 9.37861 79.061 5.14368 71.3168C0.908758 63.6485 -0.826867 54.3098 1.25588 46.2619C3.33863 38.2899 9.23976 31.5327 13.9607 24.7754C18.6121 17.9423 22.0834 11.1091 27.4291 8.7555C32.7054 6.40186 39.9256 8.67958 48.1872 6.55371C56.4488 4.42785 65.8906 -2.02569 70.6809 0.631649Z" fill="url(#paint0_linear_1_1438)" />
    <g clip-path="url(#clip0_1_1438)">
        <path d="M74.5459 39.5218L68.1259 34.6677V13.25C68.1259 12.5596 67.5663 12 66.8759 12H21.876C21.1856 12 20.626 12.5596 20.626 13.25V34.6678L14.0487 39.6408C13.0022 40.4307 12.3769 41.6824 12.376 42.9901V71.799C12.376 74.1155 14.2606 76 16.577 76H72.1748C74.4912 76 76.3757 74.1154 76.3757 71.799V42.9901C76.3759 41.6003 75.6925 40.3068 74.5459 39.5218ZM14.876 49.3421L26.4122 58.0644L14.876 66.7869V49.3421ZM28.4847 56.4973L28.1261 56.2262V19.5001H60.6258V56.2262L60.2672 56.4973L46.9833 46.4534C46.2262 45.8818 45.3257 45.5798 44.3808 45.5798C44.3784 45.5798 44.3758 45.5798 44.3732 45.5798C43.4263 45.5798 42.5257 45.8819 41.7679 46.4541L28.4847 56.4973ZM73.8759 49.3421V66.7866L62.3398 58.0643L73.8759 49.3421ZM73.0638 41.5354C73.0824 41.5496 73.1015 41.5631 73.1209 41.5762C73.5936 41.8937 73.8759 42.4222 73.8759 42.9902V46.2081L68.1259 50.5555V37.8019L73.0638 41.5354ZM65.6259 14.5V52.4455L63.1258 54.3359V18.2501C63.1258 17.5597 62.5661 17.0001 61.8758 17.0001H26.8761C26.1857 17.0001 25.6261 17.5597 25.6261 18.2501V54.3359L23.126 52.4455V14.5H65.6259ZM15.5557 41.6356L20.626 37.8019V50.5553L14.876 46.2078V42.9909C14.8764 42.4554 15.1239 41.9616 15.5557 41.6356ZM72.1748 73.5H16.577C15.639 73.5 14.876 72.737 14.876 71.799V69.921L43.2749 48.4487C43.5947 48.2073 43.9743 48.0798 44.3753 48.0798H44.3786C44.7774 48.0798 45.1572 48.2074 45.4761 48.4482L73.8758 69.9209V71.799C73.8759 72.737 73.1128 73.5 72.1748 73.5Z" fill="#22B8CF" />
        <path d="M43.1546 39.5121L45.8064 42.1639C47.024 43.2906 48.7006 41.6125 47.5743 40.396L44.9391 37.7609C47.3445 35.5415 49.2324 34.6335 52.9896 33.0781C53.3754 32.9184 53.656 32.5766 53.7374 32.1671C53.8189 31.7576 53.6905 31.3344 53.3954 31.0392L45.4403 23.0841C45.145 22.7889 44.7215 22.6604 44.3124 22.7421C43.9029 22.8236 43.5611 23.1041 43.4014 23.4899C41.6578 27.7017 40.7275 29.5646 37.8513 32.4409L36.0835 34.2087C34.6215 35.6709 34.6215 38.0499 36.0835 39.512L36.9674 40.3959C38.3584 41.8466 40.8796 41.8465 42.2706 40.3959L43.1546 39.5121ZM44.9865 26.1661L50.3134 31.493C47.6063 32.6662 45.5838 33.7637 43.1714 35.9932L40.4863 33.3081C42.7159 30.8957 43.8134 28.8731 44.9865 26.1661ZM40.5029 38.6281C40.0425 39.109 39.1956 39.109 38.7353 38.6281L37.8514 37.7442C37.364 37.2569 37.364 36.4639 37.8514 35.9765L38.7353 35.0926L41.3869 37.7442L40.5029 38.6281Z" fill="#22B8CF" />
    </g>
    <defs>
        <linearGradient id="paint0_linear_1_1438" x1="0.375" y1="0" x2="88.375" y2="88" gradientUnits="userSpaceOnUse">
            <stop stop-color="#77F0ED" />
            <stop offset="1" stop-color="#22B8CF" />
        </linearGradient>
        <clipPath id="clip0_1_1438">
            <rect width="64" height="64" fill="white" transform="translate(12.375 12)" />
        </clipPath>
    </defs>
</svg>
    