<svg width="216" height="209" viewBox="0 0 216 209" fill="none" xmlns="http://www.w3.org/2000/svg">
    <path d="M18.3721 139.178C32.9633 155.245 57.3172 153.659 57.2643 161.231C57.2051 169.592 27.5143 171.002 26.9597 178.872C26.2095 189.537 79.092 210.045 134.301 201.648C153.321 198.754 171.329 195.959 186.864 182.341C229.436 145.024 198.257 66.0279 193.176 52.9523C183.133 27.1106 170.691 18.7788 166.846 16.179C146.822 2.6685 123.781 4.88875 103.207 6.87146C87.6275 8.37216 64.2959 10.9262 42.9985 27.9645C39.3668 30.8731 31.3552 37.7748 24.1359 48.7292C6.59525 75.3424 -1.15723 117.679 18.3721 139.178Z" fill="#919EAB" fill-opacity="0.08" />
    <path d="M168.336 135.202C168.336 135.202 168.978 136.63 168.954 136.873C168.954 136.875 168.954 136.878 168.954 136.881C168.906 137.365 168.51 137.738 168.041 137.712C166.677 137.637 164.069 137.448 162.71 137.038C160.816 136.468 167.32 134.989 167.32 134.989L168.336 135.202Z" fill="#063963" />
    <path d="M168.294 133.089L168.189 135.507C168.189 135.507 167.811 136.091 166.879 135.349L166.379 132.778L168.294 133.089Z" fill="#FDBAB9" />
    <path d="M163.566 88.088C164.66 88.6837 165.609 89.5004 166.35 90.4828C169.241 94.3187 167.467 98.4843 167.613 105.091C167.815 114.258 171.432 115.441 171.015 124.129C170.853 127.368 170.2 130.566 169.076 133.62L165.573 133.169C165.034 127.541 163.603 118.833 159.186 109.323C154.57 99.3832 149.342 94.2758 151.427 90.4232C153.151 87.2369 159.372 85.8394 163.566 88.088Z" fill="#116E95" />
    <path opacity="0.24" d="M151.427 90.4231C153.151 87.2375 159.372 85.8392 163.566 88.0879C163.721 88.171 163.865 88.2589 164.008 88.3469C160.959 93.3726 160.904 96.8193 161.586 99.1503C162.283 101.536 163.74 102.72 164.084 106.166C164.466 110.001 162.871 110.65 163.482 113.768C164.249 117.69 166.957 117.61 167.7 121.455C168.406 125.106 166.287 126.865 167.615 129.223C168.125 130.13 168.945 130.765 169.855 131.216C169.598 132.131 169.328 132.937 169.078 133.621L165.575 133.17C165.036 127.541 163.605 118.835 159.188 109.324C154.57 99.383 149.343 94.2756 151.427 90.4231Z" fill="#063963" />
    <path d="M148.613 136.15C148.613 136.15 149.256 137.578 149.232 137.821C149.232 137.823 149.232 137.826 149.232 137.828C149.184 138.313 148.788 138.686 148.319 138.659C146.955 138.585 144.347 138.395 142.988 137.986C141.094 137.416 147.598 135.937 147.598 135.937L148.613 136.15Z" fill="#063963" />
    <path d="M149.129 134.047L148.496 136.52C148.496 136.52 148.117 137.103 147.186 136.362L147.212 133.736L149.129 134.047Z" fill="#FDBAB9" />
    <path d="M157.97 89.5266C160.778 92.3369 157.231 102.264 155.406 107.371C154.998 108.479 154.699 109.623 154.513 110.786C154.133 113.184 154.358 114.929 154.452 116.277C154.452 116.277 154.695 119.739 153.831 124.656C153.413 127.039 152.414 130.648 149.705 134.788L146.52 134.249C146.481 129.785 146.358 122.512 145.917 113.504C145.195 98.7753 143.912 85.3361 145.489 85.0355C146.007 84.9365 146.131 86.3957 147.727 87.7295C151.384 90.7904 155.827 87.3811 157.97 89.5266Z" fill="#063963" />
    <path d="M155.32 54.6064C158.931 54.8142 171 55.8842 178.06 63.6232C179.73 65.4535 183.828 69.9452 181.87 73.8837C179.983 77.6794 172.966 79.9634 164.645 78.6967L162.964 76.6337C167.563 76.178 170.744 74.0873 170.947 71.9065C171.122 70.0006 168.977 68.4653 167.9 67.6952C164.234 65.0705 159.612 65.1232 158.028 65.2021C157.125 61.6702 156.222 58.1383 155.32 54.6064Z" fill="#FA541C" />
    <path d="M124.256 38.4768C122.847 37.5983 122.754 35.3037 124.047 33.3517C125.34 31.3996 127.53 30.5293 128.939 31.4078C130.348 32.2863 130.442 34.5808 129.148 36.5329C127.855 38.4849 125.665 39.3552 124.256 38.4768Z" fill="#063963" />
    <path d="M143.412 46.948L129.374 32.9936C129.284 32.904 129.174 32.8362 129.052 32.7957C128.931 32.7553 128.801 32.7434 128.673 32.7609C127.552 32.9174 124.605 33.6702 124.477 37.2623C124.472 37.4091 124.508 37.5545 124.582 37.6827C124.656 37.811 124.764 37.9173 124.896 37.9902L142.537 47.6648L143.412 46.948Z" fill="#063963" />
    <path d="M142.461 46.9598C142.208 47.3407 142.226 47.7908 142.501 47.9605C142.776 48.1302 143.204 47.9605 143.457 47.581C143.71 47.2015 143.691 46.75 143.416 46.5803C143.141 46.4106 142.713 46.5782 142.461 46.9598Z" fill="#116E95" />
    <path d="M130.363 44.2024L132.871 42.3658C132.871 42.3658 131.623 42.0071 132.068 40.2114C132.512 38.4156 131.301 38.7626 131.261 40.2114C131.221 41.6601 130.833 42.656 130.833 42.656L129.302 43.7259L130.363 44.2024Z" fill="#FDBAB9" />
    <path d="M144.852 51.1753C144.296 50.2133 144.58 49.1358 144.644 48.9024C144.911 47.928 145.005 47.7812 145.197 47.5776L145.469 47.3116L145.504 47.2888C145.691 47.1704 146.385 46.9862 146.533 46.982C147.009 46.9702 147.935 48.6441 148.427 51.2023C148.47 51.2944 148.512 51.3879 148.554 51.4793C148.632 51.6531 148.685 51.7819 148.69 51.7916C148.776 51.9931 149.277 52.7424 149.822 53.194C151.081 54.2328 153.979 54.856 153.955 55.3103C153.932 55.7349 151.39 56.0264 148.875 55.9731C147.099 55.9357 144.079 55.7002 144.026 55.0873C143.973 54.4745 146.998 54.1961 146.643 52.1517C146.607 51.9516 145.261 51.8837 144.852 51.1753Z" fill="#FDBAB9" />
    <path d="M144.354 46.813C144.552 47.5955 145.139 48.3421 145.367 48.4307C145.503 48.4915 145.628 48.5731 145.737 48.6724C145.764 48.6963 145.789 48.7238 145.808 48.7541C146.108 49.2057 145.444 49.9758 145.655 50.16C145.808 50.2936 146.304 49.9522 146.404 50.0734C146.504 50.1946 146.109 50.5658 146.217 50.7057C146.299 50.811 146.553 50.6364 146.775 50.7749C146.886 50.8442 146.878 50.9211 147.04 51.1738C147.123 51.3076 147.219 51.4337 147.326 51.5506C147.719 51.9446 148.551 51.9273 148.657 51.7078C148.686 51.6468 148.639 51.6122 148.64 51.4308C148.645 51.3017 148.669 51.174 148.711 51.0513C148.809 50.7493 149.157 50.4688 149.485 50.0977C150.094 49.41 150.185 48.9245 150.208 48.7618C150.217 48.7043 150.219 48.6613 150.222 48.6302C150.27 48.0069 150.06 47.1606 149.663 46.7022C148.997 45.9342 148.092 46.5852 147.048 45.9141C145.846 45.1398 146.074 43.6426 145.519 43.6135C144.904 43.5796 143.99 45.367 144.354 46.813Z" fill="#770508" />
    <path d="M145.896 49.9081C146.028 49.5986 146.437 49.7648 146.524 50.1048C146.612 50.4448 146.359 50.8804 146.012 50.8901C145.665 50.8998 145.719 50.3257 145.896 49.9081Z" fill="#FDBAB9" />
    <path d="M159.577 55.578C158.02 54.481 155.542 54.2746 150.583 53.936C146.86 53.6812 143.399 53.819 141.326 53.9069C136.824 54.0974 135.169 54.4388 132.313 53.7428C130.299 53.2525 127.994 52.6915 127.321 51.0115C126.581 49.1659 128.008 46.465 130.91 44.3736L129.158 42.9927C128.094 43.2198 124.701 44.0806 122.319 47.1478C120.249 49.8155 119.218 53.7054 120.548 57.0219C121.741 59.9998 124.409 61.4638 128.426 63.6736C132.923 66.1494 133.886 65.398 135.773 67.2699C137.201 68.6868 137.915 71.6536 139.271 77.5297C140.038 80.8407 140.572 83.624 141.841 87.8678C143.054 91.9239 143.49 92.4676 143.96 92.8845C146.208 94.8789 148.614 93.408 155.266 94.3318C159.513 94.9219 159.478 95.6476 163.245 95.8914C166.723 96.1151 170.379 96.3506 172.543 93.998C174.374 92.007 174.085 89.1677 174.035 88.7632C173.66 85.7258 171.378 84.4045 169.157 81.6911C167.162 79.2548 166.249 76.3919 164.421 70.6654C161.296 60.8564 162.742 57.8072 159.577 55.578Z" fill="#FA541C" />
    <path opacity="0.24" d="M120.121 52.0574C120.492 53.4523 121.144 54.7621 122.04 55.9106C125.133 59.8206 130.718 60.9834 133.634 61.5893C138.926 62.6932 142.145 61.831 143.162 63.7071C144.119 65.4737 141.616 66.8851 141.899 70.0548C142.24 73.8762 146.071 74.0022 148.442 78.8499C150.877 83.8361 148.743 87.5979 151.197 88.985C152.857 89.9227 154.029 88.3112 157.74 87.9823C164.501 87.3832 167.96 92.0799 171.171 90.4331C171.981 90.0176 172.938 89.1131 173.505 86.9151C173.783 87.4994 173.964 88.1228 174.041 88.762C174.091 89.1665 174.379 92.0058 172.549 93.9969C170.385 96.3514 166.729 96.1139 163.251 95.8902C159.484 95.6471 159.518 94.9207 155.272 94.3307C148.62 93.4068 146.213 94.8777 143.966 92.8833C143.496 92.4678 143.06 91.9227 141.846 87.8666C140.575 83.62 140.041 80.8395 139.277 77.5285C137.914 71.6524 137.207 68.6857 135.779 67.2687C133.892 65.3989 132.933 66.1482 128.432 63.6725C124.415 61.4626 121.747 59.9958 120.554 57.0207C119.91 55.4341 119.819 53.7132 120.121 52.0574Z" fill="#B3200E" />
    <path d="M68.2173 14.4242C59.5676 10.2635 51.3197 11.3854 47.2019 13.1534C42.3331 15.2435 40.7185 16.812 36.4087 17.6015C32.5777 18.3031 28.6012 13.7441 25.6154 16.9658C25.337 17.2551 25.0933 17.5741 24.8888 17.9166C22.7474 21.5032 25.2771 25.8357 24.5776 33.405C24.2207 37.2776 23.3549 38.3524 22.554 45.795C22.2499 48.6254 22.3134 49.0423 22.3984 49.3699C23.7068 54.3921 34.0853 53.4426 41.3902 51.2757C51.4603 48.2881 54.7031 43.2777 61.3156 45.5568C64.3656 46.6087 66.684 48.7113 68.168 50.3228C67.4906 38.4113 68.8918 26.3385 68.2173 14.4242Z" fill="#22B8CF" />
    <path d="M68.1081 109.048C68.1578 109.048 68.2071 109.038 68.253 109.02C68.299 109.001 68.3407 108.974 68.3759 108.94C68.411 108.906 68.4388 108.865 68.4578 108.821C68.4768 108.776 68.4865 108.728 68.4864 108.68V10.9845C68.4886 10.9349 68.4805 10.8854 68.4624 10.839C68.4444 10.7925 68.4169 10.7501 68.3815 10.7142C68.3461 10.6784 68.3036 10.6499 68.2566 10.6304C68.2095 10.6109 68.1589 10.6008 68.1077 10.6008C68.0566 10.6008 68.006 10.6109 67.9589 10.6304C67.9119 10.6499 67.8694 10.6784 67.834 10.7142C67.7986 10.7501 67.7711 10.7925 67.753 10.839C67.735 10.8854 67.7269 10.9349 67.7291 10.9845V108.68C67.7291 108.778 67.769 108.871 67.8401 108.94C67.9112 109.009 68.0076 109.048 68.1081 109.048Z" fill="#116E95" />
    <path d="M54.9601 191.661L94.8795 190.083V105.322L54.9601 103.716V191.661Z" fill="#B3200E" />
    <path d="M25.9924 189.771L54.9601 191.661V103.716L25.9924 105.784V189.771Z" fill="#FDAB76" />
    <path d="M99.7026 194.581L138.243 192.879V121.626L99.7026 120.401V194.581Z" fill="#B3200E" />
    <path d="M65.9911 192.381L99.7027 194.581V120.401L65.9911 122.118V192.381Z" fill="#FDAB76" />
    <path d="M152.341 198.014L189.258 196.167V137.579L152.341 136.843V198.014Z" fill="#B3200E" />
    <path d="M112.616 195.422L152.341 198.014V136.843L112.616 137.994V195.422Z" fill="#FDAB76" />
</svg>
    