<svg width="206" height="84" viewBox="0 0 206 84" fill="none" xmlns="http://www.w3.org/2000/svg">
    <g clip-path="url(#clip0_1_1758)">
        <path d="M54.5461 3.74927H27.7617C25.4553 3.75445 23.2438 4.66564 21.6053 6.28573C19.9669 7.90582 19.0333 10.1046 19.0066 12.4063H39.3062C42.6263 12.409 45.8097 13.7266 48.1574 16.0699C50.5051 18.4131 51.8253 21.5904 51.8279 24.9042V44.8805H54.5461C56.87 44.8778 59.0979 43.9552 60.7411 42.3152C62.3843 40.6751 63.3087 38.4514 63.3113 36.132V12.4978C63.3087 10.1784 62.3843 7.9547 60.7411 6.31462C59.0979 4.67454 56.87 3.75196 54.5461 3.74927Z" fill="#A3B476" />
        <path d="M59.6465 22.5267C60.8835 22.5267 61.8862 21.5259 61.8862 20.2913C61.8862 19.0567 60.8835 18.0559 59.6465 18.0559C58.4096 18.0559 57.4069 19.0567 57.4069 20.2913C57.4069 21.5259 58.4096 22.5267 59.6465 22.5267Z" fill="#443F35" />
        <path d="M54.5462 0H27.7617C24.4627 0.010591 21.3009 1.31917 18.9623 3.64181C16.6238 5.96444 15.2973 9.11376 15.2705 12.4064H12.5218C9.20164 12.4091 6.01823 13.7267 3.67053 16.07C1.32282 18.4132 0.00269603 21.5905 0 24.9043L0 48.5284C0.00269132 51.8431 1.32249 55.0215 3.66991 57.3663C6.01732 59.7112 9.2007 61.031 12.5218 61.0364H39.3062C42.615 61.0311 45.7877 59.721 48.1331 57.3915C50.4785 55.0621 51.8065 51.9019 51.828 48.5995H54.5462C57.8655 48.5941 61.0473 47.2757 63.3945 44.933C65.7416 42.5904 67.0626 39.4146 67.068 36.1016V12.4979C67.0626 9.18489 65.7416 6.00913 63.3945 3.66648C61.0473 1.32384 57.8655 0.00537389 54.5462 0V0ZM48.0715 48.5284C48.0688 50.8487 47.1448 53.0734 45.5018 54.7151C43.8589 56.3568 41.631 57.2817 39.3062 57.287H12.5218C10.197 57.2817 7.96911 56.3568 6.32618 54.7151C4.68325 53.0734 3.75923 50.8487 3.75654 48.5284V24.9043C3.75923 22.584 4.68325 20.3592 6.32618 18.7176C7.96911 17.0759 10.197 16.151 12.5218 16.1456H39.3062C41.631 16.151 43.8589 17.0759 45.5018 18.7176C47.1448 20.3592 48.0688 22.584 48.0715 24.9043V48.5284ZM63.342 36.1321C63.3393 38.4515 62.4149 40.6752 60.7717 42.3153C59.1285 43.9553 56.9006 44.8779 54.5767 44.8806H51.828V24.9043C51.8253 21.5905 50.5052 18.4132 48.1575 16.07C45.8098 13.7267 42.6264 12.4091 39.3062 12.4064H19.0067C19.0334 10.1047 19.967 7.90592 21.6054 6.28583C23.2438 4.66574 25.4554 3.75455 27.7617 3.74937H54.5462C56.87 3.75205 59.0979 4.67463 60.7412 6.31472C62.3844 7.9548 63.3087 10.1785 63.3114 12.4979L63.342 36.1321Z" fill="#443F35" />
        <path d="M39.3062 16.1458H12.5217C7.68081 16.1458 3.75647 20.0626 3.75647 24.8943V48.5285C3.75647 53.3602 7.68081 57.277 12.5217 57.277H39.3062C44.1471 57.277 48.0714 53.3602 48.0714 48.5285V24.8943C48.0714 20.0626 44.1471 16.1458 39.3062 16.1458Z" fill="#C26558" />
        <path d="M33.5443 26.012H19.414C18.7168 26.012 18.1516 26.5761 18.1516 27.2719V28.4811C18.1516 29.1769 18.7168 29.741 19.414 29.741H33.5443C34.2414 29.741 34.8066 29.1769 34.8066 28.4811V27.2719C34.8066 26.5761 34.2414 26.012 33.5443 26.012Z" fill="#443F35" />
        <path d="M33.5443 44.8806H19.414C18.7168 44.8806 18.1516 45.4447 18.1516 46.1406V47.3497C18.1516 48.0456 18.7168 48.6097 19.414 48.6097H33.5443C34.2414 48.6097 34.8066 48.0456 34.8066 47.3497V46.1406C34.8066 45.4447 34.2414 44.8806 33.5443 44.8806Z" fill="#443F35" />
        <path d="M31.1315 35.3193H19.414C18.7168 35.3193 18.1516 35.8834 18.1516 36.5793V37.7884C18.1516 38.4843 18.7168 39.0484 19.414 39.0484H31.1315C31.8287 39.0484 32.3939 38.4843 32.3939 37.7884V36.5793C32.3939 35.8834 31.8287 35.3193 31.1315 35.3193Z" fill="#443F35" />
        <path d="M63.3114 31.4986C62.1734 31.9432 60.9389 32.0832 59.73 31.905C58.5211 31.7268 57.3799 31.2364 56.4193 30.4825C56.0413 30.1592 55.5501 29.9989 55.0537 30.037C54.5573 30.0751 54.0964 30.3085 53.7724 30.6858C53.4484 31.063 53.2878 31.5533 53.326 32.0488C53.3642 32.5442 53.598 33.0042 53.976 33.3276C55.9278 34.9125 58.3622 35.7869 60.8783 35.8069C61.6987 35.8035 62.5156 35.7011 63.3114 35.502V31.4986Z" fill="#443F35" />
        <path d="M104.857 1.83911C106.405 1.83911 107.016 2.39796 107.016 3.93225V6.98052C107.016 8.51481 106.405 9.0635 104.857 9.0635H86.0542V19.7934H102.007C103.544 19.7934 104.104 20.3421 104.104 21.8865V24.9348C104.104 26.4691 103.544 27.0279 102.007 27.0279H86.0542V38.2963H105.58C107.117 38.2963 107.677 38.845 107.677 40.3793V43.4276C107.677 44.9619 107.117 45.4598 105.58 45.4598H80.4245C78.8873 45.4598 78.2663 44.9111 78.2663 43.4276V3.93225C78.2663 2.39796 78.8873 1.83911 80.4245 1.83911H104.857Z" fill="#C26558" />
        <path d="M111.922 25.6359C111.922 17.0296 116.544 12.7214 125.839 12.7214C130.461 12.7214 134.217 13.3412 137.037 14.6317C139.002 15.5462 139.318 16.044 139.318 18.0051V46.5267C139.318 54.9501 135.062 59.9289 125.768 59.9289C119.605 59.9289 115.357 57.9611 113.022 54.0254C112.095 52.735 112.34 51.6884 113.755 50.9771L116.096 49.6867C117.572 48.945 118.255 49.1279 119.242 50.4183C120.535 52.5114 122.683 53.558 125.645 53.558C130.013 53.558 132.171 51.3429 132.171 46.923V43.8747C129.766 44.5619 127.281 44.9342 124.78 44.9822C116.157 44.9822 111.973 40.5521 111.973 32.6266L111.922 25.6359ZM126.328 19.2346C121.461 19.2346 119.069 21.4496 119.069 25.8798V32.3929C119.069 36.2642 121.4 38.4183 125.778 38.4183C127.918 38.3695 130.045 38.0798 132.12 37.5546V20.6571C132.113 20.4928 132.057 20.3343 131.959 20.2021C131.861 20.0699 131.726 19.97 131.57 19.9153C129.859 19.4677 128.097 19.2389 126.328 19.2346Z" fill="#C26558" />
        <path d="M158.172 12.7214C166.978 12.7214 171.345 16.9687 171.345 25.3819V41.304C171.345 43.4581 170.856 44.0678 169.126 44.8095C166.662 45.8256 163.017 46.4048 158.039 46.4048C152.807 46.4048 149.233 45.6122 147.269 43.9458C145.304 42.2794 144.316 39.8815 144.316 36.4471C144.316 29.1313 148.256 26.5504 158.294 26.5504C158.721 26.5504 160.696 26.6723 164.198 26.8654V25.138C164.198 21.1448 162.478 19.0415 158.09 19.0415C155.077 19.0415 152.922 20.0271 151.626 21.9983C150.709 23.2888 150.394 23.4107 148.979 22.9128L146.515 21.8967C145.161 21.2769 144.795 20.3523 145.497 19.1228C147.615 14.8755 151.89 12.7214 158.172 12.7214ZM164.198 32.6977C159.892 32.5148 157.673 32.3929 157.49 32.3929C153.061 32.3929 151.575 33.6833 151.575 36.3861C151.575 39.0889 152.868 40.4505 157.367 40.4505C159.414 40.486 161.46 40.3227 163.476 39.9628C163.667 39.9117 163.836 39.7997 163.957 39.6438C164.078 39.4878 164.145 39.2965 164.147 39.0991L164.198 32.6977Z" fill="#C26558" />
        <path d="M183.103 0C184.528 0 184.956 0.487722 184.956 1.91025V13.768C187.377 13.1693 189.854 12.8287 192.347 12.7519C200.909 12.7519 205.154 16.8671 205.154 25.1075V33.409C205.154 42.0762 200.532 46.4352 191.237 46.4352C187.428 46.5286 183.638 45.8619 180.09 44.4742C178.115 43.5495 177.809 43.0517 177.809 41.0906V1.91025C177.809 0.487722 178.308 0 179.723 0H183.103ZM198.007 25.26C198.007 21.3887 195.676 19.2345 191.298 19.2345C189.14 19.2549 186.998 19.622 184.956 20.3218V38.4793C184.957 38.628 185.005 38.7727 185.092 38.893C185.18 39.0133 185.303 39.1031 185.445 39.1499C187.158 39.6931 188.951 39.9439 190.749 39.8916C195.605 39.8916 198.007 37.6765 198.007 33.1956V25.26Z" fill="#C26558" />
        <path d="M0 71.9696C0 71.7257 0.0916229 71.6343 0.335951 71.6343H0.916229C1.17074 71.6343 1.26236 71.7257 1.26236 71.9696V80.525C1.26236 80.7689 1.17074 80.8604 0.916229 80.8604H0.335951C0.0916229 80.8604 0 80.7689 0 80.525V71.9696Z" fill="#443F35" />
        <path d="M5.96574 73.9611C6.31966 73.9063 6.68151 73.9343 7.02272 74.043C7.36393 74.1517 7.67516 74.338 7.93185 74.5873C8.18854 74.8366 8.38366 75.142 8.5018 75.4795C8.61995 75.817 8.65789 76.1772 8.61263 76.5318V80.5962C8.61263 80.8401 8.521 80.901 8.29704 80.901H7.7473C7.53351 80.901 7.44189 80.8401 7.44189 80.5962V76.5725C7.44189 75.5564 6.89215 75.028 5.81304 75.028C5.29849 75.029 4.78705 75.1078 4.29617 75.2617C4.24794 75.2776 4.20655 75.3094 4.1788 75.3519C4.15106 75.3943 4.1386 75.445 4.14347 75.4954V80.5759C4.14347 80.8197 4.08238 80.8807 3.82788 80.8807H3.28832C3.06435 80.8807 2.98291 80.7892 2.98291 80.5759V75.1296C2.98291 74.713 3.07453 74.5708 3.48175 74.3981C4.27304 74.0913 5.11705 73.9428 5.96574 73.9611Z" fill="#443F35" />
        <path d="M12.6646 73.9611C13.2071 73.8882 13.7589 73.9836 14.2451 74.2345C14.7314 74.4853 15.1286 74.8794 15.3827 75.3633C15.4134 75.4005 15.4341 75.4448 15.4429 75.4922C15.4517 75.5395 15.4483 75.5883 15.4331 75.634C15.4178 75.6797 15.3912 75.7208 15.3556 75.7534C15.3201 75.786 15.2769 75.8091 15.23 75.8205L14.7923 76.0034C14.5378 76.105 14.497 76.0644 14.3545 75.8611C14.0796 75.3023 13.6317 75.0178 12.6951 75.0178C11.7585 75.0178 11.2088 75.3226 11.2088 75.9526C11.2088 76.5826 11.7178 76.8772 12.9802 76.9687C13.656 77.0007 14.3164 77.1811 14.9144 77.497C15.1416 77.6648 15.3204 77.8892 15.433 78.1479C15.5456 78.4065 15.5879 78.6902 15.5558 78.9704C15.5558 80.2608 14.609 81.0026 12.8376 81.0026C11.3411 81.0026 10.3842 80.464 9.97697 79.3971C9.88535 79.1939 9.97697 79.0517 10.1806 78.9805L10.6183 78.8281C10.6581 78.8104 10.7013 78.8014 10.7449 78.8018C10.7884 78.8021 10.8314 78.8117 10.871 78.83C10.9105 78.8483 10.9457 78.8748 10.9741 78.9078C11.0025 78.9408 11.0235 78.9794 11.0357 79.0212C11.28 79.6512 11.8705 79.956 12.7969 79.956C13.876 79.956 14.4258 79.6308 14.4258 78.9399C14.4258 78.249 13.9269 78.0254 12.6951 77.9238C12.1877 77.8934 11.6871 77.7908 11.2088 77.619C10.981 77.5582 10.7714 77.4432 10.598 77.2837C10.4121 77.1042 10.2669 76.8872 10.1721 76.6471C10.0773 76.407 10.0351 76.1494 10.0482 75.8916C10.0482 74.7231 10.9543 73.9611 12.6646 73.9611Z" fill="#443F35" />
        <path d="M19.587 73.9611C21.3991 73.9611 22.3051 74.8349 22.3051 76.5724V78.4115C22.3051 80.1795 21.3787 81.0635 19.5361 81.0635C18.954 81.0365 18.38 80.9164 17.836 80.7079V83.4107C17.836 83.6647 17.7749 83.7257 17.5204 83.7257H16.9808C16.7569 83.7257 16.6754 83.6342 16.6754 83.4107V75.0788C16.6754 74.652 16.767 74.5098 17.1844 74.337C17.9564 74.0695 18.7701 73.9422 19.587 73.9611ZM21.1344 76.6131C21.1344 75.597 20.5643 75.028 19.4139 75.028C18.9455 75.025 18.4791 75.0901 18.0294 75.221C17.8665 75.282 17.836 75.3429 17.836 75.4954V79.6512C18.3507 79.8498 18.8935 79.9663 19.4445 79.9966C19.6693 80.0331 19.8996 80.0168 20.117 79.949C20.3345 79.8812 20.5331 79.7637 20.6971 79.6059C20.8611 79.4481 20.986 79.2543 21.062 79.04C21.1379 78.8256 21.1627 78.5965 21.1344 78.3709V76.6131Z" fill="#443F35" />
        <path d="M24.3412 71.6951C24.8197 71.6951 24.9622 71.8576 24.9622 72.325V72.4267C24.9622 72.8941 24.8197 73.0465 24.3412 73.0465H24.2598C23.7915 73.0465 23.6388 72.9042 23.6388 72.4267V72.325C23.6388 71.8576 23.7915 71.6951 24.2598 71.6951H24.3412ZM24.5754 74.1743C24.8197 74.1743 24.891 74.2454 24.891 74.4893V80.5858C24.891 80.8297 24.8197 80.8907 24.5754 80.8907H24.0256C23.7813 80.8907 23.7101 80.8297 23.7101 80.5858V74.4893C23.7101 74.2454 23.7813 74.1743 24.0256 74.1743H24.5754Z" fill="#443F35" />
        <path d="M29.7876 73.9611C30.0319 73.9611 30.093 74.0525 30.093 74.276V74.713C30.093 74.9365 30.0319 75.0279 29.7876 75.0279H29.3295C28.8224 75.0296 28.3183 75.1049 27.833 75.2515C27.7764 75.2637 27.7263 75.2964 27.6925 75.3434C27.6586 75.3903 27.6434 75.448 27.6498 75.5055V80.586C27.6498 80.8298 27.5887 80.8908 27.3342 80.8908H26.7844C26.5706 80.8908 26.4892 80.7993 26.4892 80.586V75.0889C26.4892 74.6723 26.5808 74.5301 26.988 74.3675C27.7512 74.0903 28.5581 73.9526 29.3702 73.9611H29.7876Z" fill="#443F35" />
        <path d="M31.6404 71.6951C32.1189 71.6951 32.2614 71.8576 32.2614 72.325V72.4267C32.2614 72.8941 32.1189 73.0465 31.6404 73.0465H31.559C31.0907 73.0465 30.938 72.9042 30.938 72.4267V72.325C30.938 71.8576 31.0907 71.6951 31.559 71.6951H31.6404ZM31.8746 74.1743C32.1189 74.1743 32.18 74.2454 32.18 74.4893V80.5858C32.18 80.8297 32.1189 80.8907 31.8746 80.8907H31.3248C31.0805 80.8907 31.0093 80.8297 31.0093 80.5858V74.4893C31.0093 74.2454 31.0805 74.1743 31.3248 74.1743H31.8746Z" fill="#443F35" />
        <path d="M36.7713 73.9611C37.1252 73.9063 37.487 73.9343 37.8282 74.043C38.1695 74.1517 38.4807 74.338 38.7374 74.5873C38.9941 74.8366 39.1892 75.142 39.3073 75.4795C39.4255 75.817 39.4634 76.1772 39.4182 76.5318V80.5962C39.4182 80.8401 39.3265 80.901 39.1026 80.901H38.5528C38.3289 80.901 38.2372 80.8401 38.2372 80.5962V76.5725C38.2372 75.5564 37.6977 75.028 36.6084 75.028C36.0971 75.0279 35.5889 75.1067 35.1017 75.2617C35.0535 75.2776 35.0121 75.3094 34.9843 75.3519C34.9566 75.3943 34.9441 75.445 34.949 75.4954V80.5759C34.949 80.8197 34.8777 80.8807 34.6334 80.8807H34.0837C33.8597 80.8807 33.7884 80.7892 33.7884 80.5759V75.1296C33.7609 74.9685 33.7962 74.8029 33.887 74.6669C33.9779 74.5308 34.1174 74.4347 34.2771 74.3981C35.0722 74.0923 35.9194 73.9439 36.7713 73.9611Z" fill="#443F35" />
        <path d="M40.7925 76.6538C40.7925 74.8553 41.7494 73.9611 43.6633 73.9611C44.4406 73.9317 45.215 74.0704 45.9335 74.3676C46.3408 74.5606 46.4222 74.6521 46.4222 75.0788V81.1754C46.478 81.5561 46.4443 81.9446 46.3236 82.31C46.203 82.6755 45.9988 83.0079 45.7272 83.281C45.4556 83.5541 45.124 83.7603 44.7587 83.8833C44.3934 84.0064 44.0045 84.0429 43.6226 83.9899C43.1031 84.0422 42.5795 83.9445 42.1139 83.7086C41.6483 83.4726 41.2604 83.1083 40.9961 82.6589C40.8536 82.4455 40.8841 82.2829 41.1081 82.1711L41.4847 81.9578C41.5251 81.9289 41.5712 81.909 41.6199 81.8995C41.6687 81.89 41.7189 81.891 41.7672 81.9026C41.8155 81.9142 41.8607 81.936 41.8998 81.9665C41.9389 81.9971 41.9709 82.0357 41.9938 82.0797C42.1519 82.359 42.3858 82.5882 42.6685 82.741C42.9512 82.8937 43.2713 82.9639 43.5921 82.9434C43.8167 82.9714 44.0448 82.9479 44.2589 82.8746C44.473 82.8013 44.6676 82.6801 44.8276 82.5203C44.9877 82.3606 45.1091 82.1664 45.1826 81.9527C45.256 81.739 45.2796 81.5113 45.2515 81.2871V80.5454C44.6637 80.7439 44.0495 80.8535 43.4292 80.8705C43.0702 80.9259 42.7033 80.896 42.358 80.7834C42.0128 80.6707 41.6991 80.4784 41.4422 80.222C41.1854 79.9657 40.9927 79.6525 40.8798 79.308C40.7669 78.9634 40.737 78.5971 40.7925 78.2389V76.6538ZM43.7448 75.028C42.5537 75.028 41.953 75.5869 41.953 76.6944V78.2389C41.953 79.255 42.5028 79.7732 43.5819 79.7732C44.1491 79.7574 44.7112 79.6616 45.2515 79.4887V75.4853C45.2515 75.3227 45.2515 75.2821 45.0682 75.2211C44.6498 75.0905 44.2137 75.0254 43.7753 75.028H43.7448Z" fill="#443F35" />
        <path d="M53.4467 73.961C53.9904 73.8904 54.5427 73.9867 55.0301 74.2372C55.5175 74.4877 55.9169 74.8805 56.175 75.3632C56.2031 75.4019 56.2212 75.4468 56.228 75.4941C56.2348 75.5414 56.23 75.5896 56.2139 75.6345C56.1979 75.6795 56.1712 75.72 56.136 75.7523C56.1009 75.7847 56.0584 75.8081 56.0121 75.8205L55.5744 76.0034C55.3199 76.105 55.2893 76.0643 55.1366 75.8611C54.872 75.3023 54.4138 75.0178 53.4772 75.0178C52.5407 75.0178 51.9909 75.3226 51.9909 75.9526C51.9909 76.5825 52.4999 76.8772 53.7623 76.9686C54.4381 77.0007 55.0986 77.1811 55.6966 77.497C55.9237 77.6647 56.1026 77.8892 56.2151 78.1478C56.3277 78.4065 56.3701 78.6902 56.3379 78.9703C56.3379 80.2608 55.3911 81.0025 53.6198 81.0025C52.1233 81.0025 51.1663 80.464 50.7693 79.3971C50.7451 79.3584 50.731 79.3144 50.7282 79.2689C50.7254 79.2234 50.7339 79.1779 50.7531 79.1366C50.7723 79.0953 50.8015 79.0593 50.8381 79.0321C50.8747 79.0048 50.9175 78.9871 50.9627 78.9805L51.4005 78.8281C51.4403 78.8104 51.4834 78.8014 51.527 78.8017C51.5706 78.8021 51.6136 78.8117 51.6531 78.83C51.6926 78.8483 51.7278 78.8748 51.7562 78.9078C51.7846 78.9407 51.8056 78.9794 51.8179 79.0211C51.9715 79.3454 52.2259 79.6115 52.5432 79.7799C52.8605 79.9483 53.2238 80.0101 53.5791 79.9559C54.6582 79.9559 55.2079 79.6308 55.2079 78.9399C55.2079 78.2489 54.7091 78.0254 53.4772 77.9238C52.9698 77.8934 52.4693 77.7907 51.9909 77.6189C51.7631 77.5582 51.5535 77.4431 51.3801 77.2836C51.1943 77.1042 51.0491 76.8871 50.9542 76.647C50.8594 76.4069 50.8172 76.1493 50.8304 75.8916C50.8304 74.7231 51.7466 73.961 53.4467 73.961Z" fill="#443F35" />
        <path d="M59.0459 72.5996C59.2699 72.5996 59.3615 72.6606 59.3615 72.9044V74.1745H61.0718C61.2856 74.1745 61.3671 74.266 61.3671 74.4895V74.9468C61.3671 75.1602 61.2856 75.2516 61.0718 75.2516H59.3106V78.2999C59.2504 78.7825 59.378 79.2698 59.6669 79.6614C60.0563 79.9219 60.5237 80.0403 60.9904 79.9967C61.2347 79.9967 61.3162 80.0577 61.3162 80.3117V80.7791C61.3162 80.9925 61.2347 81.0738 60.9904 81.084C60.2123 81.193 59.4225 80.9922 58.7914 80.5251C58.5419 80.2213 58.3565 79.8702 58.2463 79.4931C58.1361 79.1159 58.1033 78.7204 58.1501 78.3303V75.1906H57.071C56.847 75.1906 56.7554 75.0992 56.7554 74.8858V74.4286C56.7554 74.1847 56.847 74.1136 57.071 74.1136H58.1501V72.9044C58.1501 72.6606 58.2315 72.5996 58.4555 72.5996H59.0459Z" fill="#443F35" />
        <path d="M62.1 76.4605C62.1 74.8957 63.1995 73.9609 65.0218 73.9609C66.8441 73.9609 67.9537 74.8957 67.9537 76.4605V78.574C67.9537 80.1184 66.8848 81.0634 65.0218 81.0634C63.1588 81.0634 62.1 80.1184 62.1 78.574V76.4605ZM66.7932 76.4605C66.7932 75.5664 66.1314 75.038 65.0218 75.038C63.9121 75.038 63.2606 75.5664 63.2606 76.4605V78.5943C63.2606 79.4986 63.9223 80.027 65.0218 80.027C66.1213 80.027 66.7932 79.4986 66.7932 78.5943V76.4605Z" fill="#443F35" />
        <path d="M72.657 73.9611C72.9013 73.9611 72.9624 74.0525 72.9624 74.276V74.713C72.9624 74.9365 72.9013 75.0279 72.657 75.0279H72.1989C71.6918 75.0296 71.1877 75.1049 70.7024 75.2515C70.6458 75.2637 70.5957 75.2964 70.5619 75.3434C70.528 75.3903 70.5128 75.448 70.5191 75.5055V80.586C70.5191 80.8298 70.4479 80.8908 70.2036 80.8908H69.6538C69.44 80.8908 69.3586 80.7993 69.3586 80.586V75.0889C69.3586 74.6723 69.4502 74.5301 69.8574 74.3675C70.6206 74.0903 71.4275 73.9526 72.2396 73.9611H72.657Z" fill="#443F35" />
        <path d="M74.5098 71.6951C74.9883 71.6951 75.1308 71.8576 75.1308 72.325V72.4267C75.1308 72.8941 74.9883 73.0465 74.5098 73.0465H74.4284C73.9601 73.0465 73.7972 72.9042 73.7972 72.4267V72.325C73.7972 71.8576 73.9601 71.6951 74.4284 71.6951H74.5098ZM74.744 74.1743C74.9883 74.1743 75.0494 74.2454 75.0494 74.4893V80.5858C75.0494 80.8297 74.9883 80.8907 74.744 80.8907H74.1942C73.9397 80.8907 73.8786 80.8297 73.8786 80.5858V74.4893C73.8786 74.2454 73.9397 74.1743 74.1942 74.1743H74.744Z" fill="#443F35" />
        <path d="M76.4338 76.745C76.4338 74.977 77.4518 73.9609 79.3759 73.9609C81.3 73.9609 82.318 75.038 82.318 76.6536V77.4055C82.318 77.7001 82.1653 77.8627 81.8395 77.8627H77.5943V78.4825C77.5943 79.4986 78.2052 80.0473 79.3352 80.0473C79.6903 80.0784 80.0472 80.0114 80.3668 79.8537C80.6864 79.696 80.9564 79.4537 81.1473 79.1531C81.3 78.9296 81.4323 78.889 81.6563 79.0312L82.0126 79.2141C82.2264 79.3259 82.2671 79.4986 82.1246 79.7222C81.8297 80.1841 81.4112 80.5544 80.9165 80.7915C80.4218 81.0285 79.8705 81.1227 79.325 81.0634C77.3805 81.0634 76.4338 80.0473 76.4338 78.3504V76.745ZM81.1574 76.5824C81.1574 75.5664 80.5364 74.9465 79.3759 74.9465C79.1464 74.9128 78.9122 74.9306 78.6904 74.9988C78.4687 75.0669 78.265 75.1837 78.0943 75.3405C77.9235 75.4972 77.79 75.6901 77.7035 75.905C77.617 76.1199 77.5797 76.3513 77.5943 76.5824V76.9686H81.1574V76.5824Z" fill="#443F35" />
        <path d="M86.1154 73.9611C86.6579 73.8882 87.2097 73.9836 87.6959 74.2345C88.1822 74.4853 88.5794 74.8794 88.8335 75.3633C88.8617 75.4013 88.8802 75.4455 88.8876 75.4922C88.895 75.5388 88.8911 75.5866 88.8761 75.6314C88.8611 75.6763 88.8356 75.7169 88.8016 75.7498C88.7676 75.7827 88.7262 75.8069 88.6808 75.8205L88.2329 76.0034C87.9886 76.105 87.9479 76.0644 87.8053 75.8611C87.5305 75.3023 87.0825 75.0178 86.1358 75.0178C85.189 75.0178 84.6596 75.3226 84.6596 75.9526C84.6596 76.5826 85.1584 76.8772 86.431 76.9687C87.1068 77.0007 87.7673 77.1811 88.3653 77.497C88.5908 77.6662 88.7686 77.8909 88.881 78.1491C88.9934 78.4074 89.0367 78.6904 89.0066 78.9704C89.0066 80.2608 88.0497 81.0026 86.2783 81.0026C84.7818 81.0026 83.835 80.464 83.4278 79.3971C83.4036 79.3585 83.3895 79.3144 83.3867 79.2689C83.3839 79.2234 83.3925 79.178 83.4116 79.1366C83.4308 79.0953 83.4601 79.0594 83.4966 79.0321C83.5332 79.0049 83.576 78.9871 83.6212 78.9805L84.0692 78.8281C84.109 78.8104 84.1521 78.8014 84.1957 78.8018C84.2393 78.8021 84.2822 78.8117 84.3218 78.83C84.3613 78.8483 84.3965 78.8748 84.4249 78.9078C84.4533 78.9408 84.4743 78.9794 84.4865 79.0212C84.7309 79.6512 85.3213 79.956 86.2477 79.956C87.3269 79.956 87.8766 79.6308 87.8766 78.9399C87.8766 78.249 87.3778 78.0254 86.1358 77.9238C85.6317 77.8924 85.1347 77.7898 84.6596 77.619C84.4288 77.5582 84.2159 77.4433 84.0386 77.2837C83.8626 77.1133 83.7224 76.9097 83.6263 76.6846C83.5302 76.4595 83.48 76.2176 83.4787 75.9729C83.4787 74.7231 84.4051 73.9611 86.1154 73.9611Z" fill="#443F35" />
        <path d="M96.3669 71.2482C96.6112 71.2482 96.6825 71.3091 96.6825 71.553V72.0102C96.6825 72.2338 96.6112 72.3252 96.3669 72.3252C95.1046 72.3252 94.6872 72.7113 94.6872 73.9205V74.1745H96.3975C96.6112 74.1745 96.6927 74.2659 96.6927 74.4895V74.9467C96.6927 75.1601 96.6112 75.2515 96.3975 75.2515H94.677V80.5759C94.677 80.8197 94.5955 80.8807 94.3512 80.8807H93.832C93.5877 80.8807 93.5062 80.8197 93.5062 80.5759V75.1906H92.4882C92.2642 75.1906 92.1828 75.0991 92.1828 74.8858V74.4285C92.1828 74.205 92.2642 74.1135 92.4882 74.1135H93.5062V73.8798C93.5062 72.0509 94.3207 71.2177 96.2447 71.2075L96.3669 71.2482Z" fill="#443F35" />
        <path d="M97.2729 76.4605C97.2729 74.8957 98.3622 73.9609 100.184 73.9609C102.007 73.9609 103.116 74.8957 103.116 76.4605V78.574C103.116 80.1184 102.047 81.0634 100.184 81.0634C98.3215 81.0634 97.2729 80.1184 97.2729 78.574V76.4605ZM101.956 76.4605C101.956 75.5664 101.294 75.038 100.184 75.038C99.0748 75.038 98.4233 75.5664 98.4233 76.4605V78.5943C98.4233 79.4986 99.0952 80.027 100.184 80.027C101.274 80.027 101.956 79.4986 101.956 78.5943V76.4605Z" fill="#443F35" />
        <path d="M107.81 73.9611C108.054 73.9611 108.125 74.0525 108.125 74.276V74.713C108.125 74.9365 108.054 75.0279 107.81 75.0279H107.352C106.845 75.0296 106.34 75.1049 105.855 75.2515C105.798 75.2637 105.748 75.2964 105.715 75.3434C105.681 75.3903 105.665 75.448 105.672 75.5055V80.586C105.672 80.8298 105.611 80.8908 105.356 80.8908H104.857C104.633 80.8908 104.552 80.7993 104.552 80.586V75.0889C104.552 74.6723 104.644 74.5301 105.051 74.3675C105.814 74.0903 106.621 73.9526 107.433 73.9611H107.81Z" fill="#443F35" />
        <path d="M111.525 76.6538C111.525 74.8553 112.472 73.9611 114.386 73.9611C115.163 73.9317 115.938 74.0704 116.656 74.3676C117.074 74.5606 117.155 74.6521 117.155 75.0788V81.1754C117.209 81.5567 117.174 81.9453 117.052 82.3106C116.93 82.676 116.725 83.0081 116.452 83.2809C116.18 83.5537 115.848 83.7597 115.482 83.8827C115.117 84.0057 114.728 84.0425 114.345 83.9899C113.826 84.0422 113.302 83.9445 112.837 83.7086C112.371 83.4726 111.983 83.1083 111.719 82.6589C111.683 82.6236 111.657 82.5798 111.643 82.5317C111.629 82.4836 111.628 82.4328 111.639 82.384C111.65 82.3351 111.674 82.29 111.707 82.2528C111.741 82.2155 111.783 82.1874 111.831 82.1711L112.218 81.9578C112.257 81.929 112.303 81.9092 112.351 81.8998C112.399 81.8903 112.448 81.8914 112.496 81.903C112.543 81.9146 112.587 81.9365 112.626 81.967C112.664 81.9975 112.695 82.036 112.717 82.0797C112.877 82.359 113.113 82.5879 113.397 82.7406C113.682 82.8932 114.003 82.9634 114.325 82.9434C115.435 82.9434 115.974 82.3744 115.974 81.2363V80.4946C115.387 80.6947 114.772 80.8044 114.152 80.8197C113.798 80.8736 113.437 80.8444 113.096 80.7344C112.756 80.6243 112.446 80.4366 112.191 80.186C111.936 79.9355 111.743 79.629 111.628 79.291C111.512 78.953 111.477 78.5927 111.525 78.2389V76.6538ZM114.468 75.028C113.287 75.028 112.686 75.5869 112.686 76.6944V78.2389C112.686 79.255 113.226 79.7732 114.315 79.7732C114.879 79.7564 115.437 79.6607 115.974 79.4887V75.4853C115.974 75.3227 115.974 75.2821 115.791 75.2211C115.363 75.0867 114.916 75.0215 114.468 75.028Z" fill="#443F35" />
        <path d="M119.924 80.5554C119.924 80.7993 119.833 80.8602 119.619 80.8602H119.11C118.866 80.8602 118.794 80.7993 118.794 80.5554V71.5529C118.794 71.309 118.866 71.248 119.11 71.248H119.649C119.863 71.248 119.955 71.309 119.955 71.5529L119.924 80.5554Z" fill="#443F35" />
        <path d="M121.39 76.4605C121.39 74.8957 122.479 73.9609 124.302 73.9609C126.124 73.9609 127.234 74.8957 127.234 76.4605V78.574C127.234 80.1184 126.216 81.0634 124.302 81.0634C122.388 81.0634 121.39 80.1184 121.39 78.574V76.4605ZM126.073 76.4605C126.073 75.5664 125.411 75.038 124.302 75.038C123.192 75.038 122.551 75.5664 122.551 76.4605V78.5943C122.551 79.4986 123.212 80.027 124.302 80.027C125.391 80.027 126.073 79.4986 126.073 78.5943V76.4605Z" fill="#443F35" />
        <path d="M129.473 71.248C129.728 71.248 129.789 71.309 129.789 71.5529V74.2861C130.382 74.0809 131.004 73.9711 131.632 73.961C131.984 73.9118 132.342 73.9439 132.68 74.0549C133.017 74.1659 133.325 74.3528 133.579 74.6012C133.832 74.8496 134.026 75.1528 134.143 75.4875C134.261 75.8222 134.3 76.1795 134.258 76.5317V78.3505C134.258 80.1591 133.311 81.0635 131.397 81.0635C130.618 81.084 129.842 80.9457 129.117 80.657C128.7 80.464 128.628 80.3624 128.628 79.9458V71.5529C128.628 71.3293 128.71 71.248 128.934 71.248H129.473ZM133.087 76.5723C133.087 75.5563 132.538 75.0279 131.458 75.0279C130.886 75.0398 130.321 75.1533 129.789 75.3632V79.5393C129.79 79.5939 129.809 79.6466 129.842 79.6903C129.875 79.734 129.92 79.7664 129.972 79.7832C130.404 79.9336 130.859 80.0059 131.316 79.9966C132.497 79.9966 133.087 79.4377 133.087 78.32V76.5723Z" fill="#443F35" />
        <path d="M138.178 73.9611C140.152 73.9611 140.875 74.9772 140.875 76.5826V79.9763C140.875 80.4336 140.773 80.5657 140.407 80.7181C139.69 80.9785 138.929 81.0959 138.167 81.0635C137.385 81.1388 136.6 80.9607 135.928 80.5555C135.711 80.3598 135.543 80.1166 135.437 79.845C135.331 79.5734 135.29 79.281 135.317 78.9907C135.317 77.4869 136.121 76.9586 138.218 76.9586C138.715 76.9602 139.211 76.9907 139.705 77.05V76.5623C139.705 75.5462 139.297 75.0077 138.157 75.0077C137.841 74.9808 137.523 75.0404 137.238 75.18C136.953 75.3196 136.711 75.534 136.538 75.8002C136.386 76.0136 136.355 76.0542 136.111 75.9628L135.704 75.7799C135.656 75.7716 135.611 75.7509 135.574 75.7199C135.537 75.6889 135.509 75.6487 135.493 75.6034C135.476 75.558 135.472 75.5092 135.48 75.4617C135.489 75.4141 135.51 75.3697 135.541 75.3328C135.797 74.8715 136.184 74.4955 136.653 74.2517C137.121 74.0078 137.652 73.9068 138.178 73.9611ZM139.705 78.0254C139.012 77.9645 138.473 77.9238 138.086 77.9238C136.895 77.9238 136.488 78.249 136.488 79.0111C136.488 79.7731 136.854 80.1084 138.066 80.1084C138.553 80.132 139.041 80.0771 139.511 79.9459C139.571 79.9275 139.623 79.8893 139.658 79.8376C139.693 79.7859 139.71 79.7237 139.705 79.6614V78.0254Z" fill="#443F35" />
        <path d="M143.604 80.5554C143.604 80.7993 143.512 80.8602 143.288 80.8602H142.759C142.504 80.8602 142.443 80.7993 142.443 80.5554V71.5529C142.443 71.309 142.504 71.248 142.759 71.248H143.288C143.512 71.248 143.604 71.309 143.604 71.5529V80.5554Z" fill="#443F35" />
        <path d="M150.75 73.9611C152.725 73.9611 153.448 74.9772 153.448 76.5826V79.9763C153.448 80.4336 153.346 80.5657 152.98 80.7181C152.263 80.9785 151.502 81.0959 150.74 81.0635C149.958 81.1388 149.173 80.9607 148.5 80.5555C148.284 80.3598 148.116 80.1166 148.01 79.845C147.904 79.5734 147.863 79.281 147.89 78.9907C147.89 77.4869 148.694 76.9586 150.791 76.9586C151.288 76.9602 151.784 76.9907 152.277 77.05V76.5623C152.277 75.5462 151.88 75.0077 150.73 75.0077C150.413 74.9808 150.096 75.0404 149.81 75.18C149.525 75.3196 149.284 75.534 149.111 75.8002C148.958 76.0136 148.928 76.0542 148.684 75.9628L148.276 75.7799C148.23 75.769 148.188 75.7469 148.152 75.7156C148.117 75.6842 148.09 75.6446 148.074 75.6002C148.058 75.5559 148.053 75.5082 148.06 75.4615C148.067 75.4149 148.085 75.3706 148.114 75.3328C148.37 74.8715 148.757 74.4955 149.225 74.2517C149.694 74.0078 150.224 73.9068 150.75 73.9611ZM152.277 78.0254C151.585 77.9645 151.045 77.9238 150.669 77.9238C149.467 77.9238 149.06 78.249 149.06 79.0111C149.06 79.7731 149.427 80.1084 150.638 80.1084C151.126 80.1327 151.614 80.0778 152.084 79.9459C152.144 79.9275 152.196 79.8893 152.231 79.8376C152.266 79.7859 152.282 79.7237 152.277 79.6614V78.0254Z" fill="#443F35" />
        <path d="M160.228 74.1744C160.472 74.1744 160.544 74.2455 160.544 74.4894V79.9051C160.544 80.3217 160.452 80.464 160.045 80.6367C159.252 80.9382 158.41 81.0898 157.561 81.0838C157.206 81.139 156.843 81.1108 156.501 81.0016C156.159 80.8924 155.847 80.7051 155.59 80.4546C155.333 80.2041 155.138 79.8973 155.021 79.5585C154.904 79.2197 154.867 78.8583 154.914 78.5029V74.469C154.914 74.2252 154.975 74.1541 155.23 74.1541H155.759C155.983 74.1541 156.064 74.2455 156.064 74.469V78.4419C156.064 79.458 156.604 79.9966 157.703 79.9966C158.204 79.9934 158.701 79.9181 159.18 79.773C159.238 79.7499 159.289 79.7092 159.323 79.6564C159.358 79.6036 159.375 79.5414 159.373 79.4784V74.469C159.373 74.2252 159.465 74.1541 159.678 74.1541L160.228 74.1744Z" fill="#443F35" />
        <path d="M161.938 76.613C161.89 76.2552 161.925 75.8912 162.04 75.549C162.156 75.2068 162.348 74.8955 162.603 74.6393C162.858 74.3831 163.168 74.1886 163.51 74.071C163.852 73.9534 164.216 73.9158 164.575 73.961C165.196 73.9767 165.812 74.0723 166.408 74.2455V71.5529C166.408 71.309 166.499 71.248 166.713 71.248H167.263C167.487 71.248 167.568 71.3293 167.568 71.5529V79.9458C167.568 80.3725 167.477 80.4843 167.059 80.657C166.311 80.9367 165.517 81.0745 164.718 81.0635C162.865 81.0635 161.938 80.1896 161.938 78.4419V76.613ZM166.408 75.3124C165.888 75.1394 165.346 75.0436 164.799 75.0279C164.574 74.9914 164.344 75.0077 164.127 75.0755C163.909 75.1434 163.71 75.2608 163.546 75.4186C163.382 75.5764 163.258 75.7702 163.182 75.9846C163.106 76.1989 163.081 76.428 163.109 76.6536V78.4115C163.109 79.4276 163.679 79.9966 164.83 79.9966C165.303 80.0048 165.775 79.9326 166.224 79.7832C166.276 79.7664 166.322 79.734 166.355 79.6903C166.388 79.6466 166.406 79.5939 166.408 79.5393V75.3124Z" fill="#443F35" />
        <path d="M169.787 71.6951C170.276 71.6951 170.419 71.8576 170.419 72.325V72.4267C170.419 72.8941 170.276 73.0465 169.787 73.0465H169.716C169.248 73.0465 169.085 72.9042 169.085 72.4267V72.325C169.085 71.8576 169.248 71.6951 169.716 71.6951H169.787ZM170.011 74.1743C170.256 74.1743 170.317 74.2454 170.317 74.4893V80.5858C170.317 80.8297 170.256 80.8907 170.011 80.8907H169.462C169.207 80.8907 169.146 80.8297 169.146 80.5858V74.4893C169.146 74.2454 169.207 74.1743 169.462 74.1743H170.011Z" fill="#443F35" />
        <path d="M171.722 76.745C171.722 74.977 172.74 73.9609 174.664 73.9609C176.588 73.9609 177.606 75.038 177.606 76.6536V77.4055C177.606 77.7001 177.453 77.8627 177.127 77.8627H172.882V78.4825C172.882 79.4986 173.493 80.0473 174.623 80.0473C174.978 80.0784 175.335 80.0114 175.655 79.8537C175.974 79.696 176.244 79.4537 176.435 79.1531C176.588 78.9296 176.72 78.889 176.944 79.0312L177.3 79.2141C177.514 79.3259 177.555 79.4986 177.412 79.7222C177.117 80.1841 176.699 80.5544 176.204 80.7915C175.71 81.0285 175.158 81.1227 174.613 81.0634C172.668 81.0634 171.722 80.0473 171.722 78.3504V76.745ZM176.445 76.5824C176.445 75.5664 175.824 74.9465 174.664 74.9465C174.434 74.9128 174.2 74.9306 173.978 74.9988C173.756 75.0669 173.553 75.1837 173.382 75.3405C173.211 75.4972 173.078 75.6901 172.991 75.905C172.905 76.1199 172.868 76.3513 172.882 76.5824V76.9686H176.445V76.5824Z" fill="#443F35" />
        <path d="M181.882 73.9611C182.235 73.9063 182.597 73.9343 182.939 74.043C183.28 74.1517 183.591 74.338 183.848 74.5873C184.104 74.8366 184.299 75.142 184.418 75.4795C184.536 75.817 184.574 76.1772 184.528 76.5318V80.5962C184.528 80.8401 184.437 80.901 184.213 80.901H183.663C183.449 80.901 183.358 80.8401 183.358 80.5962V76.5725C183.358 75.5564 182.808 75.028 181.729 75.028C181.214 75.029 180.703 75.1078 180.212 75.2617C180.164 75.2776 180.122 75.3094 180.095 75.3519C180.067 75.3943 180.054 75.445 180.059 75.4954V80.5759C180.059 80.8197 179.998 80.8807 179.744 80.8807H179.174C178.95 80.8807 178.868 80.7892 178.868 80.5759V75.1296C178.868 74.713 178.96 74.5708 179.367 74.3981C180.168 74.0873 181.023 73.9388 181.882 73.9611Z" fill="#443F35" />
        <path d="M185.872 76.5724C185.872 74.9263 186.89 73.961 188.794 73.961C189.383 73.8848 189.981 74.0168 190.483 74.3341C190.985 74.6515 191.36 75.1342 191.543 75.6985C191.564 75.7413 191.575 75.7883 191.576 75.836C191.576 75.8837 191.565 75.9309 191.545 75.9739C191.524 76.017 191.494 76.0548 191.457 76.0845C191.419 76.1143 191.376 76.1352 191.329 76.1456L190.871 76.2879C190.667 76.3793 190.525 76.2879 190.433 76.0846C190.324 75.7318 190.093 75.4285 189.783 75.2279C189.472 75.0273 189.1 74.9421 188.733 74.9873C187.634 74.9873 187.043 75.5461 187.043 76.5216V78.4826C187.029 78.7021 187.063 78.9221 187.145 79.1264C187.227 79.3307 187.354 79.5142 187.516 79.6633C187.678 79.8124 187.871 79.9233 188.082 79.988C188.292 80.0528 188.515 80.0696 188.733 80.0372C189.107 80.0786 189.483 79.9872 189.796 79.779C190.109 79.5709 190.338 79.2594 190.443 78.8992C190.545 78.6553 190.637 78.6045 190.891 78.696L191.339 78.8281C191.563 78.9094 191.645 79.0618 191.563 79.265C191.362 79.8423 190.97 80.3345 190.453 80.6611C189.935 80.9878 189.322 81.1296 188.713 81.0635C186.819 81.0635 185.872 80.0474 185.872 78.4318V76.5724Z" fill="#443F35" />
        <path d="M192.581 76.745C192.581 74.977 193.599 73.9609 195.523 73.9609C197.447 73.9609 198.516 75.038 198.516 76.6536V77.4055C198.516 77.7001 198.364 77.8627 198.038 77.8627H193.793V78.4825C193.793 79.4986 194.403 80.0473 195.533 80.0473C195.889 80.0795 196.246 80.0131 196.566 79.8553C196.886 79.6975 197.155 79.4545 197.345 79.1531C197.508 78.9296 197.631 78.889 197.855 79.0312L198.211 79.2141C198.425 79.3259 198.465 79.4986 198.323 79.7222C198.023 80.1942 197.595 80.5711 197.088 80.8087C196.582 81.0463 196.017 81.1346 195.462 81.0634C193.518 81.0634 192.571 80.0473 192.571 78.3504L192.581 76.745ZM197.315 76.5824C197.315 75.5664 196.684 74.9465 195.523 74.9465C195.294 74.9128 195.059 74.9306 194.838 74.9988C194.616 75.0669 194.412 75.1837 194.242 75.3405C194.071 75.4972 193.937 75.6901 193.851 75.905C193.764 76.1199 193.727 76.3513 193.742 76.5824V76.9686H197.315V76.5824Z" fill="#443F35" />
        <path d="M202.263 73.9611C202.805 73.8882 203.357 73.9836 203.843 74.2345C204.329 74.4853 204.727 74.8794 204.981 75.3633C205.011 75.4005 205.032 75.4448 205.041 75.4922C205.05 75.5395 205.046 75.5883 205.031 75.634C205.016 75.6797 204.989 75.7208 204.954 75.7534C204.918 75.786 204.875 75.8091 204.828 75.8205L204.39 76.0034C204.136 76.105 204.095 76.0644 203.953 75.8611C203.678 75.3023 203.23 75.0178 202.293 75.0178C201.357 75.0178 200.807 75.3226 200.807 75.9526C200.807 76.5826 201.316 76.8772 202.578 76.9687C203.254 77.0007 203.914 77.1811 204.512 77.497C204.74 77.6648 204.918 77.8892 205.031 78.1479C205.144 78.4065 205.186 78.6902 205.154 78.9704C205.154 80.2608 204.207 81.0026 202.436 81.0026C200.929 81.0026 199.982 80.464 199.575 79.3971C199.483 79.1939 199.575 79.0517 199.779 78.9805L200.216 78.8281C200.256 78.8104 200.299 78.8014 200.343 78.8018C200.386 78.8021 200.429 78.8117 200.469 78.83C200.509 78.8483 200.544 78.8748 200.572 78.9078C200.601 78.9408 200.622 78.9794 200.634 79.0212C200.878 79.6512 201.469 79.956 202.395 79.956C203.474 79.956 204.024 79.6308 204.024 78.9399C204.024 78.249 203.525 78.0254 202.293 77.9238C201.786 77.8934 201.285 77.7908 200.807 77.619C200.579 77.5582 200.369 77.4432 200.196 77.2837C200.01 77.1042 199.865 76.8872 199.77 76.6471C199.675 76.407 199.633 76.1494 199.646 75.8916C199.646 74.7231 200.552 73.9611 202.263 73.9611Z" fill="#443F35" />
    </g>
    <defs>
        <clipPath id="clip0_1_1758">
            <rect width="205.154" height="84" fill="white" />
        </clipPath>
    </defs>
</svg>
    